<?xml version="1.0" encoding="UTF-8" standalone="no"?>
<svg
   xmlns:dc="http://purl.org/dc/elements/1.1/"
   xmlns:cc="http://creativecommons.org/ns#"
   xmlns:rdf="http://www.w3.org/1999/02/22-rdf-syntax-ns#"
   xmlns:svg="http://www.w3.org/2000/svg"
   xmlns="http://www.w3.org/2000/svg"
   xmlns:sodipodi="http://sodipodi.sourceforge.net/DTD/sodipodi-0.dtd"
   xmlns:inkscape="http://www.inkscape.org/namespaces/inkscape"
   version="1.0"
   width="40pt"
   height="46.4pt"
   viewBox="0 0 50.000000 58.000000"
   preserveAspectRatio="xMidYMid meet"
   id="svg8"
   sodipodi:docname="bhc-logo.svg"
   inkscape:version="0.92.4 (unknown)">
  <defs
     id="defs12" />
  <sodipodi:namedview
     pagecolor="#ffffff"
     bordercolor="#666666"
     borderopacity="1"
     objecttolerance="10"
     gridtolerance="10"
     guidetolerance="10"
     inkscape:pageopacity="0"
     inkscape:pageshadow="2"
     inkscape:window-width="1366"
     inkscape:window-height="713"
     id="namedview10"
     showgrid="false"
     inkscape:zoom="7.4998987"
     inkscape:cx="34.731446"
     inkscape:cy="46.597172"
     inkscape:window-x="0"
     inkscape:window-y="27"
     inkscape:window-maximized="1"
     inkscape:current-layer="g6" />
  <metadata
     id="metadata2">
Created by potrace 1.15, written by Peter Selinger 2001-2017
<rdf:RDF>
  <cc:Work
     rdf:about="">
    <dc:format>image/svg+xml</dc:format>
    <dc:type
       rdf:resource="http://purl.org/dc/dcmitype/StillImage" />
    <dc:title></dc:title>
  </cc:Work>
</rdf:RDF>
</metadata>
  <g
     transform="translate(0.000000,58.000000) scale(0.100000,-0.100000)"
     fill="#000000"
     stroke="none"
     id="g6">
    <path
       id="path4"
       style="stroke-width:1"
       d="M 30,540.48137 V 426.47259 c 0,-142 16.999103,-180.98634 123.99902,-295.98633 35.16699,-37.678917 64.38713,-70.821274 73.03711,-82.441407 0.2415,-0.066 0.46695,-0.0879 0.74707,-0.278325 0.12113,-0.08235 0.22508,-0.18495 0.3369,-0.278325 0.3027,0.06675 0.69225,0.0225 1.17188,-0.190425 0.85231,-0.3786 1.83105,-0.80943 1.83105,-1.918942 0,-0.03825 -0.0135,-0.05175 -0.015,-0.0879 0.35107,-0.18615 0.7176,-0.34995 1.01074,-0.615225 0.5724,-0.51795 0.84842,-1.291313 1.04004,-2.006835 0.018,-0.0675 -0.0909,-0.140475 -0.0735,-0.20505 0.0974,-0.239925 0.21226,-0.470475 0.32228,-0.703125 0.26865,-0.036 0.54772,-0.0052 0.80566,-0.117225 0.0959,-0.04125 0.29978,-0.04425 0.27833,-0.146475 -0.0472,-0.223425 -0.15668,-0.429525 -0.23438,-0.64455 0.14295,-0.02925 0.29258,-0.0405 0.4248,-0.102525 0.33826,-0.15825 1.38717,-1.92441 1.11328,-2.03613 -0.0502,-0.02025 -0.1668,0.1149 -0.14647,0.0735 0.12322,-0.304725 0.31492,-0.573825 0.46875,-0.864263 -0.0352,0.024 -0.15555,0.0645 -0.13185,0.02925 0.0682,-0.101175 0.14662,-0.190875 0.23437,-0.278325 l 0.249,-0.1758 c 1.49752,-1.120147 1.81853,-1.525222 2.57813,-2.75391 0.17467,-0.57375 1.98637,-2.289675 0.35152,-1.435545 0.30885,-0.1632 0.63143,-0.29085 0.92286,-0.483375 0.1557,-0.102825 0.29017,-0.252675 0.41017,-0.395475 0.0697,-0.08302 1.49804,-2.007397 0.95215,-1.962885 -0.14858,0.09323 -0.28643,0.207225 -0.43943,0.29295 -0.036,0.02025 0.054,-0.0645 0.0879,-0.0879 0.41985,-0.289875 0.87221,-0.532425 1.25977,-0.864255 0.79634,-0.68175 1.27184,-2.041777 1.96289,-2.8125 0.44078,-0.491625 0.73808,-0.902662 0.9375,-1.24512 0.42623,-0.0083 0.90056,-0.2124 1.25977,-0.908197 0.006,-0.012 0.008,-0.01725 0.015,-0.02925 0.0225,-0.02325 0.0502,-0.03075 0.0735,-0.0585 0.018,-0.02175 0.018,-0.04125 0.0443,-0.0735 0.01,-0.0017 0.0195,0.0016 0.0292,0 0.57173,-0.09833 0.49492,-0.190875 0.1758,-0.278325 0.008,-0.0135 0.0472,-0.0585 0.0442,-0.0585 0.40305,-0.181275 0.64597,-0.459525 0.82031,-0.79101 2.38084,4.04922 7.62039,10.08108 15.04394,16.93359 65.00454,59.992469 162.99846,177.992969 183.99846,222.992969 20,43 22.99805,65.99317 22.99805,162.99317 v 112.00195 l -26.99708,-7.00195 c -15.99999,-5.00001 -54.99316,-6.99122 -87.99316,-5.99122 -67,1.99996 -147.00977,1.99996 -215.00976,0 -25.00001,-1 -59.992193,1.99121 -76.992191,5.99122 z m 224.00391,-48.99902 c 2.99959,0 5.49414,-3.00879 8.99413,-9.00879 4.00001,-8 16.00489,-13.98926 25.00489,-13.98926 59,0 81.99512,-69.01074 34.99511,-106.01074 l -26.99706,-20.99121 25.00488,-13.00781 C 352.00648,311.47385 360,299.48235 360,266.48235 c 0,-17 -9.00195,-32.99707 -22.00196,-41.99707 -27.99999,-20 -44.0039,-21.00683 -29.0039,-2.00684 7,8.00001 11.00879,31.99805 9.00879,52.99805 -2,31 -9.00293,41.00195 -33.00293,52.00195 -28,14.00001 -29.00195,14.00196 -7.00196,22.00196 25.00001,9 40.99903,44.00098 33.99903,71.00098 -6,24.99999 -36.99512,46.0039 -64.99512,44.0039 -22,-1 -22.00195,-4.00879 -22.00195,-129.00879 V 208.47454 h -25.00488 -24.99024 l 2.98828,116.00097 c 2.00001,78 -0.99414,120.00489 -8.99414,130.00489 -9,12 -6.00586,14.0039 23.99414,14.0039 20.00001,0 42.01368,5.98926 49.01367,13.98926 5.5,6 8.99708,9.00879 11.99708,9.00879 z M 494.19433,263.25969 c -0.0472,-0.005 -0.096,-0.015 -0.14647,-0.015 0.048,-0.0217 0.0814,-0.0188 0.13185,-0.0442 0.004,0.0195 0.0105,0.039 0.015,0.0585 z m 4.33594,-0.41017 c 0.002,-0.18 -10e-4,-0.33773 0,-0.5127 h 0.015 c -0.003,0.17752 -0.012,0.32572 -0.015,0.5127 z M 24.228516,228.33782 c -0.13491,-0.12398 -0.282998,-0.2343 -0.41016,-0.36623 -0.07965,-0.0826 0.244252,0.0653 0.30762,0.1611 0.04215,0.0637 0.06915,0.1359 0.10254,0.20505 z M 452.49023,195.55461 c -0.0105,-0.003 -0.0188,-0.012 -0.0292,-0.015 -0.12832,-0.15787 -0.3966,-0.51045 -0.49807,-0.62985 0.0435,0.039 0.0884,0.0775 0.13185,0.11723 0.13065,0.17655 0.26475,0.35085 0.39547,0.52732 z m 46.50879,-21.26952 c -0.138,-0.2115 -0.15202,-0.24428 -0.30765,-0.48338 0.14445,-0.0293 0.19313,-0.14572 0.30765,-0.20505 -10e-6,0.26948 2e-5,0.41985 0,0.6885 z m -86.32324,-5.88867 c -0.045,-0.048 -0.087,-0.0985 -0.13185,-0.14648 0.0158,-0.0105 0.0285,-0.0188 0.0443,-0.0293 0.0457,0.0473 0.099,0.0868 0.14648,0.13185 -0.0203,0.0165 -0.0383,0.0277 -0.0585,0.0443 z m -4.73145,-18.55958 c -0.024,-0.0247 -0.0487,-0.0487 -0.0735,-0.0735 l 0.015,-0.015 c 0.0172,0.0255 0.0442,0.066 0.0585,0.0879 z m -3.33984,-3.32519 c -0.12757,-0.12143 -0.2568,-0.2412 -0.38085,-0.36623 0.012,-0.0292 0.0548,-0.0188 0.0585,-0.0585 0.002,-0.0247 -0.015,-0.048 -0.015,-0.0735 0.1059,0.15683 0.3042,0.45038 0.3369,0.49808 z m -273.45703,-6.6211 c 0.13725,-0.14002 0.17887,-0.1671 0.43942,-0.39547 -0.0337,0.045 -0.033,0.1044 -0.0735,0.14647 -0.10095,0.10613 -0.46875,0.35363 -0.36622,0.249 z m 0.32227,-1.75781 c -0.0397,-0.007 -0.0778,-0.021 -0.11722,-0.0293 l 0.015,-0.015 c 0.0427,0.024 0.1389,0.051 0.10252,0.0443 z M 22.456054,125.872 c -0.213195,-0.29827 -0.372375,-0.51862 -0.483397,-0.6738 0.08936,0.083 0.147705,0.21128 0.26367,0.249 0.06795,0.0218 0.01298,-0.3294 0.02933,-0.43942 0.03037,0.12712 0.02423,0.14985 0.05858,0.29295 0.04552,0.1893 0.08565,0.38167 0.131835,0.57127 z m 333.295896,-4.21875 -0.015,-0.015 0.015,-0.015 0.015,0.015 z m 0.0585,-10.18066 c -0.11174,-0.13605 -0.20197,-0.24735 -0.3369,-0.41018 0.0195,-6.7e-4 0.039,7e-5 0.0585,0 0.039,-1.2e-4 0.078,1.5e-4 0.11722,0 0.08,0.16478 0.11835,0.2388 0.1611,0.32228 0,0.0292 2e-5,0.0585 0,0.0879 z m -6.63573,-2.73926 c 0.007,-0.0465 0.008,-0.075 0.015,-0.11722 0.009,0.0427 0.002,0.0757 0.015,0.11722 -0.005,1.7e-4 -0.024,-2.7e-4 -0.0292,0 z m -194.5752,-2.18262 c -0.039,-0.005 -0.0782,-0.01 -0.11723,-0.015 0.01,-0.0142 0.0195,-0.0292 0.0292,-0.0442 0.0345,0.0172 0.0517,0.0412 0.0879,0.0585 z M 497.57803,95.842706 c -0.006,-0.02775 -0.009,-0.05925 -0.015,-0.0879 v -0.015 c -0.005,-0.024 -0.009,-0.04725 -0.015,-0.0735 0.007,4.2e-4 0.021,-6.38e-4 0.0292,0 0.0172,0.0013 0.0405,0.01275 0.0585,0.015 -0.0173,0.05475 -0.0383,0.1083 -0.0585,0.1611 z m -151.80175,-2.34375 c -0.018,0.033 -0.0315,-0.2067 -0.0442,-0.395475 0.0263,0.0097 0.0315,0.01875 0.0585,0.02925 0.0105,0.114225 0.0113,0.258075 -0.015,0.366225 z m -216.38672,-0.04425 c -0.039,-0.009 -0.0778,-0.02025 -0.11723,-0.02925 0.0105,-0.0135 0.0187,-0.03 0.0292,-0.04425 0.0292,0.024 0.0585,0.0495 0.0879,0.0735 z m 230.5079,-5.756535 c -0.069,-0.01275 -0.21128,-0.03825 -0.29295,-0.0585 -0.005,-0.009 0.005,-0.02025 0,-0.02925 0.0195,-0.0058 0.0397,-0.0033 0.0585,-0.015 0.0577,0.0074 0.13432,0.02175 0.19042,0.02925 0.0127,0.021 0.0308,0.05175 0.0442,0.0735 z M 197.91504,72.288011 c 0.012,-0.0435 0.0323,-0.08145 0.0443,-0.11715 0.015,0.0083 0.0285,0.021 0.0442,0.02925 z m 155.09765,-4.658198 c -0.0783,-0.08775 -0.15577,-0.1761 -0.23437,-0.2637 0.0532,0.0083 0.0927,0.01875 0.14647,0.02925 0.0368,0.07552 0.0503,0.159225 0.0879,0.234375 z m -150.20507,-0.13185 c 0.003,-0.02475 0.0113,-0.04875 0.015,-0.0735 0.005,0.015 0.01,0.02925 0.015,0.04425 -0.0105,0.0098 -0.0195,0.0195 -0.0292,0.02925 z m -19.24805,-0.46875 c 0.15637,-0.10395 0.32092,-0.19725 0.48337,-0.29295 -0.0135,0.039 -0.0172,0.08108 -0.0292,0.117225 -0.14812,0.04425 -0.2955,0.075 -0.45412,0.1758 z m 19.84863,-0.117225 c 0.048,-0.0615 0.0933,-0.09375 0.1758,-0.249 0.0247,-0.04725 0.0367,-0.09862 0.0585,-0.146475 0.0735,-0.05325 0.17513,-0.117375 0.23438,-0.1611 0.008,0.009 0.0503,-0.0012 0.0585,0.015 -0.006,0.009 -0.009,0.021 -0.015,0.02925 -0.17513,0.17175 -0.33645,0.33975 -0.5127,0.5127 z m 0.32228,-0.571275 c 0.0157,-0.03825 0.0285,-0.07867 0.0443,-0.117225 0.0105,0.02175 0.0367,0.10485 0.0443,0.117225 -0.0285,0.0036 -0.0585,6.38e-4 -0.0879,0 z m 153.86719,-0.6885 c -0.1566,-0.126675 -0.29865,-0.2376 -0.45412,-0.366225 0.0943,-0.033 0.13237,-0.133125 0.20505,-0.190425 0.083,0.165675 0.1632,0.385275 0.249,0.55665 z M 176.3672,56.101428 c -0.21532,-0.113175 -0.41857,-0.2469 -0.62985,-0.366225 0.0195,-0.01125 0.027,-0.03075 0.0443,-0.04425 0.0785,0.0435 0.0855,0.06075 0.58598,0.410175 z m 175.32715,-0.83496 c -0.0442,-0.0042 -0.0877,-0.01125 -0.13185,-0.015 0.009,-0.0074 0.002,-0.02175 0.015,-0.02925 0.0398,0.01275 0.0775,0.0315 0.11722,0.04425 z M 199.55566,52.776296 c 0.0345,-0.155175 0.0293,-0.119925 0.0585,-0.249 -0.002,0.03375 0.005,0.06825 0,0.102525 -0.008,0.05775 -0.0465,0.09225 -0.0585,0.146475 z M 75.014647,49.846608 c -0.108555,-0.02925 -0.21354,-0.0735 -0.322267,-0.102525 0.434498,-0.0135 0.753567,0.01125 1.127929,0 -0.26325,0.039 -0.527549,0.06525 -0.791017,0.102525 z M 344.0332,48.455006 c -0.18877,-0.066 -0.3807,-0.13335 -0.61522,-0.20505 0.0713,0.036 -0.33075,-0.1584 -0.27833,-0.13185 0.2139,0.05775 0.43013,0.1056 0.64455,0.1611 0.0834,0.05775 0.16575,0.117525 0.249,0.1758 z m -41.63086,-1.289063 c -0.16575,-0.08843 -0.33218,-0.175425 -0.49808,-0.2637 -0.0623,-0.07507 -0.12195,-0.141225 -0.19042,-0.21975 0.0877,0.054 0.17587,0.107325 0.2637,0.1611 0.1401,0.1083 0.28395,0.214875 0.4248,0.322275 z m -71.30859,-1.93359 c -0.015,-0.254475 -0.0917,-0.4317 -0.1611,-0.615225 0.0157,-0.04275 0.0743,-0.0585 0.0879,-0.102525 0.036,0.1656 0.0713,0.3303 0.10252,0.498075 0.006,0.03375 -0.0315,0.1143 0,0.102525 0.1362,-0.05025 0.2208,-0.1911 0.3369,-0.278325 0.10043,-0.07545 0.0959,-0.156525 0.1758,-0.234375 -0.0956,0.129825 -0.0593,0.198525 -0.2637,0.38085 z m -89.92676,-0.498075 c -0.007,-0.01425 -0.0217,-0.01575 -0.0292,-0.02925 0.0105,-0.0013 0.0187,-0.0135 0.0292,-0.015 8.2e-4,0.015 -0.001,0.02925 0,0.04425 z m -38.96484,-1.596675 c 0.0857,-0.0031 0.19455,0.0105 0.20505,-0.0585 v -0.015 h 0.015 c 0.13177,-0.0034 0.26377,0.0037 0.39547,0 -0.20475,0.02775 -0.41047,0.04575 -0.61522,0.0735 z m 57.99316,-2.768557 c -0.0323,-0.04575 -0.069,-0.1167 -0.10252,-0.1611 2.1e-4,-0.09757 -3.2e-4,-0.195375 0,-0.29295 0.0127,0.048 0.0165,0.09825 0.0292,0.146475 0.039,0.09743 0.045,0.2067 0.0735,0.30765 z m 42.15821,-0.849608 c 0.25927,-0.338925 0.53377,-0.72525 0.89355,-1.186522 -0.12083,0.22755 -0.2559,0.4479 -0.38085,0.6738 -0.0804,0.07913 -0.28913,0.288225 -0.30765,0.30765 -0.0585,0.0615 -0.14055,0.139875 -0.20505,0.20505 z m -41.11817,-5.36133 c -0.009,-0.015 -0.021,-0.0285 -0.0293,-0.04425 0.0308,-0.0555 0.004,-0.12645 0,-0.190425 0.0397,0.078 0.0777,0.156375 0.11723,0.234375 -0.0292,0.0012 -0.0585,-0.0012 -0.0879,0 z m 42.77344,-3.369142 c -0.13125,-0.018 -0.25373,-0.0195 -0.38085,-0.015 -0.007,-0.07275 -0.015,-0.14595 -0.015,-0.21975 0.008,-0.04425 0.0217,-0.08745 0.0292,-0.13185 0.0517,0.08782 0.0811,0.18075 0.1611,0.2637 0.0615,0.06375 0.14205,0.054 0.20505,0.102525 z m 16.97754,-4.204103 c 0.002,-0.08782 -0.002,-0.1758 0,-0.2637 0.021,0.02025 0.005,0.08715 0.0292,0.102525 h 0.015 c -0.0135,0.054 -0.0307,0.107025 -0.0442,0.1611 z m 24.25781,-3.779295 c 0.076,-0.015 0.13635,-0.08108 0.20505,-0.117225 -0.0105,-5.92e-4 -9e-5,0.02775 -0.015,0.02925 -0.0675,0.02625 -0.25995,0.101625 -0.19042,0.0879 z m 0.2637,-0.117225 c -0.0172,-0.0032 -0.0112,-0.01125 -0.0292,-0.015 0.15315,-0.08543 0.30615,-0.1674 0.46875,-0.249 -0.0427,0.051 -0.0923,0.0981 -0.14647,0.13185 -0.0923,0.057 -0.14858,0.07755 -0.29295,0.13185 z m -24.47754,-0.015 c 0.007,-0.449175 4.2e-4,-0.898492 0.015,-1.347652 0.051,0.0495 0.0928,0.09427 0.14648,0.13185 -0.0375,0.21855 -0.0443,0.441525 -0.0879,0.659175 -0.108,0.760867 -0.0608,0.47985 -0.0735,0.55665 z m 266.51367,-0.117225 c -0.0806,-0.264675 -0.16785,-0.5265 -0.249,-0.791017 0.0867,0.203175 0.16178,0.412275 0.249,0.615225 -0.004,0.0585 0.003,0.1173 0,0.175792 z m -241.34765,-0.13185 c 0.005,-0.039 0.008,-0.0753 -0.015,-0.117225 0.0352,-0.02025 0.0675,-0.039 0.10252,-0.0585 -0.0255,0.0705 -0.039,0.09735 -0.0585,0.1611 l -0.015,0.015 z m -79.59961,-1.787107 c 0.36465,-0.045 0.68963,-0.08407 0.9668,-0.117225 -8.2e-4,0.0285 8.2e-4,0.04575 0,0.0735 -0.32235,0.0135 -0.6444,0.033 -0.9668,0.04425 z m 189.53613,-1.97754 c -0.0848,-0.12075 -0.16515,-0.244725 -0.249,-0.366225 0.048,0.0255 0.0984,0.04725 0.14648,0.0735 v 0.015 c 0.0352,0.09225 0.066,0.18645 0.10252,0.278325 z M 230.52249,16.462353 c 0.0203,-0.09007 0.0383,-0.17385 0.0585,-0.2637 0.0225,0.0045 0.0487,-0.0026 0.0735,0 -0.045,0.081 -0.0862,0.1734 -0.13185,0.2637 z M 106.21585,14.455518 c 1.7e-4,-0.0315 -0.009,-0.05925 -0.015,-0.0879 0.1281,1.95e-4 0.85603,-3.45e-4 0.98145,0 -0.32235,0.02475 -0.64545,0.05925 -0.9668,0.0879 z m 180.0293,-2.519527 c -0.0405,-0.0195 -0.19073,-0.08152 -0.23438,-0.102525 0.30248,0.036 0.60585,0.0645 0.9082,0.102525 -0.22447,0.0043 -0.44917,-9.15e-4 -0.6738,0 z M 84.58011,4.1283708 c 1.11741,-0.086175 2.23731,-0.146025 3.354488,-0.234375 -0.3198,0.02475 -1.718873,0.17835 -1.918943,0.190425 -0.43935,0.012 -0.877927,0.03525 -1.318357,0.04425 -0.039,7.875e-4 -0.07815,-7.725e-4 -0.117225,0 z M 227.31448,0.70063829 c 0.13718,-0.03225 0.27293,-0.0705 0.41018,-0.102525 -0.004,0.02475 -0.0105,0.04875 -0.015,0.0735 -0.13192,0.0105 -0.26355,0.01875 -0.39548,0.02925 z M 418.97464,-1.2622542 c -0.0293,-0.0906 -0.0593,-0.176025 -0.0879,-0.2637 h 0.14647 c -0.0292,0.092325 -0.0255,0.1698 -0.0585,0.2637 z"
       inkscape:connector-curvature="0" />
  </g>
</svg>
