<?xml version="1.0" standalone="no"?>
<!DOCTYPE svg PUBLIC "-//W3C//DTD SVG 20010904//EN"
 "http://www.w3.org/TR/2001/REC-SVG-20010904/DTD/svg10.dtd">
<svg version="1.0" xmlns="http://www.w3.org/2000/svg"
 width="223.000000pt" height="226.000000pt" viewBox="0 0 223.000000 226.000000"
 preserveAspectRatio="xMidYMid meet">

<g transform="translate(0.000000,226.000000) scale(0.100000,-0.100000)"
fill="#ffffff" stroke="none">
<path d="M1115 2224 c-38 -8 -110 -35 -160 -58 -203 -96 -354 -268 -453 -514
-38 -94 -86 -276 -97 -366 l-8 -59 39 7 c148 26 316 117 582 315 81 60 183
131 228 159 200 124 418 210 556 220 43 2 78 8 78 11 0 11 -115 99 -190 146
-88 54 -200 98 -313 125 -121 28 -183 31 -262 14z"/>
<path d="M825 2201 c-252 -76 -472 -232 -607 -431 -33 -48 -39 -67 -49 -150
-23 -192 13 -319 103 -366 57 -30 61 -24 86 106 75 397 246 676 512 833 52 31
40 33 -45 8z"/>
<path d="M1725 1855 c-82 -18 -181 -56 -300 -116 -124 -63 -205 -115 -370
-239 -269 -201 -461 -303 -615 -326 -25 -4 -48 -12 -52 -18 -4 -6 -8 -61 -8
-123 l0 -112 33 -6 c146 -24 647 -33 862 -15 357 31 678 97 883 182 l72 30 0
46 c0 144 -51 338 -126 481 -67 129 -135 217 -174 225 -50 9 -138 6 -205 -9z"/>
<path d="M68 1465 c-15 -49 -32 -119 -39 -155 -12 -72 -16 -281 -5 -298 11
-19 279 -92 291 -80 2 2 5 57 6 122 l3 119 -48 14 c-98 29 -159 129 -174 286
l-7 82 -27 -90z"/>
<path d="M2161 1019 c-171 -76 -476 -139 -835 -174 -243 -23 -745 -17 -913 11
-37 6 -37 19 -7 -143 l16 -93 42 -10 c162 -40 317 -107 493 -214 286 -173 546
-216 809 -135 59 18 78 31 141 92 175 169 275 378 316 660 5 32 -2 33 -62 6z"/>
<path d="M41 889 c17 -79 51 -172 91 -253 l39 -78 27 25 c34 33 72 47 124 47
37 0 40 2 34 23 -3 12 -11 56 -17 97 -6 41 -12 84 -15 95 -3 18 -22 25 -126
49 -68 15 -133 30 -145 33 -20 5 -21 3 -12 -38z"/>
<path d="M258 554 c-53 -28 -54 -48 -5 -112 79 -101 207 -212 322 -278 l50
-28 -44 52 c-63 76 -136 203 -173 299 l-31 83 -46 0 c-25 -1 -58 -7 -73 -16z"/>
<path d="M450 544 c0 -22 70 -162 115 -229 60 -90 198 -229 250 -251 55 -23
201 -44 305 -44 165 0 335 38 478 107 86 42 96 53 39 42 -114 -22 -295 -2
-447 49 -100 34 -174 70 -302 148 -113 69 -192 106 -322 150 -102 35 -116 38
-116 28z"/>
</g>
</svg>
