<?xml version="1.0" standalone="no"?>
<!DOCTYPE svg PUBLIC "-//W3C//DTD SVG 20010904//EN"
 "http://www.w3.org/TR/2001/REC-SVG-20010904/DTD/svg10.dtd">
<svg version="1.0" xmlns="http://www.w3.org/2000/svg"
 width="1059.000000pt" height="456.000000pt" viewBox="0 0 1059.000000 456.000000"
 preserveAspectRatio="xMidYMid meet">

<g transform="translate(0.000000,456.000000) scale(0.100000,-0.100000)"
fill="#06449b" stroke="none">
<path d="M9816 4478 c-57 -71 -103 -154 -93 -165 10 -9 37 5 44 24 4 10 14 25
23 33 9 8 19 23 23 33 3 9 11 17 17 17 6 0 10 -61 10 -175 l0 -175 -130 0
-130 0 0 25 c0 20 5 25 25 25 14 0 25 5 25 10 0 6 -11 10 -24 10 -19 0 -26 6
-29 28 l-4 27 -2 -27 c-1 -23 -6 -28 -26 -28 -31 0 -33 -17 -2 -22 14 -2 22
-10 22 -23 0 -19 -8 -20 -152 -23 l-153 -3 0 111 0 110 -3645 0 -3645 0 0
-110 0 -110 -689 0 -688 0 -8 -190 -7 -190 -84 0 c-68 0 -84 -3 -84 -15 0 -12
16 -15 84 -15 l84 0 8 -67 c4 -44 3 -73 -5 -85 -15 -24 -14 -38 4 -38 11 0 15
19 17 93 l3 92 63 3 c49 2 64 0 68 -13 10 -25 24 -17 24 15 l0 29 -77 3 -78 3
-3 178 -2 177 685 0 685 0 0 -88 0 -89 -127 -6 c-165 -9 -757 -9 -856 -1 l-77
7 0 38 c0 43 -5 46 -46 24 -16 -8 -37 -15 -47 -15 -11 0 -21 -9 -24 -20 -3
-11 -11 -20 -18 -20 -7 0 -18 -7 -25 -15 -10 -13 -9 -15 10 -15 13 0 24 -8 27
-20 3 -11 13 -20 23 -20 10 0 31 -7 46 -15 42 -22 52 -19 56 18 l3 32 525 0
525 0 3 -82 3 -83 -181 0 c-153 0 -180 2 -180 15 0 8 -6 15 -13 15 -7 0 -35
23 -62 50 l-49 50 -168 0 -168 0 0 -145 0 -145 165 0 166 0 29 30 c17 17 30
34 30 37 0 4 10 17 22 30 20 21 22 21 34 5 12 -15 13 -14 14 11 l0 27 180 0
180 0 0 -95 0 -95 -85 0 c-50 0 -85 -4 -85 -10 0 -6 35 -10 85 -10 l85 0 0
-90 0 -90 -79 0 c-44 0 -83 -4 -86 -10 -4 -6 25 -10 79 -10 l86 0 0 -95 0 -95
-85 0 c-50 0 -85 -4 -85 -10 0 -6 35 -10 85 -10 l85 0 0 -88 0 -89 -137 -6
c-169 -9 -371 -9 -401 -1 -13 4 -22 14 -22 26 0 15 -5 18 -16 14 -18 -7 -54
19 -54 39 0 6 -15 25 -33 43 l-33 32 -402 0 -401 0 -3 -102 -3 -103 -113 -3
-113 -3 3 -132 3 -132 215 -3 215 -2 50 50 c52 53 65 60 65 35 0 -8 5 -15 10
-15 6 0 10 11 10 25 l0 25 580 0 580 0 0 -95 0 -95 -280 0 c-242 0 -280 2
-280 15 0 8 -6 15 -13 15 -7 0 -37 25 -67 55 l-55 55 -215 -2 -215 -3 -3 -132
-3 -133 224 0 223 0 44 45 c25 25 50 43 57 41 7 -3 17 2 22 11 12 22 131 28
376 18 l185 -7 0 -89 0 -89 -580 0 -580 0 0 21 c0 15 -5 19 -15 15 -10 -3 -32
12 -62 44 l-47 50 -178 0 -178 0 0 -135 0 -135 173 0 173 0 50 50 c33 34 55
48 67 44 11 -3 17 0 17 10 0 14 60 16 580 16 l580 0 0 -95 0 -95 -180 0 -180
0 0 27 c0 20 -3 24 -11 16 -9 -9 -18 -5 -35 12 -13 13 -24 27 -24 31 0 5 -12
21 -27 36 l-27 28 -288 0 -289 0 3 -142 3 -143 280 -3 279 -2 56 55 c44 43 58
53 68 43 9 -9 12 -8 12 5 0 15 17 17 180 17 l181 0 -3 -82 -3 -83 -83 -3
c-106 -4 -99 -22 9 -22 l79 0 0 -90 0 -90 -180 0 c-153 0 -180 2 -180 15 0 8
-6 15 -13 15 -7 0 -35 23 -62 50 l-49 50 -218 0 -218 0 0 -135 0 -135 216 0
216 0 50 49 c29 28 56 47 64 44 8 -3 14 1 14 11 0 14 21 16 180 16 l181 0 -3
-92 -3 -93 -83 -3 c-106 -4 -99 -22 9 -22 l79 0 0 -90 0 -90 -85 0 c-50 0 -85
-4 -85 -10 0 -6 35 -10 85 -10 l85 0 0 -85 0 -85 -180 0 c-153 0 -180 2 -180
15 0 8 -6 15 -13 15 -7 0 -35 23 -62 50 l-49 50 -108 0 -108 0 0 -135 0 -135
105 0 106 0 50 51 c48 47 52 49 65 32 12 -17 13 -16 14 10 l0 27 180 0 181 0
-3 -92 -3 -93 -374 -3 -373 -2 -23 22 c-12 13 -45 44 -73 71 l-51 47 -95 0
-96 0 0 -136 0 -136 110 4 110 3 0 -107 0 -108 191 0 192 0 49 50 c30 31 54
47 63 44 9 -4 15 0 15 10 0 14 21 16 180 16 l181 0 -3 -92 -3 -93 -83 -3
c-106 -4 -99 -22 9 -22 l79 0 0 -80 0 -80 -79 0 c-108 0 -115 -18 -9 -22 l83
-3 3 -102 3 -103 3644 0 3645 0 0 105 0 105 288 -2 287 -3 3 -23 c2 -15 9 -22
17 -18 7 2 31 -13 52 -35 l38 -39 223 0 223 0 -3 133 -3 132 -217 3 -217 2
-72 -70 -71 -70 -123 0 c-67 0 -190 3 -273 7 l-152 6 0 79 0 78 100 0 c60 0
100 4 100 10 0 6 -40 10 -100 10 l-100 0 0 95 0 95 100 0 c60 0 100 4 100 10
0 6 -40 10 -100 10 l-101 0 3 93 3 92 100 6 100 5 -102 2 -103 2 0 95 0 95
100 0 c60 0 100 4 100 10 0 6 -40 10 -100 10 l-100 0 0 85 0 85 100 0 c60 0
100 4 100 10 0 6 -40 10 -100 10 l-100 0 0 88 0 89 158 6 c310 13 422 8 422
-19 0 -8 6 -14 13 -14 7 0 31 -18 52 -40 l39 -40 213 0 213 0 0 135 0 134 -77
3 -78 3 -3 98 -3 97 -232 0 -233 0 -64 -65 -64 -65 -178 0 -178 0 0 90 0 90
100 0 c60 0 100 4 100 10 0 6 -40 10 -100 10 l-100 0 0 85 0 85 100 0 c60 0
100 4 100 10 0 6 -40 10 -100 10 l-100 0 0 95 0 95 100 0 c60 0 100 4 100 10
0 6 -40 10 -100 10 l-100 0 0 90 0 90 100 0 c60 0 100 4 100 10 0 6 -40 10
-100 10 l-100 0 0 95 0 95 100 0 c60 0 100 4 100 10 0 6 -40 10 -100 10 l-100
0 0 85 0 85 100 0 c60 0 100 4 100 10 0 6 -40 10 -100 10 l-100 0 0 90 0 90
100 0 c60 0 100 4 100 10 0 6 -40 10 -100 10 l-100 0 0 95 0 95 100 0 c60 0
100 4 100 10 0 6 -40 10 -100 10 l-100 0 0 90 0 90 100 0 c60 0 100 4 100 10
0 6 -40 10 -100 10 l-100 0 0 95 0 95 100 0 c60 0 100 4 100 10 0 6 -40 10
-100 10 l-100 0 0 85 0 85 100 0 c60 0 100 4 100 10 0 6 -40 10 -100 10 l-100
0 0 90 0 90 298 2 297 3 5 180 c3 99 7 174 8 167 3 -21 64 -92 79 -92 18 0 15
19 -8 55 -10 17 -22 37 -26 45 -3 8 -15 22 -25 31 -18 16 -17 17 4 24 22 8 22
8 -4 12 -16 2 -28 11 -28 19 0 23 -16 16 -44 -18z m-4868 -305 l3 -83 -36 0
c-29 0 -35 4 -35 21 0 12 -10 30 -22 40 -20 18 -60 19 -1056 19 l-1036 0 -23
-22 c-13 -12 -23 -30 -23 -40 0 -14 -8 -18 -39 -18 -33 0 -40 4 -43 23 l-3 22
-273 3 -273 2 3 -77 3 -78 270 0 270 0 3 33 c3 30 6 32 43 32 30 0 39 -4 39
-17 0 -9 10 -27 22 -40 l21 -23 -21 -23 c-12 -13 -22 -33 -22 -45 0 -19 -6
-22 -39 -22 -37 0 -40 2 -43 33 l-3 32 -258 3 c-214 2 -261 0 -273 -12 -9 -10
-14 -37 -14 -85 l0 -71 275 0 275 0 0 35 c0 34 1 35 40 35 34 0 40 -3 40 -22
0 -12 10 -32 22 -45 l21 -23 1036 0 1035 0 23 22 c13 12 23 32 23 45 0 21 4
24 33 21 l32 -3 0 -75 0 -75 -1152 -3 -1153 -2 0 25 0 25 -267 -1 c-148 -1
-252 -4 -233 -8 27 -5 36 -11 39 -31 l4 -25 6 25 c5 19 14 26 39 28 28 3 32 0
32 -20 0 -13 -5 -29 -12 -36 -9 -9 -9 -15 0 -24 9 -9 12 -7 12 10 0 12 5 22
10 22 6 0 10 12 10 26 0 14 4 23 10 19 6 -3 10 -31 10 -61 l0 -54 33 1 c29 1
30 2 7 8 -36 10 -39 41 -4 41 25 0 26 2 21 35 l-6 35 135 0 134 0 0 -70 0 -70
-255 0 -255 0 0 65 c0 37 -4 65 -10 65 -16 0 -12 -119 4 -136 12 -12 59 -14
273 -12 l258 3 3 43 3 42 1152 -2 1152 -3 0 -80 0 -80 -1152 -3 -1152 -2 -3
22 -3 23 -272 3 -273 2 0 -73 c0 -43 5 -78 12 -85 9 -9 79 -11 267 -10 l256 3
-244 2 c-160 2 -249 7 -258 14 -8 7 -13 34 -13 70 l0 59 35 0 35 0 2 -62 c1
-37 3 -48 5 -28 7 61 10 63 43 30 16 -17 30 -35 30 -40 0 -6 5 -10 10 -10 6 0
10 25 10 55 0 76 20 69 21 -7 1 -35 4 -51 6 -35 5 30 15 34 36 13 13 -13 15
-12 15 10 0 19 -6 24 -25 24 -18 0 -24 5 -21 17 5 25 38 31 181 32 l127 1 0
-65 c0 -37 4 -65 10 -65 6 0 10 14 10 30 l0 30 1155 0 1156 0 -3 -82 -3 -83
-587 -3 -588 -2 0 31 c0 17 -6 36 -13 42 -39 36 -49 37 -514 37 l-457 0 -33
-32 c-19 -18 -33 -42 -33 -55 0 -20 -5 -23 -40 -23 -36 0 -40 3 -40 25 l0 25
-275 0 -275 0 0 -75 0 -75 273 2 272 3 3 33 c3 30 6 32 43 32 l39 0 0 -85 0
-85 -39 0 c-37 0 -40 2 -43 33 l-3 32 -250 3 c-179 2 -256 -1 -272 -9 -21 -11
-23 -20 -23 -86 l0 -73 275 0 275 0 0 30 c0 28 2 30 40 30 l40 0 0 -85 0 -85
-39 0 c-37 0 -40 2 -43 33 l-3 32 -258 3 c-297 3 -287 6 -287 -83 0 -89 -10
-86 287 -83 l258 3 3 33 c3 30 6 32 40 32 34 0 39 -4 57 -43 l20 -42 493 -3
c541 -2 522 -5 522 57 l0 31 588 -2 587 -3 0 -75 0 -75 -1150 0 -1150 0 -3 23
-3 22 -275 0 -274 0 0 -73 c0 -66 2 -75 23 -86 16 -8 93 -11 272 -9 l250 3 3
43 3 42 1152 -2 1152 -3 0 -80 0 -80 -32 -3 c-31 -3 -33 -1 -33 27 0 20 -8 36
-26 50 -26 21 -36 21 -492 21 l-466 0 -33 -32 c-18 -18 -33 -40 -33 -50 0 -13
-8 -18 -30 -18 -26 0 -30 4 -30 28 0 17 -9 37 -21 48 -20 18 -45 19 -494 22
l-474 3 -30 -30 c-17 -17 -31 -39 -31 -51 0 -17 -6 -20 -39 -20 -33 0 -40 4
-43 23 l-3 22 -272 3 -273 2 0 -75 0 -75 275 0 275 0 0 30 c0 28 2 30 40 30
l40 0 0 -85 0 -85 -40 0 c-36 0 -40 3 -40 25 0 14 -4 25 -10 25 -6 0 -10 -28
-10 -65 l0 -65 -255 0 -255 0 0 59 c0 62 14 86 47 79 14 -2 19 -16 24 -63 3
-33 6 -52 7 -42 1 10 10 17 23 17 11 0 27 6 35 14 16 16 20 61 4 51 -5 -3 -10
-15 -10 -26 0 -14 -7 -19 -25 -19 -18 0 -25 5 -25 20 0 11 8 23 18 26 9 3 27
10 38 16 45 21 59 8 59 -55 0 -54 1 -57 25 -56 14 0 19 3 13 6 -16 6 -18 99
-3 108 6 4 18 4 27 1 12 -5 14 -9 5 -18 -29 -29 -4 -108 30 -95 8 4 7 6 -4 6
-14 1 -18 10 -18 45 0 54 8 58 145 66 71 4 26 7 -155 8 -188 1 -259 -1 -268
-10 -7 -7 -12 -42 -12 -85 l0 -73 273 2 272 3 3 33 c3 30 6 32 43 32 34 0 39
-3 39 -23 0 -13 13 -35 28 -50 l28 -27 471 0 c461 0 471 0 497 21 17 14 26 30
26 50 0 26 3 29 30 29 24 0 30 -4 30 -21 0 -12 14 -34 31 -50 l32 -30 477 3
c528 3 510 1 510 68 0 29 2 31 33 28 l32 -3 3 -82 3 -83 -33 0 c-25 0 -36 6
-43 23 l-10 22 -500 0 -500 0 -10 -22 -10 -23 -602 0 -602 0 -3 33 -3 32 -258
3 c-214 2 -261 0 -273 -12 -16 -17 -20 -136 -4 -136 6 0 10 29 10 66 l0 65 33
-3 c31 -3 32 -4 38 -63 3 -33 6 -52 7 -42 1 11 10 17 27 17 14 0 25 5 25 10 0
6 -11 10 -25 10 -20 0 -25 5 -25 25 0 20 5 25 24 25 14 0 28 5 31 10 3 6 19
10 35 10 l29 0 -2 -60 c-2 -49 0 -60 13 -60 14 0 16 10 12 60 l-4 60 37 0 c31
0 35 -2 26 -14 -8 -10 -9 -16 -1 -21 14 -9 13 -58 -2 -73 -9 -9 -6 -12 15 -12
15 0 27 5 27 10 0 6 -5 10 -11 10 -6 0 -9 19 -7 48 l3 47 103 3 102 3 0 -70 0
-71 -257 -3 -258 -2 268 -3 267 -2 0 30 0 30 595 0 595 0 0 -75 0 -75 -595 0
-595 0 0 25 0 25 -275 0 -275 0 0 -71 c0 -48 5 -75 14 -85 12 -12 59 -14 273
-12 l258 3 3 38 3 37 595 0 594 0 0 -80 0 -80 -29 0 c-26 0 -30 4 -33 32 -2
23 -11 36 -33 49 -27 16 -71 18 -490 18 l-459 1 -33 -32 c-18 -18 -33 -40 -33
-50 0 -14 -8 -18 -39 -18 -33 0 -40 4 -43 22 l-3 23 -270 0 -270 0 -3 -78 -3
-77 273 2 273 3 3 33 c3 30 6 32 43 32 l39 0 0 -85 0 -85 -40 0 c-31 0 -40 4
-40 17 0 9 -7 25 -17 35 -15 16 -36 18 -260 18 -199 0 -247 -3 -259 -14 -9
-10 -14 -37 -14 -85 l0 -71 275 0 275 0 0 30 c0 28 2 30 40 30 31 0 40 -4 40
-17 0 -9 14 -32 32 -50 l32 -33 460 1 c420 0 464 2 491 18 22 13 31 26 33 49
l3 32 590 0 590 0 -3 -82 -3 -83 -587 -3 c-446 -2 -588 1 -588 10 0 6 -7 20
-17 30 -15 17 -44 18 -500 18 -507 0 -499 1 -516 -43 -5 -14 -16 -18 -49 -15
-40 3 -43 5 -46 36 l-3 32 -267 -1 c-147 -1 -251 -4 -232 -8 35 -6 35 -7 41
-66 3 -33 6 -52 7 -42 1 10 10 17 23 17 11 0 27 6 35 14 16 16 20 61 4 51 -6
-3 -10 -15 -10 -26 0 -14 -7 -19 -25 -19 -18 0 -25 5 -25 20 0 11 8 23 18 26
9 3 25 10 34 15 10 5 28 9 42 9 22 0 23 -3 22 -60 -1 -58 0 -60 24 -60 17 0
21 3 12 9 -9 5 -12 24 -10 56 4 58 28 76 28 21 0 -33 3 -36 28 -36 23 1 24 2
10 11 -26 15 -22 39 5 39 13 0 28 5 33 10 7 7 46 10 95 8 l84 -3 3 -67 3 -68
-256 0 -255 0 0 65 c0 37 -4 65 -10 65 -16 0 -12 -119 4 -136 12 -12 59 -14
273 -12 l258 3 3 33 c3 30 6 32 43 32 l39 0 0 -75 0 -75 -39 0 c-33 0 -40 4
-43 23 l-3 22 -258 3 c-214 2 -261 0 -273 -12 -16 -17 -20 -136 -4 -136 6 0
10 29 10 66 l0 65 33 -3 c31 -3 32 -4 38 -63 3 -33 6 -52 7 -42 1 11 10 17 27
17 31 0 33 17 3 22 -15 2 -24 11 -26 26 -3 18 1 22 22 22 14 0 28 5 31 10 3 6
19 10 35 10 l29 0 -2 -60 c-2 -49 0 -60 13 -60 14 0 16 10 12 60 -4 59 -4 60
21 60 14 0 27 -6 30 -12 3 -10 9 -11 26 0 12 7 58 12 116 12 l95 0 0 -70 0
-70 -257 -3 -258 -2 268 -3 267 -2 0 40 0 40 40 0 40 0 0 -85 0 -85 -40 0
c-36 0 -40 3 -40 25 l0 25 -275 0 -275 0 0 -73 c0 -43 5 -78 12 -85 9 -9 81
-12 261 -12 270 0 272 0 279 56 3 26 7 29 38 29 l35 0 3 -82 3 -83 -41 0 c-32
0 -40 4 -40 18 0 40 -15 42 -276 42 -204 0 -254 -3 -263 -14 -7 -9 -11 -41 -9
-83 l3 -68 270 0 270 0 3 33 c3 30 6 32 43 32 l39 0 0 -85 0 -85 -39 0 c-37 0
-40 2 -43 33 l-3 32 -258 3 c-214 2 -261 0 -273 -12 -16 -17 -20 -136 -4 -136
6 0 10 29 10 66 l0 65 33 -3 c32 -3 32 -4 37 -63 3 -41 7 -53 12 -37 4 14 14
22 30 23 23 1 23 1 -2 8 -15 4 -26 15 -28 29 -3 18 2 22 22 22 14 0 26 5 26
10 0 6 16 10 35 10 l34 0 -2 -60 c-2 -49 0 -60 13 -60 14 0 16 10 12 60 -4 58
-4 60 20 60 13 0 29 -5 36 -12 9 -9 15 -9 24 0 8 8 47 12 110 12 l99 0 -3 -67
-3 -68 -255 -5 -255 -6 268 -2 267 -2 0 30 c0 28 2 30 40 30 l40 0 0 -75 0
-75 -40 0 c-36 0 -40 3 -40 25 l0 25 -267 -1 c-148 -1 -252 -4 -233 -8 35 -6
35 -7 41 -66 3 -33 6 -52 7 -42 1 10 10 17 23 17 11 0 27 6 35 14 16 16 20 61
4 51 -6 -3 -10 -15 -10 -26 0 -14 -7 -19 -25 -19 -18 0 -25 5 -25 20 0 11 8
23 18 26 9 3 25 10 36 16 12 6 22 6 29 -1 6 -6 21 -11 34 -11 14 0 23 -6 23
-15 0 -8 5 -15 10 -15 13 0 13 17 -1 26 -17 10 7 28 27 20 13 -5 15 -9 6 -18
-29 -29 -4 -108 30 -95 8 4 7 6 -4 6 -14 1 -18 10 -18 44 0 37 4 44 29 55 19
8 61 12 118 10 l88 -3 3 -67 3 -68 -256 0 -255 0 0 65 c0 37 -4 65 -10 65 -16
0 -12 -119 4 -136 12 -12 59 -14 273 -12 l258 3 3 43 3 42 45 0 c33 0 46 -4
51 -17 16 -42 19 -42 517 -43 432 0 481 2 498 17 10 9 18 22 18 30 0 11 99 13
588 11 l587 -3 3 -82 3 -83 -1471 0 -1470 0 0 2095 0 2095 1468 -2 1467 -3 3
-82z m1300 -2011 l2 -2092 -635 0 -635 0 0 2088 c0 1149 3 2092 7 2095 3 4
288 6 632 5 l626 -3 3 -2093z m2972 3 l0 -2095 -1470 0 -1471 0 3 83 3 82 580
3 579 2 24 -30 23 -30 481 0 c434 0 483 2 500 17 10 9 18 22 18 30 0 11 14 13
58 11 57 -3 57 -3 63 -38 5 -26 7 -16 7 35 1 52 -1 65 -9 52 -7 -12 -23 -17
-54 -17 l-45 0 0 75 0 75 49 0 c43 0 50 -3 54 -22 2 -13 4 9 4 47 0 39 -2 58
-4 43 -4 -26 -8 -28 -54 -28 l-49 0 0 85 0 85 50 0 50 0 0 -35 0 -35 270 0
271 0 -3 83 -3 82 -254 3 c-263 2 -281 0 -281 -39 0 -16 -8 -19 -50 -19 l-50
0 0 86 0 85 48 -3 c44 -3 47 -5 50 -33 2 -16 8 -36 14 -43 15 -17 498 -18 516
0 7 7 12 42 12 85 l0 73 -270 0 -270 0 0 -25 c0 -23 -3 -25 -50 -25 l-50 0 0
85 0 85 49 0 50 0 4 -37 c2 -21 4 -4 4 37 0 41 -1 67 -4 58 -3 -14 -15 -18
-54 -18 l-49 0 0 75 0 75 49 0 c46 0 50 -2 54 -27 2 -16 4 4 5 42 0 42 -3 60
-7 45 -6 -22 -13 -25 -59 -28 -43 -3 -53 0 -59 15 -16 42 -18 42 -518 42 -499
0 -502 0 -518 -42 -6 -16 -41 -17 -589 -15 l-583 3 -3 83 -3 82 36 0 c28 0 35
-4 35 -20 0 -10 13 -33 30 -50 l29 -30 461 0 c519 0 519 0 520 73 0 24 4 27
34 27 32 0 35 -3 38 -32 2 -23 11 -36 33 -49 27 -16 71 -18 490 -18 l459 -1
33 32 c18 18 33 40 33 50 0 15 8 18 50 18 49 0 50 -1 50 -30 l0 -30 270 0 270
0 0 73 c0 43 -5 78 -12 85 -9 9 -80 12 -258 12 -260 0 -270 -2 -270 -47 0 -21
-4 -23 -50 -23 l-50 0 0 85 0 85 50 0 50 0 0 -35 0 -35 270 0 270 0 0 80 0 80
-267 -2 -268 -3 -3 -22 c-3 -20 -9 -23 -53 -23 -39 0 -49 3 -49 17 0 9 -14 32
-32 50 l-32 33 -460 -1 c-420 0 -464 -2 -491 -18 -22 -13 -31 -26 -33 -49 -3
-29 -6 -32 -38 -32 -31 0 -34 3 -34 29 0 21 -8 36 -29 50 -28 21 -40 21 -490
21 l-462 0 -29 -30 c-17 -17 -30 -40 -30 -50 0 -16 -7 -20 -35 -20 l-35 0 0
80 0 80 590 0 c413 0 590 -3 590 -11 0 -6 6 -17 14 -25 12 -12 93 -14 503 -14
l488 0 19 25 c16 21 27 25 72 25 52 0 53 0 57 -32 2 -18 5 -3 5 35 l2 67 80 0
80 0 0 -55 c0 -30 5 -55 10 -55 6 0 10 7 10 15 0 9 10 16 28 16 l27 2 -27 4
c-23 4 -28 9 -28 34 0 24 4 29 24 29 18 0 26 -7 29 -22 4 -20 4 -19 3 2 -2 24
1 25 59 26 60 2 62 1 57 -22 -3 -18 2 -26 22 -34 28 -10 36 -40 11 -40 -8 0
-15 -4 -15 -10 0 -15 16 -12 30 5 7 8 11 34 8 60 l-3 45 57 0 57 0 4 -67 3
-68 2 78 2 77 -270 0 -270 0 0 -25 c0 -23 -3 -25 -50 -25 l-50 0 0 75 0 75 49
0 c46 0 50 -2 54 -27 2 -16 4 6 4 47 0 41 -2 63 -4 48 -4 -26 -8 -28 -54 -28
-40 0 -49 3 -50 18 0 9 -8 31 -18 47 l-18 30 -493 3 c-355 1 -497 -1 -506 -9
-8 -6 -14 -29 -14 -50 l0 -39 -590 0 -591 0 3 83 3 82 584 3 c322 1 587 -2
590 -6 3 -4 17 -16 31 -25 22 -15 69 -17 492 -17 292 0 469 4 473 10 12 20 74
41 111 38 36 -3 39 -6 42 -35 l3 -33 270 0 269 0 0 69 c0 110 24 101 -265 101
-265 0 -268 -1 -277 -45 -2 -16 -12 -21 -51 -23 l-47 -3 0 85 0 86 50 0 c49 0
50 -1 50 -30 l0 -30 270 0 270 0 0 75 0 75 -270 0 -270 0 0 -25 c0 -23 -3 -25
-50 -25 -40 0 -50 3 -50 17 0 9 -14 32 -32 50 l-32 33 -467 0 c-457 0 -467 0
-493 -21 -17 -14 -26 -30 -26 -50 l0 -29 -590 0 -590 0 0 85 0 85 588 0 587 0
10 -22 10 -23 500 0 500 0 10 23 c8 19 17 22 67 22 l58 0 2 -37 c1 -21 4 -6 7
32 l6 70 43 3 c23 2 42 -1 42 -6 0 -5 9 -12 19 -15 16 -4 21 -16 24 -53 l3
-49 2 50 c2 43 6 52 27 62 l25 11 0 -59 0 -59 38 1 c32 1 33 2 12 8 -21 6 -25
14 -28 50 l-3 44 38 -6 c21 -3 32 -3 26 0 -7 2 -13 9 -13 14 0 6 52 8 128 7
l127 -3 3 -67 3 -68 -256 0 c-163 0 -255 -4 -255 -10 0 -15 493 -13 508 2 7 7
12 42 12 85 l0 73 -269 0 -270 0 -3 -22 c-3 -20 -10 -23 -50 -26 l-48 -3 0 81
0 81 47 -3 c41 -3 48 -6 54 -28 4 -15 7 2 7 45 0 43 -3 60 -7 45 -6 -22 -13
-25 -54 -28 l-47 -3 0 85 0 86 50 0 c49 0 50 -1 50 -30 l0 -30 270 0 270 0 0
73 c0 43 -5 78 -12 85 -15 15 -508 17 -508 2 0 -5 18 -10 40 -10 l40 0 0 -60
c0 -59 16 -84 22 -35 l3 25 28 -25 c15 -14 27 -21 27 -16 0 6 -7 14 -17 19
-15 9 -14 12 6 33 14 15 18 26 11 33 -14 14 -12 26 5 26 10 0 15 -15 17 -57 3
-54 5 -58 30 -61 35 -4 68 25 67 58 l-2 25 -4 -25 c-6 -29 -19 -40 -50 -40
-20 0 -23 5 -23 41 l0 42 38 -6 c20 -3 31 -3 25 0 -39 15 2 23 117 23 l130 0
0 -70 0 -70 -257 2 -258 3 -6 70 c-3 39 -6 58 -7 43 -2 -27 -5 -28 -52 -28
l-50 0 0 86 0 85 48 -3 c45 -3 47 -4 50 -35 l3 -33 270 0 269 0 0 75 0 75
-269 0 -270 0 -3 -22 c-3 -20 -10 -23 -56 -26 -53 -3 -71 5 -85 41 -6 16 -39
17 -493 17 -467 0 -486 -1 -491 -19 -10 -41 -25 -42 -623 -39 l-575 3 -3 83
-3 82 1166 0 1165 0 0 -28 c0 -51 5 -52 276 -52 288 0 264 -9 264 101 l0 69
-270 0 -270 0 0 -25 0 -25 -1165 0 -1166 0 3 83 3 82 1160 0 1160 0 6 -35 c4
-24 7 -12 7 40 1 54 -2 69 -8 52 l-9 -22 -1158 2 -1158 3 0 75 0 75 30 0 c23
0 30 -5 35 -25 3 -14 16 -29 28 -35 12 -5 22 -13 22 -17 0 -5 464 -8 1032 -8
l1032 0 23 22 c13 12 23 32 23 45 0 22 3 24 48 21 45 -3 47 -4 50 -35 l3 -33
270 0 269 0 0 73 c0 43 -5 78 -12 85 -15 15 -508 17 -508 2 0 -6 37 -10 90
-10 67 0 90 -3 90 -13 0 -18 24 -67 33 -67 4 0 7 -9 7 -20 0 -11 5 -20 11 -20
6 0 13 9 16 20 3 11 9 20 14 20 4 0 11 16 15 35 9 51 24 53 24 4 0 -48 22 -79
55 -79 33 0 45 20 45 72 l0 48 55 0 55 0 0 -65 0 -65 -260 0 -260 0 -1 68 c-1
43 -3 58 -8 42 -6 -22 -13 -25 -54 -28 -45 -3 -47 -2 -47 22 0 15 -3 26 -7 26
-5 0 -13 11 -19 25 -10 20 -9 27 7 41 11 9 19 25 19 36 0 15 8 18 49 18 49 0
50 -1 53 -32 l3 -33 268 -3 267 -2 0 80 0 80 -270 0 -270 0 0 -25 c0 -23 -3
-25 -50 -25 -34 0 -50 4 -50 13 0 7 -6 25 -12 40 l-13 27 -1049 0 c-963 0
-1051 -1 -1068 -17 -10 -9 -18 -27 -18 -40 0 -20 -5 -23 -35 -23 l-35 0 0 78
c0 43 3 82 7 85 3 4 665 7 1470 7 l1463 0 0 -2095z m-4392 1963 c16 -16 16
-100 0 -116 -9 -9 -136 -12 -509 -12 l-498 0 3 33 c2 17 1 22 -1 10 -5 -29
-23 -30 -23 -2 0 11 -7 27 -15 36 -14 14 -15 13 -9 -13 4 -16 11 -33 15 -38 5
-6 9 -14 9 -18 0 -12 -48 -9 -70 4 -15 10 -22 10 -32 0 -17 -17 -909 -17 -926
0 -16 16 -16 100 0 116 17 17 2039 17 2056 0z m1752 0 c16 -10 24 -10 40 0 24
14 76 16 85 2 3 -5 17 -10 31 -10 15 0 24 -6 24 -15 0 -8 -7 -15 -15 -15 -8 0
-15 -4 -15 -10 0 -5 7 -10 15 -10 8 0 15 -7 15 -15 0 -8 5 -15 10 -15 14 0 13
13 -2 28 -10 10 -10 15 2 22 12 7 12 12 2 22 -24 24 -11 29 81 26 l92 -3 6
-60 c3 -33 6 -51 7 -39 3 31 13 36 34 17 10 -9 21 -13 25 -10 3 4 1 7 -6 7 -8
0 -10 7 -6 20 5 17 2 20 -20 20 -17 0 -25 5 -23 13 6 17 55 21 61 5 2 -7 2 -3
0 10 l-4 23 143 -3 143 -3 4 -60 5 -60 5 60 6 60 145 0 c111 0 145 -3 145 -13
0 -7 -11 -18 -25 -25 -25 -12 -41 -57 -21 -57 6 0 11 12 11 26 0 19 5 25 18
22 27 -5 28 -46 0 -57 -23 -10 -23 -10 4 -10 26 -1 27 1 30 57 l3 57 39 3 c22
2 50 -2 63 -9 19 -10 28 -10 43 -1 28 17 661 17 678 0 17 -17 15 -103 -2 -117
-9 -8 -183 -10 -632 -9 l-619 3 -3 48 c-3 46 -4 48 -30 45 -21 -2 -27 -9 -28
-28 -1 -23 -1 -23 3 -2 3 15 10 22 21 20 24 -5 28 -39 6 -55 -17 -12 -17 -13
1 -13 13 0 16 -3 9 -10 -7 -7 -148 -9 -405 -8 l-394 3 -3 49 c-5 72 12 86 105
86 41 0 82 -5 93 -12z m-4279 -63 c6 -49 6 -49 7 -9 2 46 16 64 50 64 20 0 23
-4 21 -32 -3 -49 0 -68 11 -68 6 0 10 23 10 51 0 31 4 48 10 44 6 -3 10 -26
10 -51 0 -43 1 -44 33 -43 29 1 30 2 7 8 -21 6 -26 14 -28 49 -3 38 -1 42 20
42 13 0 29 -5 36 -12 15 -15 16 -58 0 -58 -6 0 -8 -3 -5 -6 4 -4 13 -1 22 6
17 14 21 50 5 50 -5 0 -10 5 -10 10 0 6 27 10 60 10 l60 0 0 -60 0 -60 -255 0
-255 0 0 60 0 60 93 -3 92 -3 6 -49z m6500 38 c1 -17 2 -17 6 0 3 12 15 17 39
17 35 0 44 -16 22 -38 -9 -9 -9 -15 0 -24 9 -9 12 -7 12 10 0 12 5 22 10 22 6
0 10 6 10 13 0 10 29 14 120 15 l120 2 0 -60 0 -60 -257 2 -258 3 -3 44 c-5
69 -3 71 93 71 74 0 85 -2 86 -17z m-3853 -135 l-3 -83 -32 -3 c-28 -3 -33 0
-33 19 0 12 -7 30 -16 40 -16 18 -12 59 7 59 5 0 9 11 9 25 0 22 4 25 35 25
l36 0 -3 -82z m1402 58 c0 -14 5 -28 10 -31 13 -8 13 -40 1 -63 -5 -9 -12 -25
-15 -35 -4 -13 -14 -17 -33 -15 -28 3 -28 4 -31 86 l-3 82 36 0 c30 0 35 -3
35 -24z m448 -113 c2 -25 8 -33 23 -33 10 0 19 5 19 10 0 6 -7 10 -15 10 -8 0
-15 7 -15 15 0 9 9 15 24 15 14 0 28 5 31 10 3 6 24 10 46 10 21 0 39 -4 39
-10 0 -5 7 -10 15 -10 8 0 15 5 15 10 0 6 38 10 95 10 l95 0 0 -46 c0 -26 6
-51 14 -60 17 -16 66 -19 66 -4 0 6 -13 10 -30 10 -29 0 -30 1 -30 51 l0 50
33 -3 c30 -3 32 -5 38 -53 l6 -50 1 48 c2 34 7 49 19 54 9 4 19 1 21 -5 5 -16
59 -15 69 1 5 7 10 -12 13 -48 5 -57 7 -60 33 -63 15 -2 34 3 42 12 17 17 20
36 5 36 -5 0 -10 12 -10 28 -1 23 -2 24 -11 10 -12 -21 -39 -24 -39 -5 0 20
51 37 113 37 43 0 58 -3 54 -12 -3 -9 8 -13 36 -14 22 0 35 2 29 4 -7 2 -10 8
-6 13 3 5 175 9 407 9 l402 0 13 -27 c15 -34 16 -95 0 -111 -17 -17 -2049 -17
-2066 0 -16 16 -15 93 1 118 11 19 21 20 207 18 l195 -3 3 -32z m-4614 -23 c3
-22 10 -40 15 -40 5 0 11 -9 14 -20 3 -11 10 -20 16 -20 6 0 11 9 11 20 0 11
3 20 8 20 9 0 32 49 32 68 0 7 6 12 13 9 8 -2 12 -24 12 -60 0 -46 3 -57 16
-57 13 0 15 8 11 48 -3 36 0 51 12 61 14 12 16 8 16 -43 0 -31 5 -56 10 -56 6
0 10 18 10 40 0 22 5 40 10 40 6 0 10 -5 10 -12 0 -6 3 -8 7 -5 3 4 -2 16 -12
27 -18 20 -18 20 18 20 34 0 37 -2 37 -28 0 -15 -5 -33 -12 -40 -9 -9 -9 -12
0 -12 7 0 12 -7 12 -15 0 -8 5 -15 10 -15 6 0 10 25 10 55 l0 55 75 0 75 0 0
-65 0 -65 -255 0 -255 0 0 65 0 65 34 0 c31 0 34 -3 40 -40z m76 18 c-1 -26
-22 -58 -39 -58 -6 0 -11 7 -11 15 0 8 -4 15 -10 15 -5 0 -10 11 -10 25 0 22
4 25 35 25 30 0 35 -3 35 -22z m937 -13 c2 -26 -1 -35 -13 -35 -11 0 -14 6 -8
22 6 20 5 21 -10 6 -23 -24 -20 -38 9 -38 16 0 25 -6 25 -15 0 -8 5 -15 10
-15 6 0 10 7 10 15 0 8 5 15 12 15 9 0 9 3 0 12 -7 7 -12 25 -12 40 0 25 3 28
35 28 32 0 35 -2 35 -30 0 -26 3 -30 28 -29 27 0 27 0 4 10 -13 5 -22 15 -20
21 7 20 51 26 210 27 l147 1 -2 -60 c-2 -51 0 -60 15 -60 9 0 20 5 23 10 3 6
1 10 -4 10 -6 0 -11 21 -11 50 l0 50 47 0 47 0 -27 -28 c-32 -34 -34 -52 -6
-52 13 0 23 -8 26 -21 5 -20 6 -20 18 3 6 13 8 27 3 32 -4 6 -8 22 -8 37 l0
27 152 1 c98 0 156 -3 165 -10 15 -13 18 -89 2 -89 -5 0 -7 -4 -4 -10 3 -5 14
-10 23 -10 15 0 17 10 17 58 l0 57 350 0 350 0 0 -60 0 -60 -1015 -3 c-558 -1
-1025 0 -1037 3 -20 5 -23 12 -23 53 0 26 5 53 12 60 9 9 71 12 218 12 l205 0
2 -35z m5703 10 c0 -14 -4 -25 -10 -25 -5 0 -10 -7 -10 -15 0 -8 -7 -15 -15
-15 -8 0 -15 7 -15 15 0 8 -4 15 -10 15 -5 0 -10 11 -10 25 0 22 4 25 35 25
31 0 35 -3 35 -25z m120 -25 l0 -50 -35 0 -35 0 0 50 0 50 35 0 35 0 0 -50z
m-8150 5 c0 -9 -9 -15 -22 -14 -17 1 -19 2 -5 6 9 2 17 9 17 14 0 5 2 9 5 9 3
0 5 -7 5 -15z m2893 -16 c-17 -17 -37 -1 -22 17 8 10 15 12 23 4 7 -7 7 -13
-1 -21z m3697 -4 c0 -9 -9 -15 -25 -15 -16 0 -25 6 -25 15 0 9 9 15 25 15 16
0 25 -6 25 -15z m-5946 -134 c26 -27 43 -51 38 -55 -5 -3 -13 -17 -16 -31 -4
-14 -19 -39 -35 -55 l-28 -30 -147 0 -146 0 0 103 c0 57 3 107 7 110 3 4 68 7
143 7 l136 0 48 -49z m836 -36 c0 -8 -9 -15 -20 -15 -11 0 -20 7 -20 15 0 8 9
15 20 15 11 0 20 -7 20 -15z m-90 -210 c0 -43 -7 -43 -43 1 l-29 34 36 0 c34
0 36 -1 36 -35z m6510 20 c8 -10 11 -32 8 -60 -5 -37 -3 -45 11 -45 13 0 16
11 16 57 0 36 4 58 13 60 9 3 12 -11 12 -51 0 -31 5 -56 10 -56 6 0 10 9 10
20 0 13 7 20 19 20 11 0 23 5 26 10 4 6 -5 10 -19 10 -19 0 -26 5 -26 19 0 22
55 31 198 31 l92 0 0 -52 c0 -89 3 -88 -258 -88 -264 0 -262 -1 -262 87 l0 53
69 0 c49 0 72 -4 81 -15z m-5052 -167 c9 -9 12 -85 12 -280 l0 -268 -473 0
c-355 0 -476 3 -485 12 -9 9 -12 80 -12 260 0 222 2 250 18 267 16 18 37 19
472 20 342 1 459 -2 468 -11z m-1540 -80 l3 -58 -36 0 -35 0 0 61 0 60 33 -3
c32 -3 32 -4 35 -60z m100 24 c3 -26 8 -32 28 -32 15 0 24 -6 24 -15 0 -8 5
-15 11 -15 19 0 3 25 -24 38 -31 15 -35 30 -9 38 9 3 25 10 34 15 10 5 76 9
148 9 l130 0 0 -60 0 -60 -215 1 c-173 2 -215 5 -215 15 0 8 9 14 21 14 11 0
27 6 35 14 16 16 20 61 4 51 -5 -3 -10 -15 -10 -26 0 -14 -7 -19 -25 -19 -20
0 -25 5 -25 25 0 20 5 25 24 25 14 0 28 5 31 11 12 19 30 3 33 -29z m6500 -14
c3 -49 22 -68 22 -23 l0 26 25 -26 c30 -29 46 -34 21 -6 -12 13 -14 21 -6 26
6 4 16 19 23 33 10 25 11 24 17 -28 4 -48 8 -55 28 -58 15 -2 34 5 49 20 20
18 24 30 19 56 l-5 33 82 -3 82 -3 3 -57 3 -58 -261 0 -260 0 0 53 c0 30 3 57
7 61 4 4 39 5 78 4 l70 -3 3 -47z m70 30 c3 -13 -3 -18 -22 -18 -20 0 -26 5
-26 21 0 15 5 20 22 17 13 -2 24 -11 26 -20z m108 8 c29 -29 7 -76 -35 -76
-18 0 -21 6 -21 45 0 39 3 45 21 45 11 0 27 -6 35 -14z m-498 -33 c19 -42 17
-609 -2 -629 -12 -12 -91 -14 -485 -14 l-471 0 0 335 0 335 473 0 472 0 13
-27z m-3510 -110 l3 -83 -591 0 -590 0 0 85 0 85 588 -2 587 -3 3 -82z m2512
2 l0 -85 -590 0 -590 0 0 78 c0 43 3 82 7 85 3 4 269 7 590 7 l583 0 0 -85z
m-5279 -100 c3 -33 6 -52 7 -42 1 11 10 17 27 17 14 0 25 5 25 10 0 6 -11 10
-25 10 -20 0 -25 5 -25 25 0 18 5 25 20 25 11 0 29 6 40 12 16 10 24 10 41 0
15 -10 24 -11 32 -3 7 7 65 11 154 11 l143 0 0 -70 0 -70 -255 0 -255 0 0 71
0 70 33 -3 c31 -3 32 -4 38 -63z m6599 30 c0 -9 -9 -15 -25 -15 -16 0 -25 6
-25 15 0 9 9 15 25 15 16 0 25 -6 25 -15z m-3832 -137 l-3 -83 -587 -3 -588
-2 0 85 0 85 590 0 591 0 -3 -82z m2512 -3 l0 -85 -587 2 -588 3 -3 83 -3 82
591 0 590 0 0 -85z m-6173 -7 c18 -18 33 -38 33 -45 0 -7 3 -13 8 -13 4 0 13
-9 19 -19 10 -16 5 -26 -37 -70 l-49 -51 -268 0 c-253 0 -269 1 -280 19 -14
22 -68 51 -95 51 -15 0 -18 9 -20 63 l-2 62 -5 -70 -6 -70 -42 -3 -43 -3 0 84
c0 46 3 87 7 90 3 4 173 7 377 7 l370 0 33 -32z m894 -90 c0 -48 2 -58 9 -40
6 13 18 22 32 23 22 1 22 1 -2 8 -38 10 -35 52 5 63 49 13 125 -8 95 -27 -12
-7 -14 -25 -2 -25 4 0 13 14 20 30 l14 30 134 0 134 0 0 -65 0 -65 -255 0
-255 0 0 65 0 65 35 0 35 0 1 -62z m-213 -105 l3 -83 -576 0 c-562 0 -575 0
-595 20 -11 11 -20 22 -20 25 0 3 112 5 248 5 l248 0 49 50 c34 35 55 48 67
44 12 -3 18 0 18 10 0 15 30 16 278 14 l277 -3 3 -82z m5490 10 l-3 -78 -585
0 -585 0 -3 64 c-2 35 -1 70 2 77 4 12 107 14 591 14 l586 0 -3 -77z m-6990
-20 c3 -19 10 -23 43 -23 l39 0 0 -60 0 -60 43 1 c38 1 39 2 12 8 -23 5 -31
12 -33 34 -3 23 0 27 25 28 l28 2 -27 4 c-20 3 -28 10 -28 24 0 17 7 19 72 19
59 0 76 -4 94 -21 27 -25 21 -40 -41 -100 l-39 -39 -188 0 -188 0 0 105 0 106
93 -3 c87 -3 92 -4 95 -25z m202 17 c0 -6 -35 -10 -85 -10 -50 0 -85 4 -85 10
0 6 35 10 85 10 50 0 85 -4 85 -10z m1511 -105 c3 -33 6 -52 7 -42 1 11 10 17
27 17 14 0 25 5 25 10 0 6 -11 10 -25 10 -20 0 -25 5 -25 25 0 18 5 25 20 25
11 0 29 5 39 11 14 9 25 9 50 -2 32 -14 42 -39 16 -39 -8 0 -15 -4 -15 -10 0
-5 7 -10 15 -10 8 0 15 -7 15 -15 0 -8 5 -15 10 -15 14 0 13 13 -2 28 -10 10
-10 15 2 22 12 7 12 12 2 22 -6 6 -12 16 -12 20 0 4 65 8 145 8 l145 0 0 -70
0 -70 -255 0 -255 0 0 71 0 70 33 -3 c31 -3 32 -4 38 -63z m-866 -145 l49 -50
-49 -50 -50 -50 -195 2 -195 3 -3 98 -3 97 199 0 198 0 49 -50z m2403 28 c8
-8 12 -62 12 -178 0 -116 -4 -170 -12 -178 -9 -9 -125 -12 -462 -12 -448 0
-450 0 -473 22 -22 21 -23 28 -23 167 0 135 1 146 22 168 l21 23 452 0 c337 0
454 -3 463 -12z m1110 0 c8 -8 12 -62 12 -178 0 -116 -4 -170 -12 -178 -9 -9
-125 -12 -462 -12 -448 0 -450 0 -473 22 -22 21 -23 28 -23 167 0 135 1 146
22 168 l21 23 452 0 c337 0 454 -3 463 -12z m3619 -10 c22 -20 23 -29 23 -142
0 -109 -2 -122 -22 -143 l-21 -23 -452 0 c-337 0 -454 3 -463 12 -8 8 -12 57
-12 153 0 96 4 145 12 153 9 9 125 12 462 12 448 0 450 0 473 -22z m-6269 -75
c-3 -57 -3 -58 -35 -61 l-33 -3 0 60 0 61 35 0 36 0 -3 -57z m442 -3 l0 -60
-145 0 c-132 0 -165 6 -135 25 6 3 10 22 10 41 0 19 -4 34 -10 34 -5 0 -10 -7
-10 -15 0 -8 -8 -15 -17 -15 -17 -1 -17 -1 0 -11 25 -15 21 -32 -13 -47 -38
-17 -105 -12 -105 8 0 8 11 17 25 19 l25 4 -25 6 c-18 5 -25 14 -25 31 0 33
18 36 238 39 l187 2 0 -61z m6260 10 c0 -49 1 -50 31 -50 17 0 37 6 45 14 12
13 10 14 -21 9 l-35 -6 0 40 0 40 121 2 120 1 -3 -57 -3 -58 -255 0 -255 0 -3
58 -3 57 131 0 130 0 0 -50z m-5050 -105 l0 -85 -30 0 -30 0 0 85 0 85 30 0
30 0 0 -85z m1118 3 l-3 -83 -30 0 -30 0 -3 83 -3 82 36 0 36 0 -3 -82z m2510
0 l-3 -83 -585 0 -585 0 -3 83 -3 82 591 0 591 0 -3 -82z m-6747 -45 c52 -54
52 -55 -14 -124 l-37 -40 -148 3 -147 3 -3 103 -3 102 153 0 154 0 45 -47z
m8097 -45 c3 -58 3 -58 34 -58 56 0 91 59 53 90 -28 23 -4 30 102 30 131 0
143 -7 143 -87 l0 -53 -260 0 -260 0 0 52 c0 77 16 89 109 86 l76 -3 3 -57z
m78 28 c30 -30 10 -76 -33 -76 -21 0 -23 5 -23 45 0 39 3 45 21 45 11 0 27 -6
35 -14z m-7382 -168 c21 -24 42 -49 47 -56 8 -9 3 -23 -17 -50 -57 -75 -40
-71 -331 -72 l-263 0 0 110 0 110 264 0 264 0 36 -42z m6952 -2 c18 -19 20
-266 2 -284 -9 -9 -130 -12 -485 -12 l-473 0 0 155 0 155 471 0 c394 0 473 -2
485 -14z m-3616 -314 c0 -195 -3 -271 -12 -280 -9 -9 -125 -12 -462 -12 -448
0 -450 0 -473 22 -23 21 -23 23 -23 274 0 192 3 254 13 257 6 3 225 6 485 6
l472 1 0 -268z m108 146 l-3 -73 -32 -3 -33 -3 0 75 0 76 35 0 36 0 -3 -72z
m2512 -3 l0 -75 -590 0 -590 0 0 75 0 75 590 0 590 0 0 -75z m-5280 -102 c1
-44 3 -54 11 -40 5 9 20 17 32 18 20 1 20 2 -3 8 -18 5 -25 14 -25 31 0 26 23
37 81 39 l31 1 -1 -60 c-1 -48 2 -60 15 -60 12 0 15 10 11 58 l-4 57 146 3
146 3 0 -65 0 -66 -255 0 -255 0 0 65 0 65 35 0 35 0 0 -57z m6838 30 c-5 -26
-38 -29 -38 -4 0 15 6 21 21 21 14 0 19 -5 17 -17z m-4068 -123 l0 -80 -35 0
-35 0 0 80 0 80 35 0 35 0 0 -80z m-3439 -46 c44 -44 46 -47 33 -72 -7 -15
-28 -42 -47 -60 l-33 -32 -190 2 -189 3 -3 103 -3 102 193 0 192 0 47 -46z
m8669 -39 l0 -85 -50 0 c-47 0 -50 2 -50 25 0 14 -4 25 -10 25 -5 0 -10 12
-11 28 l-1 27 -7 -25 c-10 -35 -41 -40 -41 -6 0 16 6 26 15 26 8 0 15 9 15 20
0 54 -45 -12 -56 -82 -4 -21 -12 -38 -19 -38 -6 0 -20 -9 -30 -20 -15 -17 -31
-20 -95 -20 -75 0 -76 1 -113 38 -24 25 -36 44 -32 54 4 10 0 17 -10 20 -13 2
-6 14 31 51 l48 47 208 0 208 0 0 -85z m-6462 53 c8 -8 12 -61 12 -173 0 -112
-4 -165 -12 -173 -9 -9 -126 -12 -467 -12 -409 0 -456 2 -473 17 -16 14 -18
33 -18 166 0 126 3 153 17 169 15 17 43 18 473 18 341 0 459 -3 468 -12z
m3630 0 c8 -8 12 -61 12 -173 0 -112 -4 -165 -12 -173 -9 -9 -126 -12 -467
-12 -556 0 -501 -20 -501 184 0 130 2 141 22 163 l21 23 457 0 c341 0 459 -3
468 -12z m1102 -8 c18 -18 20 -33 20 -165 0 -128 -2 -148 -18 -166 -18 -19
-32 -19 -483 -17 l-464 3 -3 170 c-1 93 0 175 2 182 4 10 100 13 466 13 447 0
461 -1 480 -20z m-6272 -72 l3 -58 -36 0 -35 0 0 61 0 60 33 -3 c32 -3 32 -4
35 -60z m130 15 c1 -25 -3 -52 -9 -60 -17 -19 -109 -18 -109 2 0 9 9 15 25 15
14 0 25 5 25 10 0 6 -11 10 -25 10 -20 0 -25 5 -25 25 0 20 5 25 24 25 14 0
28 5 31 10 3 6 18 10 33 10 26 0 28 -3 30 -47z m62 35 c16 -10 24 -10 40 0 12
7 56 12 115 12 l95 0 0 -60 0 -60 -95 0 c-59 0 -103 5 -115 12 -15 10 -24 10
-39 1 -27 -17 -41 2 -41 59 0 50 7 56 40 36z m6410 -48 l0 -61 -77 3 -78 3 -3
44 c-5 68 -2 71 83 71 l75 0 0 -60z m110 48 c15 -9 24 -9 44 1 20 11 29 11 55
0 32 -14 42 -39 16 -39 -8 0 -15 -4 -15 -10 0 -5 6 -10 14 -10 8 0 17 -8 19
-17 2 -10 3 6 2 35 l-3 52 59 0 59 0 0 -60 0 -60 -58 0 c-32 0 -63 5 -69 11
-8 8 -17 7 -32 -2 -16 -11 -23 -11 -33 -1 -6 6 -20 12 -30 12 -12 0 -16 5 -11
18 6 16 6 16 -10 0 -9 -9 -17 -21 -17 -27 0 -6 -18 -11 -40 -11 -29 0 -40 4
-40 15 0 8 8 15 19 15 28 0 44 26 37 60 -6 32 3 37 34 18z m-40 -33 c0 -20 -5
-25 -25 -25 -20 0 -25 5 -25 25 0 20 5 25 25 25 20 0 25 -5 25 -25z m-5020
-71 c0 -39 5 -51 31 -75 l32 -30 477 3 c546 3 510 -3 510 93 l0 56 33 -3 32
-3 0 -80 0 -80 -587 -3 -588 -2 0 85 0 85 30 0 c29 0 30 -2 30 -46z m2520 -39
l0 -85 -35 0 -35 0 0 85 0 85 35 0 35 0 0 -85z m1110 -1 l0 -85 -32 3 -33 3
-3 69 c-4 86 0 96 38 96 l30 0 0 -86z m2170 71 c0 -8 6 -15 13 -15 7 0 33 -20
57 -45 43 -44 46 -45 107 -45 35 0 63 -4 63 -10 0 -5 -6 -10 -13 -10 -7 0 -17
-10 -22 -22 -10 -23 -10 -23 -292 -26 l-283 -2 0 95 0 95 185 0 c158 0 185 -2
185 -15z m430 -20 c0 -10 -11 -15 -35 -15 -24 0 -35 5 -35 15 0 10 11 15 35
15 24 0 35 -5 35 -15z m275 -150 l0 -100 -184 -3 -185 -2 -38 37 c-29 28 -35
40 -27 50 9 10 8 13 -5 13 -23 0 -20 10 11 42 26 27 73 39 73 18 0 -14 46 -13
69 2 10 6 27 8 37 4 16 -6 16 -8 4 -16 -10 -6 -1 -7 25 -3 22 3 45 10 52 15 9
7 13 -7 15 -59 3 -63 5 -68 27 -71 13 -2 28 1 34 7 8 8 3 11 -16 11 -26 0 -27
2 -27 54 0 30 4 66 10 81 9 24 13 26 67 23 l58 -3 0 -100z m-8155 0 c3 -41 7
-53 12 -37 4 14 14 22 30 23 23 1 23 1 -2 8 -15 4 -26 15 -28 29 -3 18 2 22
22 22 14 0 28 5 31 10 3 6 19 10 35 10 l29 0 -2 -60 c-2 -49 0 -60 13 -60 14
0 16 10 12 60 l-4 60 42 0 c32 0 41 -3 37 -14 -3 -7 -1 -18 5 -24 6 -6 7 -15
4 -21 -9 -14 -36 -14 -36 -1 0 6 5 10 12 10 6 0 8 3 5 6 -8 8 -37 -14 -37 -27
0 -5 12 -9 26 -9 18 0 28 -6 31 -21 5 -20 6 -20 18 3 6 13 8 27 3 33 -4 5 -8
22 -8 37 l0 28 95 0 95 0 0 -70 0 -70 -255 0 -255 0 0 58 c0 62 12 85 45 80
17 -3 21 -13 25 -63z m6603 3 c2 -46 5 -57 11 -41 5 14 18 23 35 25 21 2 26 9
27 31 1 25 1 25 -3 2 -3 -19 -11 -25 -29 -25 -19 0 -24 5 -24 25 0 16 6 25 15
25 8 0 24 6 35 12 15 10 22 10 32 0 6 -6 21 -12 31 -12 16 0 18 -5 13 -26 -6
-24 -5 -25 9 -11 17 18 20 37 5 37 -5 0 -10 5 -10 10 0 6 9 10 20 10 11 0 20
-4 20 -9 0 -15 59 -19 64 -4 7 18 80 17 95 -1 7 -8 11 -37 9 -68 l-3 -53 -255
0 -255 0 -3 52 c-4 72 7 82 90 83 l67 0 4 -62z m-5053 -708 l0 -530 -473 0
c-355 0 -476 3 -485 12 -17 17 -17 1019 0 1036 9 9 130 12 485 12 l473 0 0
-530z m4728 518 c17 -17 17 -1019 0 -1036 -9 -9 -130 -12 -485 -12 l-473 0 0
530 0 530 473 0 c355 0 476 -3 485 -12z m-3510 -115 l3 -73 -591 0 -590 0 0
75 0 75 588 -2 587 -3 3 -72z m2512 2 l0 -75 -590 0 -590 0 0 75 0 75 590 0
590 0 0 -75z m-5949 -41 c53 -52 52 -60 -7 -122 -30 -31 -33 -32 -118 -32
l-86 0 0 100 0 100 82 0 82 0 47 -46z m3434 -159 l0 -80 -587 -3 -588 -2 0 85
0 85 588 -2 587 -3 0 -80z m2515 0 l0 -85 -590 0 -590 0 0 85 0 85 590 0 590
0 0 -85z m-6358 -42 c26 -26 48 -52 48 -57 0 -6 -21 -32 -47 -58 l-47 -48 -73
0 -73 0 0 98 c0 54 3 102 7 105 3 4 36 7 72 7 64 0 66 -1 113 -47z m1079 -68
c3 -33 6 -52 7 -42 1 10 10 17 23 17 11 0 27 6 35 14 16 16 20 61 4 51 -5 -3
-10 -15 -10 -26 0 -14 -7 -19 -25 -19 -18 0 -25 5 -25 20 0 11 8 23 18 26 9 3
27 10 38 16 45 21 59 8 59 -55 0 -54 1 -57 25 -56 14 0 19 3 13 6 -15 6 -18
99 -3 108 5 3 18 1 30 -5 59 -30 58 -30 63 -9 5 18 13 20 94 17 l88 -3 3 -68
3 -67 -253 2 -253 3 -3 54 c-4 70 2 83 35 79 26 -3 28 -7 34 -63z m6597 3 c2
-32 7 -58 12 -58 6 0 10 7 10 15 0 8 9 15 20 15 11 0 20 5 20 10 0 6 -9 10
-20 10 -15 0 -20 7 -20 25 0 34 46 36 53 3 3 -15 4 -13 2 5 -2 29 9 44 20 27
8 -13 52 -13 60 0 7 11 68 14 78 3 4 -3 -1 -15 -10 -25 -16 -18 -16 -18 0 -12
12 4 17 1 17 -11 0 -13 -6 -16 -25 -13 -17 4 -25 1 -25 -8 0 -8 11 -14 25 -14
17 0 25 -6 25 -17 0 -15 2 -14 14 3 10 13 11 23 4 31 -5 6 -8 24 -6 40 3 27 6
28 53 28 l50 0 3 -53 c2 -31 -2 -60 -9 -68 -15 -19 -478 -21 -497 -2 -13 13
-17 110 -5 122 4 4 39 5 78 4 l70 -3 3 -57z m-6810 -105 l3 -93 -181 0 -180 0
0 26 c0 21 -3 24 -13 16 -10 -9 -25 0 -62 38 l-49 50 -161 0 c-89 0 -165 3
-168 7 -4 3 -2 12 4 20 9 10 15 10 25 2 11 -9 14 -8 14 4 0 9 11 17 28 20 15
2 187 4 382 3 l355 -1 3 -92z m2980 10 l3 -83 -36 0 c-34 0 -35 1 -35 38 0 21
-5 43 -12 50 -18 18 -985 17 -1001 -1 -19 -21 -37 -56 -37 -72 0 -10 -10 -15
-30 -15 l-30 0 0 85 0 85 588 -2 587 -3 3 -82z m2510 0 l3 -83 -591 0 -590 0
0 78 c0 43 3 82 7 85 3 4 268 6 587 5 l581 -3 3 -82z m-5947 -49 c44 -44 46
-47 33 -72 -7 -15 -28 -42 -47 -60 l-33 -33 -165 3 -164 3 -3 103 -3 102 168
0 167 0 47 -46z m2569 11 c0 -8 7 -15 16 -15 9 0 14 -7 12 -17 -5 -25 -29 -28
-35 -4 -5 21 -6 21 -19 -5 -16 -31 -18 -54 -4 -54 6 0 10 7 10 15 0 26 59 19
70 -7 9 -23 9 -23 9 2 1 14 -6 38 -14 54 -8 15 -15 32 -15 37 0 5 50 9 110 9
l110 0 0 -55 c0 -30 5 -55 10 -55 6 0 10 24 10 54 l0 55 245 0 245 0 0 -73 c0
-43 -5 -77 -12 -84 -9 -9 -125 -12 -462 -12 -448 0 -450 0 -473 22 -18 17 -23
32 -23 73 0 28 5 56 12 63 8 8 46 12 105 12 76 0 93 -3 93 -15z m-1899 -60 c3
-33 6 -52 7 -42 1 10 10 17 23 17 11 0 27 6 35 14 16 16 20 61 4 51 -5 -3 -10
-15 -10 -26 0 -14 -7 -19 -25 -19 -20 0 -25 5 -25 25 0 20 5 25 24 25 14 0 28
5 31 10 3 6 19 10 34 10 28 0 28 -1 27 -60 -1 -58 0 -60 24 -59 14 0 19 3 13
6 -8 3 -13 25 -13 59 0 51 1 54 25 54 25 0 33 -14 15 -25 -5 -3 -10 -10 -10
-16 0 -5 5 -9 10 -9 6 0 10 6 10 13 0 23 53 37 147 37 l93 0 0 -70 0 -70 -255
0 -255 0 0 58 c0 62 12 85 45 80 17 -3 21 -13 26 -63z m6597 3 c2 -32 7 -58
12 -58 6 0 10 7 10 15 0 8 8 15 19 15 28 0 44 26 37 60 -4 22 -2 30 9 30 8 0
15 -4 15 -10 0 -14 43 -13 58 2 9 9 15 9 24 0 7 -7 22 -12 34 -12 13 0 24 -6
27 -12 2 -7 2 -3 0 10 -3 20 0 22 43 22 60 0 74 -15 74 -84 l0 -56 -257 2
-258 3 -3 49 c-5 71 14 88 92 84 l61 -3 3 -57z m72 17 c0 -20 -5 -25 -25 -25
-20 0 -25 5 -25 25 0 20 5 25 25 25 20 0 25 -5 25 -25z m-5020 -62 c0 -9 14
-32 32 -50 l32 -33 464 0 c420 0 467 2 493 17 23 14 29 24 29 51 0 32 2 33 33
30 l32 -3 0 -80 0 -80 -587 -3 -588 -2 0 85 0 85 30 0 c22 0 30 -5 30 -17z
m3630 -68 l0 -85 -590 0 -590 0 0 85 0 85 590 0 590 0 0 -85z m-2512 -197 l-3
-73 -587 -3 -588 -2 0 75 0 75 590 0 591 0 -3 -72z m2512 -3 l0 -75 -587 2
-588 3 -3 73 -3 72 591 0 590 0 0 -75z m2890 -90 l0 -105 -193 0 -193 0 -39
40 c-30 31 -37 43 -27 49 10 6 8 10 -8 14 -21 5 -19 9 26 56 l49 50 193 0 192
1 0 -105z"/>
<path d="M2194 3658 c3 -7 9 -21 12 -30 8 -22 34 -24 34 -3 0 8 -7 15 -15 15
-8 0 -15 7 -15 15 0 8 -5 15 -11 15 -6 0 -8 -6 -5 -12z"/>
<path d="M2366 3651 c-4 -7 -5 -15 -2 -18 9 -9 19 4 14 18 -4 11 -6 11 -12 0z"/>
<path d="M2360 3491 c0 -6 5 -13 10 -16 6 -3 10 1 10 9 0 9 -4 16 -10 16 -5 0
-10 -4 -10 -9z"/>
<path d="M2423 2265 c0 -27 2 -38 4 -22 2 15 2 37 0 50 -2 12 -4 0 -4 -28z"/>
<path d="M2240 2081 c0 -11 5 -23 10 -26 6 -4 10 5 10 19 0 14 -4 26 -10 26
-5 0 -10 -9 -10 -19z"/>
<path d="M2422 1230 c0 -14 2 -19 5 -12 2 6 2 18 0 25 -3 6 -5 1 -5 -13z"/>
<path d="M2378 1203 c6 -2 18 -2 25 0 6 3 1 5 -13 5 -14 0 -19 -2 -12 -5z"/>
<path d="M2240 1071 c0 -11 5 -23 10 -26 6 -4 10 5 10 19 0 14 -4 26 -10 26
-5 0 -10 -9 -10 -19z"/>
<path d="M2360 1054 c0 -35 18 -64 39 -64 6 0 11 5 11 10 0 6 -7 10 -15 10 -8
0 -15 7 -15 15 0 8 7 15 15 15 8 0 15 5 15 10 0 6 -7 10 -15 10 -8 0 -15 7
-15 15 0 8 -4 15 -10 15 -5 0 -10 -16 -10 -36z"/>
<path d="M2421 1024 c0 -11 3 -14 6 -6 3 7 2 16 -1 19 -3 4 -6 -2 -5 -13z"/>
<path d="M2240 471 c0 -11 5 -23 10 -26 6 -4 10 5 10 19 0 14 -4 26 -10 26 -5
0 -10 -9 -10 -19z"/>
<path d="M2360 482 c0 -12 34 -42 48 -42 6 0 13 -8 15 -17 3 -10 5 2 6 27 0
35 -2 41 -10 28 -12 -22 -39 -24 -39 -3 0 8 -4 15 -10 15 -5 0 -10 -4 -10 -8z"/>
<path d="M2390 400 c0 -5 5 -10 10 -10 6 0 10 5 10 10 0 6 -4 10 -10 10 -5 0
-10 -4 -10 -10z"/>
<path d="M2423 245 c0 -27 2 -38 4 -22 2 15 2 37 0 50 -2 12 -4 0 -4 -28z"/>
<path d="M2305 239 c-11 -16 -1 -19 13 -3 7 8 8 14 3 14 -5 0 -13 -5 -16 -11z"/>
<path d="M2280 206 c0 -12 9 -16 38 -15 27 1 30 3 12 6 -14 3 -31 10 -37 15
-10 8 -13 6 -13 -6z"/>
<path d="M5065 4231 c-3 -5 -19 -12 -35 -16 l-30 -7 0 -2064 0 -2064 593 0
594 0 21 23 22 23 0 2057 0 2057 -579 0 c-344 0 -582 -4 -586 -9z m1123 -2063
l-3 -2043 -577 -3 -578 -2 0 2031 c0 2022 0 2031 20 2036 11 3 20 9 20 14 0 5
243 9 560 9 l560 0 -2 -2042z"/>
<path d="M5822 4018 c3 -30 6 -33 41 -36 36 -3 37 -3 37 32 0 35 -1 36 -41 36
-39 0 -40 -1 -37 -32z"/>
<path d="M5325 4001 c-26 -15 -30 -24 -33 -70 -2 -29 2 -59 8 -66 9 -11 44
-14 146 -13 l134 1 0 27 c0 15 7 33 15 40 13 10 15 9 15 -12 0 -29 21 -78 34
-78 5 0 17 7 27 16 16 14 21 15 48 1 17 -9 31 -12 31 -7 0 4 11 3 25 -3 14 -7
25 -15 25 -19 0 -12 -55 -9 -67 3 -8 8 -13 8 -17 0 -9 -14 -192 -15 -201 -1
-4 6 -11 8 -16 5 -13 -9 -11 -55 4 -60 6 -2 69 -5 140 -7 102 -2 127 0 127 11
0 10 3 11 14 2 21 -18 97 -10 110 11 15 24 -16 57 -37 40 -10 -9 -16 -9 -25 0
-20 20 -14 27 28 30 l40 3 -15 29 c-21 39 -19 46 10 46 18 0 25 5 25 20 0 18
-7 20 -87 21 -49 1 -80 3 -70 6 9 2 17 13 17 24 0 30 -44 22 -48 -8 -3 -19 -9
-23 -40 -22 -32 0 -34 1 -14 9 12 5 22 14 22 19 0 18 -19 22 -41 9 -17 -10
-23 -10 -26 0 -3 6 -16 12 -29 12 -19 0 -24 -5 -24 -25 0 -20 -5 -25 -24 -25
-13 0 -27 -6 -30 -12 -5 -10 -7 -10 -12 0 -7 15 -76 16 -92 0 -7 -7 -12 -21
-12 -32 0 -26 -43 -49 -59 -33 -6 6 -11 26 -11 44 0 29 3 33 25 33 14 0 25 -4
25 -10 0 -19 18 -10 23 12 13 46 -33 61 -88 29z m155 -90 c0 -11 -4 -23 -10
-26 -6 -4 -10 5 -10 19 0 14 5 26 10 26 6 0 10 -9 10 -19z m310 -16 c-14 -17
-50 -21 -50 -5 0 6 9 10 19 10 11 0 23 5 26 11 4 6 9 8 12 5 3 -3 0 -12 -7
-21z"/>
<path d="M5495 4010 c-9 -15 4 -30 26 -30 12 0 19 7 19 20 0 21 -33 29 -45 10z"/>
<path d="M5290 3796 l0 -33 66 -6 c83 -6 118 3 122 31 3 19 -1 22 -35 22 -22
0 -44 5 -51 12 -9 9 -18 8 -37 -2 -21 -11 -30 -12 -46 -2 -17 11 -19 9 -19
-22z"/>
<path d="M5240 2907 c-51 -26 -50 -11 -50 -796 l0 -734 40 -39 c23 -21 47 -38
55 -38 8 0 15 -4 15 -10 0 -5 -4 -10 -10 -10 -18 0 -70 -59 -70 -80 0 -11 5
-20 10 -20 6 0 10 5 10 11 0 6 10 9 23 7 16 -2 22 -10 22 -28 0 -22 -5 -25
-42 -28 -39 -3 -43 -6 -43 -30 0 -27 33 -52 68 -52 17 0 43 -25 35 -34 -4 -3
-19 -6 -35 -6 -23 0 -29 -4 -26 -18 2 -9 13 -21 25 -27 14 -6 23 -20 25 -39 2
-16 12 -34 23 -40 11 -6 27 -19 36 -29 16 -16 17 -16 22 3 7 26 29 26 45 0 10
-16 10 -24 0 -41 -10 -17 -10 -23 0 -26 6 -3 12 -11 12 -19 0 -20 40 -18 55 3
11 15 15 15 29 4 25 -21 19 -36 -19 -51 -47 -18 -52 -25 -60 -85 -7 -49 -7
-50 11 -29 19 20 83 54 103 54 6 0 11 -9 11 -19 0 -11 4 -22 9 -25 12 -8 63
19 86 44 10 11 24 20 32 20 19 0 16 38 -6 62 -19 20 -19 24 6 67 2 2 12 -4 22
-13 36 -32 56 -17 59 44 l2 55 -42 20 c-31 14 -44 27 -47 45 -1 14 -8 28 -15
32 -6 5 5 5 24 2 19 -4 41 -11 48 -17 9 -7 12 4 12 51 0 67 -7 76 -63 86 -29
5 -37 11 -33 22 3 9 6 27 6 40 0 30 24 41 55 24 20 -11 26 -10 39 3 9 9 16 24
16 34 0 34 21 43 100 44 85 1 123 17 151 65 16 27 18 85 18 750 1 787 2 773
-56 795 -39 15 -713 11 -743 -4z m490 -795 l0 -759 -21 -19 c-12 -10 -25 -29
-30 -42 -10 -27 -32 -37 -56 -27 -12 5 -14 9 -5 12 6 3 12 10 12 16 0 16 41
57 57 57 24 0 13 25 -17 38 -26 12 -32 11 -46 -3 -15 -15 -17 -14 -29 2 -10
13 -16 15 -26 6 -8 -6 -31 -13 -51 -17 -21 -4 -38 -10 -38 -14 0 -12 -50 -31
-56 -21 -3 5 -27 9 -55 9 -48 0 -75 9 -111 39 -17 13 -18 60 -18 729 0 652 1
717 17 734 15 16 36 18 245 18 l228 0 0 -758z m210 528 c0 -5 -7 -10 -15 -10
-8 0 -15 5 -15 10 0 6 7 10 15 10 8 0 15 -4 15 -10z m27 -67 c-3 -10 -5 -2 -5
17 0 19 2 27 5 18 2 -10 2 -26 0 -35z m-77 17 c0 -11 -4 -20 -10 -20 -5 0 -10
9 -10 20 0 11 5 20 10 20 6 0 10 -9 10 -20z m45 -50 c3 -5 -1 -10 -9 -10 -9 0
-16 5 -16 10 0 6 4 10 9 10 6 0 13 -4 16 -10z m20 -50 c4 -6 -8 -10 -29 -10
-20 0 -36 5 -36 10 0 6 13 10 29 10 17 0 33 -4 36 -10z m12 -52 c-3 -8 -6 -5
-6 6 -1 11 2 17 5 13 3 -3 4 -12 1 -19z m-127 -32 c0 -3 -4 -8 -10 -11 -5 -3
-10 -1 -10 4 0 6 5 11 10 11 6 0 10 -2 10 -4z m95 -6 c-3 -5 -19 -10 -36 -10
-16 0 -29 5 -29 10 0 6 16 10 36 10 21 0 33 -4 29 -10z m-125 -74 c-5 -5 -10
-27 -10 -49 0 -23 -4 -36 -10 -32 -11 7 -14 98 -3 108 3 4 12 2 20 -5 10 -8
11 -14 3 -22z m75 -26 c3 -5 1 -10 -4 -10 -6 0 -11 5 -11 10 0 6 2 10 4 10 3
0 8 -4 11 -10z m85 -20 c0 -5 -9 -10 -19 -10 -11 0 -23 5 -26 10 -4 6 5 10 19
10 14 0 26 -4 26 -10z m0 -119 c0 -15 -143 -19 -160 -4 -12 11 1 13 73 13 48
0 87 -4 87 -9z m-10 -115 c0 -3 -4 -8 -10 -11 -5 -3 -10 -1 -10 4 0 6 5 11 10
11 6 0 10 -2 10 -4z m-160 -51 c0 -14 -4 -25 -10 -25 -11 0 -14 33 -3 43 11
11 13 8 13 -18z m167 -22 c-3 -10 -5 -2 -5 17 0 19 2 27 5 18 2 -10 2 -26 0
-35z m-147 -33 c0 -5 -5 -10 -11 -10 -5 0 -7 5 -4 10 3 6 8 10 11 10 2 0 4 -4
4 -10z m100 -20 c0 -5 -18 -10 -40 -10 -22 0 -40 5 -40 10 0 6 18 10 40 10 22
0 40 -4 40 -10z m-70 -50 c0 -5 -4 -10 -9 -10 -5 0 -17 -3 -27 -7 -16 -6 -17
-5 -4 10 17 18 40 22 40 7z m38 -108 c46 -2 82 -7 82 -13 0 -6 -36 -9 -92 -7
l-93 3 -3 28 c-2 16 0 36 4 45 6 13 9 8 13 -18 l6 -35 83 -3z m79 -129 c-2
-16 -4 -3 -4 27 0 30 2 43 4 28 2 -16 2 -40 0 -55z m-422 -313 c-10 -11 -27
-20 -39 -20 -23 0 -13 15 26 34 30 16 36 11 13 -14z m-133 -72 c-23 -40 -72
-53 -72 -18 0 15 8 22 30 27 17 3 33 10 36 14 3 5 9 9 14 9 5 0 1 -15 -8 -32z
m160 0 c-7 -7 -12 -25 -12 -41 0 -27 -2 -29 -27 -22 -40 9 -45 17 -31 48 11
22 20 27 48 27 26 0 31 -3 22 -12z m-112 -103 c0 -39 -4 -41 -43 -22 -17 8
-27 20 -27 35 0 19 5 22 35 22 33 0 35 -2 35 -35z m133 3 c12 -6 29 -14 37
-18 8 -4 16 -21 18 -39 3 -25 0 -31 -16 -31 -33 0 -72 38 -72 71 0 33 2 34 33
17z m-241 -38 c17 0 44 -37 34 -47 -3 -3 -21 -2 -41 1 -31 6 -35 10 -35 38 0
25 3 29 12 20 7 -7 20 -12 30 -12z m196 -42 c14 -14 16 -58 3 -58 -5 0 -21 4
-35 10 -25 9 -35 38 -19 53 10 11 38 8 51 -5z m-76 -65 c23 -21 23 -33 0 -33
-21 0 -42 18 -42 37 0 18 20 16 42 -4z m-47 -54 c4 -5 2 -9 -4 -9 -5 0 -13 5
-16 10 -3 6 -15 10 -26 10 -10 0 -19 6 -19 14 0 12 4 12 30 0 16 -9 32 -19 35
-25z m228 -7 c23 -20 22 -52 -2 -52 -23 0 -37 16 -46 53 -6 24 -5 26 11 21 11
-4 27 -14 37 -22z m-310 4 c12 -9 14 -16 8 -21 -6 -3 -11 -1 -11 4 0 6 -7 11
-15 11 -8 0 -15 5 -15 10 0 14 11 12 33 -4z m231 -36 c27 -10 36 -43 15 -55
-12 -8 -59 33 -59 52 0 16 10 16 44 3z m-82 -27 c18 -16 25 -43 11 -43 -12 0
-43 33 -43 47 0 17 10 17 32 -4z m126 -95 c17 -17 -25 -62 -42 -45 -9 8 -9 17
-2 34 12 25 26 29 44 11z"/>
<path d="M5290 2739 c0 -40 20 -59 64 -59 35 0 36 -1 36 -40 0 -22 4 -40 8
-40 5 0 14 -15 21 -33 19 -47 73 -71 150 -65 65 5 111 33 111 69 0 10 5 21 10
24 6 3 10 17 10 31 0 13 -4 24 -10 24 -6 0 -10 27 -10 60 l0 60 -195 0 -195 0
0 -31z m320 -99 c0 -29 -4 -40 -15 -40 -8 0 -15 -4 -15 -10 0 -5 -16 -10 -35
-10 -19 0 -35 5 -35 10 0 6 -7 10 -15 10 -8 0 -15 7 -15 15 0 8 -4 15 -10 15
-14 0 -12 37 3 43 6 3 40 6 75 6 l62 1 0 -40z"/>
<path d="M5448 2452 c-23 -17 -38 -35 -38 -49 0 -12 -4 -25 -10 -28 -14 -9
-12 -61 3 -88 21 -39 60 -77 78 -77 10 0 21 -4 24 -10 8 -13 72 -13 80 1 4 6
13 8 21 5 18 -7 74 50 74 75 0 10 5 21 10 24 6 3 10 19 10 35 0 16 -4 32 -10
35 -5 3 -10 17 -10 30 0 26 -21 38 -56 29 -28 -7 -31 -30 -8 -63 12 -17 13
-26 5 -34 -6 -6 -11 -19 -11 -29 0 -10 -7 -18 -15 -18 -8 0 -15 -5 -15 -11 0
-5 -4 -7 -10 -4 -6 3 -10 50 -10 106 l0 99 -37 0 c-25 -1 -51 -10 -75 -28z
m62 -112 c0 -51 -12 -64 -38 -38 -17 17 -15 48 5 70 26 29 33 22 33 -32z"/>
<path d="M5464 2156 c-40 -22 -54 -38 -54 -62 0 -12 -4 -26 -10 -29 -5 -3 -10
-19 -10 -36 0 -16 5 -29 10 -29 6 0 10 -4 10 -10 0 -6 -27 -10 -60 -10 -59 0
-60 0 -60 -28 0 -50 9 -52 217 -52 l193 0 0 25 c0 14 -6 35 -12 46 -10 17 -10
23 0 26 14 5 17 53 2 53 -5 0 -10 8 -10 18 0 26 -23 72 -36 72 -6 0 -17 7 -24
15 -15 18 -124 19 -156 1z m134 -78 c7 -7 12 -31 12 -55 l0 -43 -63 0 c-66 0
-87 10 -87 44 0 36 39 66 85 66 22 0 46 -5 53 -12z"/>
<path d="M5440 1843 c-14 -9 -31 -27 -38 -41 -15 -31 -16 -92 -2 -92 6 0 10
-16 10 -35 0 -19 -4 -35 -10 -35 -5 0 -10 -18 -10 -39 0 -22 5 -43 10 -46 6
-3 10 -24 10 -46 l0 -39 135 0 135 0 0 35 0 35 -93 0 c-83 0 -95 2 -111 22
-14 16 -16 26 -9 37 8 13 32 17 112 19 l101 3 0 44 0 45 -99 0 c-78 0 -101 3
-112 16 -9 11 -10 20 -2 32 8 14 30 18 112 20 l101 3 0 39 0 40 -107 -1 c-79
-1 -115 -5 -133 -16z"/>
<path d="M8724 3733 c67 -3 103 -8 112 -18 17 -17 18 -77 2 -93 -9 -9 -6 -12
17 -12 23 0 26 3 17 12 -16 16 -15 69 2 90 19 25 26 12 27 -51 1 -40 3 -49 8
-31 4 15 15 26 29 28 31 5 28 22 -4 22 -35 0 -26 24 12 28 16 2 33 8 39 13 5
5 42 9 82 9 l73 0 0 -70 0 -70 -255 0 c-163 0 -255 -4 -255 -10 0 -6 90 -10
249 -10 202 0 251 3 260 14 7 9 11 41 9 83 l-3 68 -260 0 c-143 1 -216 -1
-161 -2z"/>
<path d="M9005 3650 c3 -5 10 -10 16 -10 5 0 9 5 9 10 0 6 -7 10 -16 10 -8 0
-12 -4 -9 -10z"/>
<path d="M8971 3085 c-18 -20 -20 -25 -7 -25 9 0 16 -7 16 -15 0 -8 5 -15 10
-15 6 0 10 7 10 15 0 8 7 15 15 15 8 0 15 5 15 10 0 6 -6 10 -14 10 -8 0 -16
7 -18 15 -2 11 -9 8 -27 -10z"/>
<path d="M8630 2930 c0 -6 29 -10 68 -10 106 0 112 -4 112 -61 0 -27 5 -49 10
-49 6 0 10 23 10 50 0 28 4 50 9 50 5 0 16 3 25 6 12 5 16 -5 18 -53 3 -54 5
-58 29 -61 14 -2 31 3 37 11 9 11 6 13 -18 9 -29 -4 -30 -3 -30 41 0 44 1 44
38 51 20 3 72 6 114 6 42 0 80 5 83 10 4 7 -82 10 -249 10 -164 0 -256 -4
-256 -10z"/>
<path d="M9143 2855 c0 -38 2 -53 4 -32 2 20 2 52 0 70 -2 17 -4 1 -4 -38z"/>
<path d="M8950 2901 c0 -6 4 -11 9 -11 5 0 12 -12 14 -27 l4 -28 2 26 c0 15
-6 32 -14 39 -10 9 -15 9 -15 1z"/>
<path d="M9008 2843 c7 -3 16 -2 19 1 4 3 -2 6 -13 5 -11 0 -14 -3 -6 -6z"/>
<path d="M8630 2780 c0 -6 92 -10 256 -10 167 0 253 3 249 10 -4 6 -100 10
-256 10 -159 0 -249 -4 -249 -10z"/>
<path d="M8971 2675 c-18 -20 -20 -25 -7 -25 9 0 16 -7 16 -15 0 -8 5 -15 10
-15 6 0 10 7 10 15 0 8 7 15 15 15 8 0 15 5 15 10 0 6 -6 10 -14 10 -8 0 -16
7 -18 15 -2 11 -9 8 -27 -10z"/>
<path d="M8901 2658 c0 -14 -7 -29 -13 -31 -10 -4 -10 -6 0 -6 16 -1 25 22 19
46 -3 12 -5 9 -6 -9z"/>
<path d="M8630 2130 c0 -6 32 -10 75 -10 l75 0 0 -62 c1 -55 2 -61 14 -45 7 9
20 17 28 17 25 0 41 27 34 60 -4 22 -2 30 9 30 7 0 17 -4 20 -10 3 -5 15 -10
26 -10 10 0 19 5 19 10 0 14 31 13 63 -2 19 -10 27 -22 30 -48 2 -19 3 -14 2
13 l-2 47 58 0 59 0 0 -70 0 -70 -257 -3 -258 -3 260 1 260 0 3 68 c2 42 -2
74 -9 83 -9 11 -58 14 -260 14 -159 0 -249 -4 -249 -10z m220 -55 c0 -20 -5
-25 -25 -25 -20 0 -25 5 -25 25 0 20 5 25 25 25 20 0 25 -5 25 -25z"/>
<path d="M8930 2085 c0 -8 -7 -15 -15 -15 -8 0 -15 -4 -15 -10 0 -5 7 -10 15
-10 8 0 15 -7 15 -15 0 -8 -9 -15 -19 -15 -11 0 -23 -4 -26 -10 -10 -16 35
-12 51 4 17 18 18 32 2 40 -10 5 -10 7 0 12 14 7 16 34 2 34 -5 0 -10 -7 -10
-15z"/>
<path d="M8973 2060 c0 -25 2 -35 4 -22 2 12 2 32 0 45 -2 12 -4 2 -4 -23z"/>
<path d="M8990 2010 c0 -5 7 -10 16 -10 8 0 12 5 9 10 -3 6 -10 10 -16 10 -5
0 -9 -4 -9 -10z"/>
<path d="M8930 1880 c0 -5 5 -10 10 -10 6 0 10 5 10 10 0 6 -4 10 -10 10 -5 0
-10 -4 -10 -10z"/>
<path d="M8890 1825 c-6 -8 -9 -19 -5 -25 8 -13 52 -13 60 0 4 6 -5 10 -20 10
-20 0 -26 4 -21 15 7 19 2 19 -14 0z"/>
<path d="M8630 1770 c0 -6 90 -10 250 -10 160 0 250 4 250 10 0 6 -90 10 -250
10 -160 0 -250 -4 -250 -10z"/>
<path d="M8700 1321 l75 -6 3 -57 c2 -32 7 -58 12 -58 6 0 10 7 10 15 0 8 9
15 20 15 11 0 20 5 20 10 0 6 -9 10 -20 10 -15 0 -20 7 -20 25 0 34 46 36 53
3 2 -13 3 -8 1 10 -3 31 8 43 21 22 3 -5 17 -10 31 -10 15 0 24 -6 24 -15 0
-8 5 -15 10 -15 13 0 13 17 0 25 -14 9 -2 25 18 25 15 0 17 -10 17 -57 0 -55
1 -58 25 -58 37 0 41 41 6 55 -30 11 -35 40 -8 40 10 0 22 4 28 9 5 6 34 12
64 14 30 2 -62 3 -205 3 -143 0 -226 -2 -185 -5z m320 -91 c0 -13 -7 -20 -20
-20 -19 0 -27 20 -13 33 13 14 33 6 33 -13z"/>
<path d="M9142 1248 l-2 -68 -255 0 c-163 0 -255 -4 -255 -10 0 -6 90 -10 249
-10 202 0 251 3 260 14 7 9 11 39 8 78 l-3 63 -2 -67z"/>
<path d="M8893 1233 c-7 -2 -13 -11 -13 -19 0 -10 11 -14 38 -13 31 2 32 3 9
6 -20 3 -27 9 -23 19 3 8 4 14 3 13 -1 0 -8 -3 -14 -6z"/>
<path d="M8630 1120 c0 -6 32 -10 75 -10 l75 0 0 -62 c1 -55 2 -61 14 -45 7 9
20 17 28 17 23 0 40 26 35 52 -4 20 -4 20 -6 -4 -1 -23 -6 -28 -26 -28 -20 0
-25 5 -25 25 0 17 5 25 18 25 10 0 24 6 30 12 10 10 17 10 32 0 11 -6 27 -12
36 -12 12 0 15 -6 10 -26 -6 -24 -5 -25 9 -11 17 18 20 37 5 37 -5 0 -10 5
-10 10 0 6 9 10 20 10 16 0 20 -7 20 -35 0 -31 3 -35 25 -35 16 0 25 -6 25
-15 0 -9 -9 -15 -25 -15 -14 0 -25 -4 -25 -10 0 -20 48 -11 55 10 7 23 -10 50
-31 50 -8 0 -14 7 -14 15 0 9 9 15 24 15 14 0 28 5 31 10 3 6 28 10 56 10 l49
0 0 -70 0 -70 -257 -3 -258 -3 260 1 260 0 3 68 c2 42 -2 74 -9 83 -9 11 -58
14 -260 14 -159 0 -249 -4 -249 -10z"/>
<path d="M8880 1005 c0 -11 11 -15 37 -15 41 0 35 13 -9 24 -21 5 -28 3 -28
-9z"/>
<path d="M8630 520 c0 -6 32 -10 75 -10 l74 0 4 -62 c2 -46 5 -57 11 -41 5 14
18 23 35 25 21 2 26 9 27 31 1 25 1 25 -3 2 -3 -19 -11 -25 -29 -25 -19 0 -24
5 -24 25 0 17 5 25 18 25 10 0 24 6 30 12 10 10 17 10 32 0 11 -6 27 -12 36
-12 12 0 15 -6 10 -26 -6 -24 -5 -25 9 -11 17 18 20 37 5 37 -5 0 -10 5 -10
10 0 6 9 10 20 10 11 0 20 -4 20 -10 0 -13 37 -13 45 0 3 6 33 10 66 10 l59 0
0 -70 0 -70 -257 -3 -258 -3 260 1 260 0 3 68 c2 42 -2 74 -9 83 -9 11 -58 14
-260 14 -159 0 -249 -4 -249 -10z"/>
<path d="M9021 478 c-1 -10 -5 -18 -10 -18 -5 0 -12 -8 -15 -17 -6 -15 -3 -14
15 3 12 12 19 28 16 35 -4 10 -6 9 -6 -3z"/>
<path d="M8882 408 c3 -7 20 -14 39 -16 40 -4 30 12 -14 22 -21 5 -28 3 -25
-6z"/>
<path d="M8970 403 c0 -8 12 -13 30 -13 17 0 30 4 30 9 0 5 -13 11 -30 13 -20
3 -30 0 -30 -9z"/>
<path d="M8700 311 l75 -6 3 -57 c2 -32 7 -58 12 -58 6 0 10 7 10 15 0 8 9 15
20 15 11 0 20 5 20 10 0 6 -9 10 -20 10 -15 0 -20 7 -20 25 0 34 46 36 53 3 2
-13 3 -8 1 10 -2 23 1 32 12 32 8 0 14 -4 14 -10 0 -13 43 -13 57 1 6 6 21 9
34 7 19 -3 23 -10 26 -52 3 -33 0 -52 -9 -57 -9 -6 -5 -9 12 -9 24 0 25 2 22
59 l-4 60 64 4 c34 2 -54 3 -197 3 -143 0 -226 -2 -185 -5z"/>
<path d="M9142 238 l-2 -68 -255 0 c-163 0 -255 -4 -255 -10 0 -6 90 -10 249
-10 202 0 251 3 260 14 7 9 11 39 8 78 l-3 63 -2 -67z"/>
<path d="M8930 275 c0 -8 5 -15 10 -15 6 0 10 7 10 15 0 8 -4 15 -10 15 -5 0
-10 -7 -10 -15z"/>
<path d="M8893 225 c-22 -25 -14 -35 25 -34 30 2 32 3 9 6 -22 4 -27 8 -22 24
7 22 5 23 -12 4z"/>
<path d="M3693 4105 c-15 -17 -17 -85 -3 -85 6 0 10 18 10 40 0 29 4 40 15 40
11 0 15 -11 15 -40 0 -22 5 -40 10 -40 15 0 12 70 -4 86 -18 17 -27 17 -43 -1z"/>
<path d="M6620 4109 c0 -7 -8 -18 -17 -25 -17 -13 -17 -13 0 -14 9 0 17 -7 17
-15 0 -8 5 -15 10 -15 14 0 12 27 -2 34 -10 5 -10 7 0 12 14 7 16 34 2 34 -5
0 -10 -5 -10 -11z"/>
<path d="M7431 4079 c1 -24 4 -35 6 -24 3 11 9 25 14 31 6 7 4 16 -6 24 -13
11 -15 7 -14 -31z"/>
<path d="M7713 4105 c-7 -8 -13 -21 -13 -28 0 -8 6 -19 13 -25 9 -8 12 -1 12
29 1 21 1 39 0 39 0 -1 -6 -7 -12 -15z"/>
<path d="M7793 4107 c4 -10 7 -25 7 -33 0 -8 5 -14 10 -14 16 0 12 30 -7 48
-16 16 -16 16 -10 -1z"/>
<path d="M7927 4113 c-11 -10 -8 -73 3 -73 6 0 10 11 10 24 0 13 5 26 11 28 7
2 6 8 -3 16 -8 6 -18 9 -21 5z"/>
<path d="M6808 4070 c2 -17 8 -30 13 -30 14 0 11 36 -4 49 -11 8 -13 5 -9 -19z"/>
<path d="M6854 4086 c-3 -8 -4 -23 -1 -33 3 -12 5 -9 6 9 0 14 7 29 14 31 9 4
9 6 -1 6 -7 1 -15 -5 -18 -13z"/>
<path d="M7078 4093 c7 -3 16 -2 19 1 4 3 -2 6 -13 5 -11 0 -14 -3 -6 -6z"/>
<path d="M7220 4070 c0 -16 5 -30 10 -30 6 0 10 14 10 30 0 17 -4 30 -10 30
-5 0 -10 -13 -10 -30z"/>
<path d="M7270 4066 c0 -24 -5 -36 -17 -39 -11 -3 -7 -5 10 -6 25 -1 27 2 27
39 0 22 -4 40 -10 40 -5 0 -10 -15 -10 -34z"/>
<path d="M7368 4093 c7 -3 16 -2 19 1 4 3 -2 6 -13 5 -11 0 -14 -3 -6 -6z"/>
<path d="M7513 4093 c9 -2 17 -9 17 -15 0 -6 -10 -8 -25 -4 -21 5 -25 3 -25
-14 0 -17 4 -19 28 -14 15 4 31 10 36 15 12 11 -12 39 -33 38 -13 -1 -13 -2 2
-6z"/>
<path d="M7842 4070 c0 -19 2 -27 5 -17 2 9 2 25 0 35 -3 9 -5 1 -5 -18z"/>
<path d="M7890 4070 c0 -17 -7 -33 -17 -40 -16 -9 -15 -10 7 -8 21 3 25 9 28
41 2 21 -1 37 -7 37 -6 0 -11 -13 -11 -30z"/>
<path d="M7050 4058 c0 -15 5 -17 28 -12 54 13 59 30 7 30 -27 0 -35 -4 -35
-18z"/>
<path d="M7380 4073 c-8 -4 -21 -12 -29 -20 -11 -12 -9 -13 15 -8 28 6 28 6
10 -9 -19 -15 -19 -16 7 -16 23 0 27 4 27 30 0 30 -3 33 -30 23z"/>
<path d="M6681 4034 c0 -11 3 -14 6 -6 3 7 2 16 -1 19 -3 4 -6 -2 -5 -13z"/>
<path d="M6583 4023 c9 -2 23 -2 30 0 6 3 -1 5 -18 5 -16 0 -22 -2 -12 -5z"/>
<path d="M6723 4023 c9 -2 23 -2 30 0 6 3 -1 5 -18 5 -16 0 -22 -2 -12 -5z"/>
<path d="M7083 4023 c9 -2 23 -2 30 0 6 3 -1 5 -18 5 -16 0 -22 -2 -12 -5z"/>
<path d="M7513 4023 c9 -2 23 -2 30 0 6 3 -1 5 -18 5 -16 0 -22 -2 -12 -5z"/>
<path d="M7748 4023 c6 -2 18 -2 25 0 6 3 1 5 -13 5 -14 0 -19 -2 -12 -5z"/>
<path d="M2183 4076 c1 -17 9 -31 17 -33 10 -3 11 -2 4 4 -7 4 -14 19 -17 33
-4 22 -5 21 -4 -4z"/>
<path d="M2342 4086 c7 -8 15 -12 17 -11 5 6 -10 25 -20 25 -5 0 -4 -6 3 -14z"/>
<path d="M2230 4081 c0 -6 7 -11 16 -11 25 0 12 -33 -16 -41 -21 -6 -19 -7 13
-8 37 -1 38 0 35 32 -2 24 -8 33 -25 35 -13 2 -23 -1 -23 -7z"/>
<path d="M8923 4076 c1 -17 9 -31 17 -33 10 -3 11 -2 4 4 -7 4 -14 19 -17 33
-4 22 -5 21 -4 -4z"/>
<path d="M9021 4078 c0 -14 -7 -29 -13 -31 -10 -4 -10 -6 0 -6 16 -1 25 22 19
46 -3 12 -5 9 -6 -9z"/>
<path d="M8814 4068 c3 -7 9 -21 12 -30 8 -22 34 -24 34 -3 0 8 -7 15 -15 15
-8 0 -15 7 -15 15 0 8 -5 15 -11 15 -6 0 -8 -6 -5 -12z"/>
<path d="M8963 4023 c9 -2 23 -2 30 0 6 3 -1 5 -18 5 -16 0 -22 -2 -12 -5z"/>
<path d="M6930 3894 c0 -32 18 -64 35 -64 4 0 13 6 21 14 16 16 19 86 4 86 -5
0 -10 -18 -10 -40 0 -29 -4 -40 -15 -40 -11 0 -15 11 -15 40 0 22 -4 40 -10
40 -5 0 -10 -16 -10 -36z"/>
<path d="M7290 3919 c0 -17 27 -39 49 -39 12 0 21 -6 21 -15 0 -10 -10 -15
-29 -15 -17 0 -33 -4 -36 -10 -11 -18 57 -11 71 8 10 14 10 20 -3 35 -9 9 -24
17 -35 17 -10 0 -18 7 -18 15 0 8 -4 15 -10 15 -5 0 -10 -5 -10 -11z"/>
<path d="M7770 3895 c0 -20 6 -42 13 -49 10 -10 12 -4 12 32 -1 56 -25 72 -25
17z"/>
<path d="M7552 3890 c0 -14 2 -19 5 -12 2 6 2 18 0 25 -3 6 -5 1 -5 -13z"/>
<path d="M7650 3890 c0 -11 5 -20 10 -20 6 0 10 9 10 20 0 11 -4 20 -10 20 -5
0 -10 -9 -10 -20z"/>
<path d="M7680 3884 c0 -31 21 -54 49 -54 18 0 21 6 19 43 -1 36 -2 38 -5 10
-3 -25 -9 -33 -24 -33 -14 0 -19 7 -19 30 0 17 -4 30 -10 30 -5 0 -10 -12 -10
-26z"/>
<path d="M7038 3894 c-12 -12 -9 -34 6 -49 12 -12 16 -12 26 0 6 8 10 24 7 37
-4 20 -4 20 -6 -4 -1 -35 -19 -37 -23 -2 -2 14 -6 22 -10 18z"/>
<path d="M6851 3864 c0 -11 3 -14 6 -6 3 7 2 16 -1 19 -3 4 -6 -2 -5 -13z"/>
<path d="M6901 3844 c0 -11 3 -14 6 -6 3 7 2 16 -1 19 -3 4 -6 -2 -5 -13z"/>
<path d="M7577 3843 c7 -17 41 -17 57 0 11 11 7 13 -24 12 -26 0 -36 -4 -33
-12z"/>
<path d="M6800 3840 c0 -5 9 -10 20 -10 11 0 20 5 20 10 0 6 -9 10 -20 10 -11
0 -20 -4 -20 -10z"/>
<path d="M3850 3877 c0 -21 8 -41 20 -52 17 -16 21 -16 35 -2 17 17 21 87 5
87 -5 0 -10 -18 -10 -40 0 -29 -4 -40 -15 -40 -11 0 -15 11 -15 40 0 22 -4 40
-10 40 -5 0 -10 -15 -10 -33z"/>
<path d="M3387 3868 c4 -18 12 -39 20 -46 10 -11 12 -7 6 20 -4 18 -12 39 -20
46 -10 11 -12 7 -6 -20z"/>
<path d="M4003 3885 c-7 -8 -13 -23 -13 -35 0 -31 -20 -24 -21 8 -2 25 -2 25
-6 3 -11 -57 37 -47 51 12 7 31 6 32 -11 12z"/>
<path d="M4160 3860 c0 -22 5 -40 10 -40 6 0 10 14 10 30 0 20 5 30 15 30 10
0 15 -10 15 -30 0 -16 5 -30 10 -30 15 0 12 49 -4 66 -8 8 -24 14 -35 14 -18
0 -21 -6 -21 -40z"/>
<path d="M3434 3876 c-3 -8 -4 -23 -2 -33 3 -11 6 -6 9 15 6 34 2 42 -7 18z"/>
<path d="M3340 3845 c0 -9 -9 -15 -25 -15 -14 0 -25 -4 -25 -10 0 -17 36 -11
53 8 19 21 22 32 7 32 -5 0 -10 -7 -10 -15z"/>
<path d="M3538 3853 c7 -3 16 -2 19 1 4 3 -2 6 -13 5 -11 0 -14 -3 -6 -6z"/>
<path d="M3822 3830 c0 -14 2 -19 5 -12 2 6 2 18 0 25 -3 6 -5 1 -5 -13z"/>
<path d="M3250 3830 c0 -5 5 -10 10 -10 6 0 10 5 10 10 0 6 -4 10 -10 10 -5 0
-10 -4 -10 -10z"/>
<path d="M1250 3721 c0 -11 5 -23 10 -26 6 -3 10 -17 10 -31 0 -14 4 -22 10
-19 6 3 10 15 10 26 0 10 -4 19 -10 19 -5 0 -10 11 -10 25 0 14 -4 25 -10 25
-5 0 -10 -9 -10 -19z"/>
<path d="M1320 3715 c0 -14 -4 -25 -10 -25 -5 0 -10 -9 -10 -19 0 -11 5 -23
10 -26 6 -3 10 5 10 19 0 14 5 28 10 31 6 3 10 15 10 26 0 10 -4 19 -10 19 -5
0 -10 -11 -10 -25z"/>
<path d="M1360 3675 l0 -65 33 1 c29 1 30 2 7 8 -18 5 -25 14 -25 31 0 17 7
26 25 31 l25 6 -25 4 c-14 2 -25 11 -25 19 0 8 11 17 25 21 23 6 22 7 -7 8
l-33 1 0 -65z"/>
<path d="M1420 3710 c0 -5 5 -10 10 -10 6 0 10 5 10 10 0 6 -4 10 -10 10 -5 0
-10 -4 -10 -10z"/>
<path d="M1420 3650 c0 -11 5 -20 10 -20 6 0 10 9 10 20 0 11 -4 20 -10 20 -5
0 -10 -9 -10 -20z"/>
<path d="M1291 3624 c0 -11 3 -14 6 -6 3 7 2 16 -1 19 -3 4 -6 -2 -5 -13z"/>
<path d="M8980 3485 c0 -8 -7 -15 -16 -15 -13 0 -11 -5 7 -25 18 -18 25 -21
27 -10 2 8 10 15 18 15 8 0 14 5 14 10 0 6 -7 10 -15 10 -8 0 -15 7 -15 15 0
8 -4 15 -10 15 -5 0 -10 -7 -10 -15z"/>
<path d="M2860 3255 c0 -31 8 -32 20 -2 8 21 9 21 9 -5 1 -32 21 -39 21 -8 0
27 18 25 23 -2 3 -17 5 -14 6 10 1 31 0 32 -39 32 -36 0 -40 -2 -40 -25z"/>
<path d="M2960 3262 c0 -32 34 -54 76 -50 30 2 40 8 42 23 3 16 1 18 -9 8 -16
-15 -39 -17 -39 -3 0 6 6 10 14 10 7 0 19 7 26 15 11 13 5 15 -49 15 -53 0
-61 -3 -61 -18z m50 -12 c0 -11 -7 -20 -15 -20 -15 0 -21 21 -8 33 12 13 23 7
23 -13z"/>
<path d="M3100 3244 c0 -8 5 -12 10 -9 6 3 10 10 10 16 0 5 -4 9 -10 9 -5 0
-10 -7 -10 -16z"/>
<path d="M3373 3153 c9 -2 25 -2 35 0 9 3 1 5 -18 5 -19 0 -27 -2 -17 -5z"/>
<path d="M3461 3083 c1 -48 4 -68 8 -53 5 18 15 26 35 28 16 2 35 10 43 17 15
16 18 65 3 65 -5 0 -10 -14 -10 -31 0 -28 -2 -30 -32 -27 -29 3 -33 6 -33 33
0 26 4 31 35 36 l35 6 -42 2 -43 1 1 -77z"/>
<path d="M3588 3148 c16 -16 16 -110 0 -126 -9 -9 -6 -12 17 -12 23 0 26 3 17
12 -16 16 -16 110 0 126 9 9 6 12 -17 12 -23 0 -26 -3 -17 -12z"/>
<path d="M3340 3120 c0 -11 5 -20 10 -20 6 0 10 9 10 20 0 11 -4 20 -10 20 -5
0 -10 -9 -10 -20z"/>
<path d="M3373 3083 c9 -2 25 -2 35 0 9 3 1 5 -18 5 -19 0 -27 -2 -17 -5z"/>
<path d="M2867 3073 c-10 -10 -8 -43 2 -43 5 0 12 8 14 18 4 13 5 12 6 -5 2
-31 21 -39 21 -9 0 35 18 33 23 -1 3 -23 4 -21 6 10 1 36 0 37 -32 37 -19 0
-37 -3 -40 -7z"/>
<path d="M3000 3060 c0 -24 25 -27 34 -4 9 23 8 24 -14 24 -13 0 -20 -7 -20
-20z"/>
<path d="M3071 3053 c1 -17 3 -21 6 -10 5 21 43 23 43 2 0 -8 -6 -15 -14 -15
-8 0 -18 -4 -21 -10 -4 -6 5 -10 19 -10 23 0 26 4 26 35 0 32 -2 35 -30 35
-26 0 -30 -3 -29 -27z"/>
<path d="M3432 3055 c0 -16 2 -22 5 -12 2 9 2 23 0 30 -3 6 -5 -1 -5 -18z"/>
<path d="M2966 3051 c-4 -7 -5 -15 -2 -18 9 -9 19 4 14 18 -4 11 -6 11 -12 0z"/>
<path d="M3018 3033 c-27 -7 -22 -23 7 -23 16 0 25 6 25 15 0 15 -2 16 -32 8z"/>
<path d="M3352 3027 c18 -18 68 -23 68 -7 0 6 -11 10 -24 10 -13 0 -33 3 -43
7 -17 6 -17 6 -1 -10z"/>
<path d="M3000 2856 c0 -20 4 -36 9 -36 5 0 18 -3 28 -7 15 -5 14 -2 -4 14
-15 13 -19 23 -12 30 7 7 5 14 -6 23 -13 11 -15 8 -15 -24z"/>
<path d="M2840 2855 c0 -8 9 -15 20 -15 11 0 20 -4 20 -10 0 -5 -7 -10 -15
-10 -8 0 -15 -4 -15 -10 0 -5 9 -10 20 -10 17 0 20 6 17 35 -2 29 -6 35 -24
35 -14 0 -23 -6 -23 -15z"/>
<path d="M2910 2852 c0 -28 35 -56 57 -46 15 6 13 8 -10 12 -35 4 -33 33 3 43
21 6 20 7 -12 8 -31 1 -38 -3 -38 -17z"/>
<path d="M9008 3253 c7 -3 16 -2 19 1 4 3 -2 6 -13 5 -11 0 -14 -3 -6 -6z"/>
<path d="M7913 3000 c0 -62 2 -73 6 -40 5 37 10 46 29 48 30 4 28 22 -2 22
-19 0 -26 6 -29 28 -2 15 -4 -11 -4 -58z"/>
<path d="M7740 2990 l0 -70 34 0 c19 0 38 5 41 10 4 6 -8 10 -29 10 -32 0 -36
3 -36 25 0 20 5 25 25 25 14 0 25 5 25 10 0 6 -11 10 -25 10 -16 0 -25 6 -25
15 0 10 10 15 29 15 17 0 33 5 36 10 4 6 -10 10 -34 10 l-41 0 0 -70z"/>
<path d="M7842 3000 c1 -47 2 -56 7 -31 4 21 14 37 26 42 19 8 19 8 -2 14 -12
4 -24 14 -26 24 -3 9 -5 -13 -5 -49z"/>
<path d="M8391 3005 c-1 -36 4 -66 11 -73 15 -15 28 -16 28 -2 0 6 -7 10 -15
10 -10 0 -15 11 -15 35 0 24 5 35 15 35 8 0 15 5 15 10 0 6 -6 10 -14 10 -8 0
-17 8 -19 18 -3 9 -5 -10 -6 -43z"/>
<path d="M8030 3021 c0 -5 12 -11 28 -13 24 -4 25 -5 8 -13 -11 -5 -26 -4 -37
4 -17 10 -19 8 -19 -25 0 -21 4 -33 10 -29 6 3 10 13 10 21 0 9 11 14 30 14
31 0 39 17 18 38 -14 14 -48 16 -48 3z"/>
<path d="M8187 3023 c-11 -10 -8 -93 3 -93 6 0 10 18 10 40 0 36 3 40 25 40
22 0 25 -4 27 -42 l1 -43 4 38 c3 21 -1 45 -8 53 -12 14 -51 19 -62 7z"/>
<path d="M8297 3012 c-22 -24 -21 -55 1 -75 22 -20 36 -21 51 -4 8 11 4 13
-20 9 -26 -4 -30 -2 -27 14 2 13 13 20 36 22 37 4 40 12 14 35 -24 22 -35 21
-55 -1z m53 -12 c0 -5 -11 -10 -25 -10 -14 0 -25 5 -25 10 0 6 11 10 25 10 14
0 25 -4 25 -10z"/>
<path d="M8110 2976 c0 -50 19 -64 22 -16 0 17 1 35 2 42 1 6 -5 13 -11 16 -9
2 -13 -10 -13 -42z"/>
<path d="M7983 2970 c0 -25 2 -35 4 -22 2 12 2 32 0 45 -2 12 -4 2 -4 -23z"/>
<path d="M8080 2952 c0 -7 -11 -12 -25 -12 -14 0 -25 -4 -25 -10 0 -16 36 -12
50 5 7 9 10 18 6 22 -3 3 -6 1 -6 -5z"/>
<path d="M7860 2930 c0 -5 4 -10 9 -10 6 0 13 5 16 10 3 6 -1 10 -9 10 -9 0
-16 -4 -16 -10z"/>
<path d="M2240 3091 c0 -11 5 -23 10 -26 6 -4 10 5 10 19 0 14 -4 26 -10 26
-5 0 -10 -9 -10 -19z"/>
<path d="M2280 3067 c1 -34 3 -38 11 -24 12 21 39 23 39 2 0 -8 5 -15 10 -15
19 0 10 16 -25 47 l-35 31 0 -41z"/>
<path d="M2300 3020 c0 -5 7 -10 16 -10 8 0 12 5 9 10 -3 6 -10 10 -16 10 -5
0 -9 -4 -9 -10z"/>
<path d="M710 2930 c0 -5 14 -10 30 -10 17 0 30 5 30 10 0 6 -13 10 -30 10
-16 0 -30 -4 -30 -10z"/>
<path d="M792 2873 c3 -62 5 -68 26 -71 25 -4 52 13 51 32 0 7 -2 6 -6 -1 -2
-7 -16 -13 -29 -13 -22 0 -24 4 -24 50 0 43 3 50 19 50 11 0 23 5 26 10 4 6
-8 10 -30 10 l-36 0 3 -67z"/>
<path d="M910 2917 c0 -15 4 -27 9 -27 5 0 12 -10 14 -22 2 -13 2 -5 0 17 -5
47 -23 73 -23 32z"/>
<path d="M980 2922 c0 -12 -5 -32 -12 -45 -32 -62 -33 -67 -18 -67 6 0 10 7
10 15 0 8 4 15 9 15 10 0 25 89 17 98 -3 3 -6 -4 -6 -16z"/>
<path d="M1033 2917 c-30 -29 -29 -62 2 -92 24 -25 75 -35 75 -15 0 6 -13 10
-28 10 -37 0 -52 17 -52 56 0 34 13 44 56 44 13 0 24 5 24 10 0 19 -55 9 -77
-13z"/>
<path d="M1160 2923 c-13 -15 -12 -16 4 -10 10 4 29 7 42 7 13 0 24 5 24 10 0
16 -54 11 -70 -7z"/>
<path d="M883 2875 c0 -22 2 -30 4 -17 2 12 2 30 0 40 -3 9 -5 -1 -4 -23z"/>
<path d="M670 2874 c0 -14 8 -33 17 -42 16 -16 16 -16 10 1 -4 10 -7 30 -7 43
0 13 -4 24 -10 24 -5 0 -10 -12 -10 -26z"/>
<path d="M1130 2874 c0 -14 8 -33 17 -42 16 -16 16 -16 10 1 -4 10 -7 30 -7
43 0 13 -4 24 -10 24 -5 0 -10 -12 -10 -26z"/>
<path d="M710 2810 c0 -5 14 -10 30 -10 17 0 30 5 30 10 0 6 -13 10 -30 10
-16 0 -30 -4 -30 -10z"/>
<path d="M1170 2810 c0 -5 14 -10 30 -10 17 0 30 5 30 10 0 6 -13 10 -30 10
-16 0 -30 -4 -30 -10z"/>
<path d="M2240 2880 c0 -11 5 -20 10 -20 6 0 10 9 10 20 0 11 -4 20 -10 20 -5
0 -10 -9 -10 -20z"/>
<path d="M2301 2834 c0 -11 3 -14 6 -6 3 7 2 16 -1 19 -3 4 -6 -2 -5 -13z"/>
<path d="M363 2723 c9 -2 25 -2 35 0 9 3 1 5 -18 5 -19 0 -27 -2 -17 -5z"/>
<path d="M331 2704 c0 -11 3 -14 6 -6 3 7 2 16 -1 19 -3 4 -6 -2 -5 -13z"/>
<path d="M443 2705 c-7 -8 -13 -25 -13 -38 0 -14 6 -29 13 -35 9 -8 12 1 12
39 0 27 0 49 0 49 0 -1 -6 -7 -12 -15z"/>
<path d="M377 2673 c14 -3 23 -13 26 -29 4 -21 4 -21 3 3 -1 23 -6 28 -26 29
-20 1 -21 0 -3 -3z"/>
<path d="M343 2603 c9 -2 25 -2 35 0 9 3 1 5 -18 5 -19 0 -27 -2 -17 -5z"/>
<path d="M483 2603 c9 -2 25 -2 35 0 9 3 1 5 -18 5 -19 0 -27 -2 -17 -5z"/>
<path d="M2243 2684 c-3 -8 -1 -20 6 -27 8 -8 11 -4 11 16 0 30 -7 35 -17 11z"/>
<path d="M2281 2684 c0 -11 3 -14 6 -6 3 7 2 16 -1 19 -3 4 -6 -2 -5 -13z"/>
<path d="M2281 2634 c0 -11 3 -14 6 -6 3 7 2 16 -1 19 -3 4 -6 -2 -5 -13z"/>
<path d="M2308 2603 c7 -3 16 -2 19 1 4 3 -2 6 -13 5 -11 0 -14 -3 -6 -6z"/>
<path d="M931 2458 c1 -40 4 -62 6 -48 7 35 19 46 38 30 12 -10 15 -10 15 3 0
9 -10 17 -22 19 -15 2 -24 11 -26 26 -3 18 1 22 22 22 14 0 26 5 26 10 0 6
-13 10 -30 10 l-30 0 1 -72z"/>
<path d="M1070 2520 c0 -5 14 -10 30 -10 17 0 30 5 30 10 0 6 -13 10 -30 10
-16 0 -30 -4 -30 -10z"/>
<path d="M1163 2516 c12 -10 17 -27 17 -65 0 -28 5 -51 10 -51 6 0 10 25 10
55 0 42 3 55 15 55 8 0 15 5 15 10 0 6 -19 10 -42 10 -38 -1 -41 -2 -25 -14z"/>
<path d="M1002 2485 c0 -16 2 -22 5 -12 2 9 2 23 0 30 -3 6 -5 -1 -5 -18z"/>
<path d="M1051 2494 c0 -11 3 -14 6 -6 3 7 2 16 -1 19 -3 4 -6 -2 -5 -13z"/>
<path d="M1070 2470 c0 -5 9 -10 20 -10 11 0 20 5 20 10 0 6 -9 10 -20 10 -11
0 -20 -4 -20 -10z"/>
<path d="M1122 2435 c0 -16 2 -22 5 -12 2 9 2 23 0 30 -3 6 -5 -1 -5 -18z"/>
<path d="M1000 2421 c0 -10 19 -25 25 -20 1 2 -3 10 -11 17 -8 7 -14 8 -14 3z"/>
<path d="M1050 2400 c0 -5 14 -10 30 -10 17 0 30 5 30 10 0 6 -13 10 -30 10
-16 0 -30 -4 -30 -10z"/>
<path d="M2831 2458 c1 -22 3 -26 6 -13 3 11 10 26 15 33 8 9 6 12 -6 12 -12
0 -16 -9 -15 -32z"/>
<path d="M2897 2473 c-4 -3 -7 -15 -7 -25 0 -11 -7 -18 -20 -18 -11 0 -20 -4
-20 -10 0 -5 9 -10 20 -10 11 0 20 5 20 10 0 14 37 12 44 -2 3 -7 3 1 -1 17
-9 45 -19 56 -36 38z"/>
<path d="M3610 2385 c0 -43 4 -75 10 -75 6 0 10 32 10 75 0 43 -4 75 -10 75
-6 0 -10 -32 -10 -75z"/>
<path d="M3210 2425 c-17 -21 4 -45 39 -44 l26 2 -27 4 c-19 3 -28 10 -28 23
0 14 9 20 38 23 l37 4 -36 1 c-22 1 -42 -4 -49 -13z"/>
<path d="M3316 2394 c-3 -9 -5 -28 -5 -42 1 -17 3 -21 6 -9 3 12 15 17 39 17
23 0 34 5 34 14 0 11 -9 14 -32 12 -18 -2 -23 -1 -10 1 29 6 28 23 -2 23 -13
0 -27 -7 -30 -16z"/>
<path d="M3411 2359 c1 -34 4 -43 6 -24 3 17 14 40 26 53 11 12 15 22 9 22 -7
0 -12 -5 -12 -11 0 -8 -5 -8 -15 1 -13 11 -15 5 -14 -41z"/>
<path d="M3483 2360 c0 -30 2 -43 4 -27 2 15 2 39 0 55 -2 15 -4 2 -4 -28z"/>
<path d="M3530 2400 c0 -5 12 -10 28 -11 15 0 20 -3 12 -6 -36 -11 -60 -27
-60 -40 0 -7 5 -13 10 -13 6 0 10 7 10 15 0 9 10 15 26 15 34 0 29 -31 -6 -41
-23 -6 -22 -7 8 -8 30 -1 32 1 32 33 0 19 -3 41 -6 50 -7 17 -54 22 -54 6z"/>
<path d="M3270 2350 c0 -11 5 -20 10 -20 6 0 10 9 10 20 0 11 -4 20 -10 20 -5
0 -10 -9 -10 -20z"/>
<path d="M3218 2313 c12 -2 30 -2 40 0 9 3 -1 5 -23 4 -22 0 -30 -2 -17 -4z"/>
<path d="M3333 2313 c9 -2 23 -2 30 0 6 3 -1 5 -18 5 -16 0 -22 -2 -12 -5z"/>
<path d="M2840 2250 c0 -11 5 -20 10 -20 6 0 10 9 10 20 0 11 -4 20 -10 20 -5
0 -10 -9 -10 -20z"/>
<path d="M2892 2249 c2 -12 12 -25 24 -29 18 -7 20 -5 16 21 -3 21 -10 29 -24
29 -14 0 -19 -6 -16 -21z"/>
<path d="M4077 2502 c-5 -7 -20 -17 -33 -22 -13 -5 -24 -17 -24 -25 0 -31 27
-45 84 -45 l56 0 0 35 c0 36 -15 46 -38 23 -9 -9 -7 -14 6 -24 15 -12 15 -13
1 -14 -22 0 -37 19 -41 55 -2 21 -6 26 -11 17z m0 -56 c-8 -19 -37 -21 -37 -3
0 7 5 18 12 25 15 15 33 -1 25 -22z"/>
<path d="M3960 2464 c0 -9 7 -14 17 -12 25 5 28 28 4 28 -12 0 -21 -6 -21 -16z"/>
<path d="M3978 2433 c-10 -2 -18 -9 -18 -14 0 -15 43 -7 48 9 4 12 0 13 -30 5z"/>
<path d="M4478 2428 c16 -16 16 -90 0 -106 -9 -9 -6 -12 17 -12 23 0 26 3 17
12 -16 16 -16 90 0 106 9 9 6 12 -17 12 -23 0 -26 -3 -17 -12z"/>
<path d="M4547 2433 c-4 -3 -7 -11 -7 -17 0 -7 3 -7 8 0 4 7 18 14 32 17 l25
4 -26 2 c-14 0 -29 -2 -32 -6z"/>
<path d="M4667 2433 c-4 -3 -7 -11 -7 -17 0 -7 3 -7 8 1 4 6 23 13 42 16 l35
4 -36 1 c-20 1 -39 -1 -42 -5z"/>
<path d="M4612 2410 c0 -14 2 -19 5 -12 2 6 2 18 0 25 -3 6 -5 1 -5 -13z"/>
<path d="M4640 2375 c0 -22 4 -34 10 -30 6 3 10 17 10 30 0 13 -4 27 -10 30
-6 4 -10 -8 -10 -30z"/>
<path d="M4565 2359 c-11 -16 -1 -19 13 -3 7 8 8 14 3 14 -5 0 -13 -5 -16 -11z"/>
<path d="M4540 2326 c0 -12 9 -16 43 -15 34 2 36 3 12 6 -16 3 -36 9 -42 15
-10 8 -13 6 -13 -6z"/>
<path d="M4688 2313 c12 -2 30 -2 40 0 9 3 -1 5 -23 4 -22 0 -30 -2 -17 -4z"/>
<path d="M4110 2261 c0 -28 5 -51 10 -51 6 0 10 20 10 44 0 25 -4 48 -10 51
-6 4 -10 -13 -10 -44z"/>
<path d="M3960 2255 c0 -8 7 -15 15 -15 21 0 19 -18 -2 -23 -11 -3 -7 -5 10
-6 29 -1 34 8 15 27 -10 10 -10 15 2 22 12 8 9 10 -12 10 -18 0 -28 -5 -28
-15z"/>
<path d="M4020 2251 c0 -26 24 -43 52 -38 20 4 19 4 -5 6 -36 1 -34 32 3 42
21 6 20 7 -12 8 -31 1 -38 -3 -38 -18z"/>
<path d="M8282 2463 c3 -54 22 -66 57 -36 12 10 31 21 44 25 20 5 20 6 -5 7
-18 1 -28 7 -28 16 0 8 -4 15 -10 15 -5 0 -10 -13 -10 -30 0 -20 -5 -30 -15
-30 -22 0 -20 56 3 69 14 9 13 10 -11 11 -27 0 -28 -1 -25 -47z"/>
<path d="M7560 2385 c0 -30 5 -55 10 -55 6 0 10 25 10 55 0 30 -4 55 -10 55
-5 0 -10 -25 -10 -55z"/>
<path d="M7650 2385 c0 -30 5 -55 10 -55 6 0 10 25 10 55 0 30 -4 55 -10 55
-5 0 -10 -25 -10 -55z"/>
<path d="M7690 2425 c-17 -21 4 -45 39 -44 l26 2 -27 4 c-19 3 -28 10 -28 23
0 14 9 20 38 23 l37 4 -36 1 c-22 1 -42 -4 -49 -13z"/>
<path d="M7790 2375 l0 -65 33 1 c29 1 30 2 7 8 -18 5 -25 14 -25 31 0 17 7
26 25 31 l25 6 -25 4 c-14 2 -25 11 -25 19 0 8 11 17 25 21 23 6 22 7 -7 8
l-33 1 0 -65z"/>
<path d="M7862 2410 c0 -14 2 -19 5 -12 2 6 2 18 0 25 -3 6 -5 1 -5 -13z"/>
<path d="M7750 2350 c0 -11 5 -20 10 -20 6 0 10 9 10 20 0 11 -4 20 -10 20 -5
0 -10 -9 -10 -20z"/>
<path d="M7862 2350 c0 -14 2 -19 5 -12 2 6 2 18 0 25 -3 6 -5 1 -5 -13z"/>
<path d="M8287 2353 c-4 -3 -7 -26 -7 -50 0 -41 2 -43 28 -42 16 1 20 3 10 6
-23 6 -26 73 -3 73 10 0 15 -10 15 -30 0 -16 5 -30 10 -30 15 0 12 49 -4 66
-15 15 -38 18 -49 7z"/>
<path d="M7598 2313 c12 -2 30 -2 40 0 9 3 -1 5 -23 4 -22 0 -30 -2 -17 -4z"/>
<path d="M7703 2313 c9 -2 25 -2 35 0 9 3 1 5 -18 5 -19 0 -27 -2 -17 -5z"/>
<path d="M8379 2309 c-12 -7 -11 -11 4 -26 10 -11 17 -13 17 -5 0 7 7 12 15
12 8 0 15 4 15 9 0 13 -36 20 -51 10z"/>
<path d="M2240 2470 c0 -11 5 -20 10 -20 6 0 10 9 10 20 0 11 -4 20 -10 20 -5
0 -10 -9 -10 -20z"/>
<path d="M2281 2474 c0 -11 3 -14 6 -6 3 7 2 16 -1 19 -3 4 -6 -2 -5 -13z"/>
<path d="M8972 2470 c0 -14 2 -19 5 -12 2 6 2 18 0 25 -3 6 -5 1 -5 -13z"/>
<path d="M9008 2453 c7 -3 16 -2 19 1 4 3 -2 6 -13 5 -11 0 -14 -3 -6 -6z"/>
<path d="M412 2258 l3 -63 35 -2 c29 -2 31 -1 10 5 -22 7 -25 14 -28 60 -3 49
-2 52 20 52 13 0 29 -5 36 -12 15 -15 16 -78 0 -78 -6 0 -8 -3 -5 -6 4 -4 13
-1 22 6 39 32 -4 100 -64 100 l-32 0 3 -62z"/>
<path d="M552 2297 c-12 -13 -22 -33 -22 -44 0 -22 26 -50 37 -39 3 3 1 6 -5
6 -16 0 -15 65 1 78 6 6 26 12 42 15 l30 4 -31 2 c-20 1 -38 -7 -52 -22z"/>
<path d="M583 2193 c9 -2 25 -2 35 0 9 3 1 5 -18 5 -19 0 -27 -2 -17 -5z"/>
<path d="M8985 2293 c-4 -12 -14 -24 -24 -26 -15 -4 -15 -5 0 -6 9 0 20 -11
23 -23 l7 -23 9 23 c5 12 15 22 22 22 7 0 6 5 -4 13 -9 6 -18 19 -21 27 -4 11
-7 10 -12 -7z"/>
<path d="M1017 2133 c-11 -10 -8 -121 3 -128 6 -4 10 13 10 42 0 27 5 54 11
60 6 6 8 16 5 22 -8 12 -20 14 -29 4z"/>
<path d="M1104 2126 c-4 -9 -2 -22 4 -29 6 -7 12 -33 15 -57 3 -36 4 -31 5 22
2 63 -11 97 -24 64z"/>
<path d="M1172 2115 c-22 -26 -30 -75 -12 -75 6 0 10 11 10 24 0 40 11 56 36
56 13 0 24 5 24 10 0 19 -37 10 -58 -15z"/>
<path d="M1300 2125 c-6 -8 -10 -20 -7 -27 4 -8 6 -7 6 5 1 13 10 17 37 17 21
0 33 4 29 10 -9 15 -51 12 -65 -5z"/>
<path d="M1395 2131 c-3 -5 -1 -12 5 -16 14 -9 13 -88 -2 -103 -9 -9 -6 -12
17 -12 23 0 26 3 17 12 -15 15 -16 108 -1 108 5 0 7 5 4 10 -8 13 -32 13 -40
1z"/>
<path d="M1243 2107 c4 -10 7 -30 7 -43 0 -13 5 -24 10 -24 16 0 11 50 -7 68
-16 16 -16 16 -10 -1z"/>
<path d="M1051 2084 c0 -11 3 -14 6 -6 3 7 2 16 -1 19 -3 4 -6 -2 -5 -13z"/>
<path d="M1076 2083 c-3 -10 -9 -24 -12 -30 -3 -7 -1 -13 5 -13 6 0 11 7 11
15 0 8 5 15 10 15 6 0 10 7 10 15 0 21 -16 19 -24 -2z"/>
<path d="M1313 2073 c9 -2 23 -2 30 0 6 3 -1 5 -18 5 -16 0 -22 -2 -12 -5z"/>
<path d="M1362 2045 c0 -16 2 -22 5 -12 2 9 2 23 0 30 -3 6 -5 -1 -5 -18z"/>
<path d="M1190 2010 c0 -5 9 -10 20 -10 11 0 20 5 20 10 0 6 -9 10 -20 10 -11
0 -20 -4 -20 -10z"/>
<path d="M1290 2010 c0 -5 14 -10 30 -10 17 0 30 5 30 10 0 6 -13 10 -30 10
-16 0 -30 -4 -30 -10z"/>
<path d="M8360 2085 c-7 -8 -19 -15 -26 -15 -9 0 -14 -10 -13 -27 0 -17 3 -22
6 -13 9 21 30 40 37 33 12 -12 6 -43 -9 -43 -8 0 -15 -4 -15 -10 0 -5 9 -10
20 -10 17 0 20 7 20 50 0 55 -2 57 -20 35z"/>
<path d="M8280 2040 c0 -11 5 -20 10 -20 6 0 10 9 10 20 0 11 -4 20 -10 20 -5
0 -10 -9 -10 -20z"/>
<path d="M7583 2027 c-31 -30 -29 -58 5 -90 27 -26 72 -37 72 -17 0 6 -13 10
-28 10 -37 0 -52 17 -52 56 0 34 13 44 56 44 13 0 24 5 24 10 0 19 -55 9 -77
-13z"/>
<path d="M7720 2035 c0 -8 7 -15 15 -15 8 0 15 7 15 15 0 8 -7 15 -15 15 -8 0
-15 -7 -15 -15z"/>
<path d="M7807 2043 c-11 -10 -8 -123 3 -123 6 0 10 20 10 44 0 25 5 48 10 51
6 3 10 -4 10 -16 0 -12 3 -20 6 -16 3 3 3 19 -1 36 -6 29 -23 40 -38 24z"/>
<path d="M7890 2001 c0 -47 -13 -68 -23 -38 -2 6 -2 1 0 -13 5 -31 18 -44 32
-36 14 9 15 123 1 131 -6 4 -10 -13 -10 -44z"/>
<path d="M7700 1991 c0 -11 -4 -23 -10 -26 -5 -3 -10 -15 -10 -26 0 -10 5 -19
10 -19 6 0 10 7 10 15 0 10 11 15 35 15 24 0 35 -5 35 -15 0 -8 5 -15 10 -15
6 0 10 9 10 19 0 11 -4 23 -10 26 -5 3 -10 15 -10 26 0 25 -18 25 -22 -1 -2
-12 -7 -21 -13 -21 -5 0 -11 9 -13 21 -4 26 -22 26 -22 1z"/>
<path d="M8360 1945 c-7 -8 -19 -15 -26 -15 -8 0 -14 -10 -14 -25 0 -18 -5
-25 -20 -25 -15 0 -20 7 -20 25 0 14 5 25 11 25 5 0 7 5 4 10 -13 21 -25 9
-25 -24 0 -38 24 -66 42 -48 5 5 15 20 22 33 16 33 36 36 36 5 0 -16 -6 -26
-15 -26 -8 0 -15 -4 -15 -10 0 -5 9 -10 20 -10 17 0 20 7 20 50 0 55 -2 57
-20 35z"/>
<path d="M3977 2064 c-11 -11 -8 -44 3 -44 6 0 10 7 10 15 0 26 19 16 23 -12
l4 -28 2 28 c1 35 21 36 21 0 0 -19 3 -24 11 -16 6 6 9 21 7 34 -2 19 -10 25
-38 27 -20 2 -39 0 -43 -4z"/>
<path d="M4081 2043 c1 -17 3 -21 6 -10 5 21 43 23 43 2 0 -8 -6 -15 -14 -15
-8 0 -18 -4 -21 -10 -4 -6 13 -10 44 -10 36 0 51 4 51 14 0 9 -9 12 -27 9
l-28 -4 24 13 c45 24 37 38 -23 38 -55 0 -56 -1 -55 -27z"/>
<path d="M4210 2035 c0 -8 5 -15 10 -15 6 0 10 7 10 15 0 8 -4 15 -10 15 -5 0
-10 -7 -10 -15z"/>
<path d="M4500 1903 c19 -3 39 -10 43 -16 6 -8 7 -7 4 3 -2 10 -17 15 -43 16
-37 1 -38 1 -4 -3z"/>
<path d="M4570 1835 c0 -48 4 -74 10 -70 6 3 10 15 10 26 0 14 7 19 30 19 17
0 30 5 30 10 0 6 -13 10 -30 10 -28 0 -30 3 -30 35 0 33 2 35 34 35 32 0 35
-3 39 -35 l4 -35 -1 37 c-1 38 -1 38 -48 41 l-48 3 0 -76z"/>
<path d="M4698 1898 c16 -16 16 -110 0 -126 -9 -9 -6 -12 15 -12 15 0 27 5 27
10 0 6 -4 10 -10 10 -14 0 -12 104 2 118 9 9 6 12 -17 12 -23 0 -26 -3 -17
-12z"/>
<path d="M4450 1870 c0 -11 5 -20 10 -20 6 0 10 9 10 20 0 11 -4 20 -10 20 -5
0 -10 -9 -10 -20z"/>
<path d="M3977 1874 c-11 -11 -8 -44 3 -44 6 0 10 7 10 15 0 26 19 16 23 -12
l4 -28 2 28 c1 35 21 36 21 0 0 -19 3 -24 11 -16 6 6 9 21 7 34 -2 19 -10 25
-38 27 -20 2 -39 0 -43 -4z"/>
<path d="M4110 1865 c0 -8 6 -15 14 -15 7 0 19 7 26 15 11 13 8 15 -14 15 -16
0 -26 -5 -26 -15z"/>
<path d="M4181 1853 c1 -17 3 -21 6 -10 5 21 43 23 43 2 0 -8 -7 -15 -15 -15
-8 0 -15 -4 -15 -10 0 -5 9 -10 20 -10 16 0 20 7 20 35 0 32 -2 35 -30 35 -26
0 -30 -3 -29 -27z"/>
<path d="M4081 1844 c0 -11 3 -14 6 -6 3 7 2 16 -1 19 -3 4 -6 -2 -5 -13z"/>
<path d="M4128 1833 c-27 -7 -22 -23 7 -23 16 0 25 6 25 15 0 15 -2 16 -32 8z"/>
<path d="M4502 1833 c30 -3 38 -9 41 -29 4 -21 4 -21 3 3 -1 26 -5 28 -41 29
l-40 1 37 -4z"/>
<path d="M4462 1777 c18 -18 68 -23 68 -7 0 6 -11 10 -24 10 -13 0 -33 3 -43
7 -17 6 -17 6 -1 -10z"/>
<path d="M4092 1658 c2 -17 8 -33 15 -35 8 -3 11 5 8 24 -2 15 -4 31 -4 36 -1
4 -6 7 -12 7 -6 0 -9 -14 -7 -32z"/>
<path d="M3940 1655 c0 -8 6 -15 14 -15 7 0 19 7 26 15 11 13 8 15 -14 15 -16
0 -26 -5 -26 -15z"/>
<path d="M4012 1643 c2 -23 8 -28 31 -29 26 -1 26 -1 2 3 -33 6 -30 34 5 44
23 6 22 7 -8 8 -31 1 -33 -1 -30 -26z"/>
<path d="M3970 1631 c0 -5 -8 -12 -17 -14 -11 -3 -7 -5 10 -6 18 -1 27 4 27
14 0 8 -4 15 -10 15 -5 0 -10 -4 -10 -9z"/>
<path d="M2422 1880 c0 -14 2 -19 5 -12 2 6 2 18 0 25 -3 6 -5 1 -5 -13z"/>
<path d="M2240 1870 c0 -11 5 -20 10 -20 6 0 10 9 10 20 0 11 -4 20 -10 20 -5
0 -10 -9 -10 -20z"/>
<path d="M2370 1825 c-6 -8 -9 -19 -5 -25 8 -13 52 -13 60 0 4 6 -5 10 -19 10
-27 0 -35 15 -13 23 7 4 8 6 1 6 -6 1 -17 -6 -24 -14z"/>
<path d="M1172 1705 c-22 -26 -30 -75 -12 -75 6 0 10 11 10 24 0 44 10 56 47
56 20 0 32 4 28 10 -11 18 -51 10 -73 -15z"/>
<path d="M1270 1655 l0 -65 36 0 c21 0 33 4 29 10 -3 6 -15 10 -26 10 -16 0
-19 7 -19 55 0 30 -4 55 -10 55 -6 0 -10 -28 -10 -65z"/>
<path d="M1363 1655 c0 -38 2 -57 4 -42 3 19 9 27 18 23 14 -5 11 17 -5 39 -5
6 -10 19 -13 30 -2 11 -5 -11 -4 -50z"/>
<path d="M1415 1709 c-11 -16 -1 -19 13 -3 7 8 8 14 3 14 -5 0 -13 -5 -16 -11z"/>
<path d="M1190 1600 c0 -5 14 -10 31 -10 17 0 28 4 24 10 -3 6 -17 10 -31 10
-13 0 -24 -4 -24 -10z"/>
<path d="M9767 1712 c-19 -21 -22 -32 -7 -32 6 0 10 7 10 15 0 11 11 15 36 15
21 0 33 4 29 10 -10 16 -51 11 -68 -8z"/>
<path d="M9860 1660 l0 -70 30 0 c17 0 30 5 30 10 0 6 -11 10 -26 10 -24 0
-25 2 -22 48 3 40 6 47 26 50 33 5 27 22 -8 22 l-30 0 0 -70z"/>
<path d="M9933 1697 c4 -10 7 -30 7 -43 0 -13 5 -24 10 -24 16 0 11 50 -7 68
-16 16 -16 16 -10 -1z"/>
<path d="M9793 1663 c21 -3 27 -10 27 -29 0 -20 -5 -24 -30 -24 -16 0 -30 -4
-30 -10 0 -15 49 -12 66 4 29 30 8 67 -35 65 -26 -2 -26 -2 2 -6z"/>
<path d="M2832 1653 c3 -34 6 -38 31 -39 25 -1 25 -1 2 3 -27 5 -35 39 -13 61
9 9 8 12 -6 12 -14 0 -17 -7 -14 -37z"/>
<path d="M2892 1649 c2 -12 12 -25 24 -29 18 -7 20 -5 16 21 -3 21 -10 29 -24
29 -14 0 -19 -6 -16 -21z"/>
<path d="M3610 1580 c0 -40 4 -70 10 -70 6 0 10 30 10 70 0 40 -4 70 -10 70
-6 0 -10 -30 -10 -70z"/>
<path d="M3213 1625 c-7 -8 -13 -17 -13 -20 0 -14 30 -35 49 -35 16 0 21 -6
21 -25 0 -22 -4 -25 -36 -25 -21 0 -33 -4 -29 -10 17 -27 85 4 85 39 0 19 -26
41 -49 41 -12 0 -21 6 -21 15 0 10 10 15 30 15 17 0 30 5 30 10 0 15 -53 11
-67 -5z"/>
<path d="M3322 1598 c-7 -7 -12 -26 -12 -43 0 -50 35 -71 66 -41 12 13 10 14
-22 9 -32 -5 -36 -4 -32 13 2 13 13 20 36 22 36 4 41 18 15 38 -22 17 -36 17
-51 2z m48 -18 c0 -5 -11 -10 -25 -10 -14 0 -25 5 -25 10 0 6 11 10 25 10 14
0 25 -4 25 -10z"/>
<path d="M3535 1600 c-4 -6 5 -10 19 -10 35 0 33 -20 -1 -21 l-28 -1 25 -7
c35 -10 40 -41 6 -41 -16 0 -26 6 -26 15 0 8 -4 15 -10 15 -5 0 -10 -5 -10
-11 0 -19 28 -39 54 -39 24 0 26 3 26 43 0 43 -13 67 -36 67 -7 0 -16 -4 -19
-10z"/>
<path d="M3412 1545 c1 -40 2 -43 5 -15 3 18 13 42 24 51 19 17 19 17 -6 15
-23 -1 -25 -4 -23 -51z"/>
<path d="M3483 1550 c0 -30 2 -43 4 -27 2 15 2 39 0 55 -2 15 -4 2 -4 -28z"/>
<path d="M2847 1463 c-11 -10 -8 -43 3 -43 6 0 10 11 10 25 0 26 -2 29 -13 18z"/>
<path d="M2897 1463 c-2 -5 -7 -21 -10 -38 -4 -16 -4 -24 -1 -17 3 6 14 12 24
12 10 0 21 -6 24 -12 3 -7 3 1 -1 17 -7 36 -11 45 -23 45 -5 0 -11 -3 -13 -7z"/>
<path d="M7183 1695 c-8 -9 -9 -16 -3 -20 16 -10 12 -45 -5 -52 -23 -8 -31 5
-17 27 10 17 10 20 -4 20 -11 0 -14 -8 -12 -27 3 -27 6 -28 66 -31 l62 -3 0
31 c0 33 -19 40 -40 15 -10 -12 -10 -15 4 -15 9 0 16 -4 16 -10 0 -33 -47 13
-52 51 -2 22 -5 25 -15 14z"/>
<path d="M7070 1655 c0 -8 6 -15 14 -15 7 0 19 7 26 15 11 13 8 15 -14 15 -16
0 -26 -5 -26 -15z"/>
<path d="M6478 1628 c15 -15 16 -90 0 -106 -9 -9 -7 -13 6 -18 20 -8 44 10 27
20 -15 10 -14 89 1 104 9 9 6 12 -17 12 -23 0 -26 -3 -17 -12z"/>
<path d="M6560 1630 c0 -5 9 -10 20 -10 11 0 20 5 20 10 0 6 -9 10 -20 10 -11
0 -20 -4 -20 -10z"/>
<path d="M6680 1630 c0 -5 14 -10 30 -10 17 0 30 5 30 10 0 6 -13 10 -30 10
-16 0 -30 -4 -30 -10z"/>
<path d="M7100 1631 c0 -5 -8 -12 -17 -14 -11 -3 -7 -5 10 -6 18 -1 27 4 27
14 0 8 -4 15 -10 15 -5 0 -10 -4 -10 -9z"/>
<path d="M6611 1604 c0 -11 3 -14 6 -6 3 7 2 16 -1 19 -3 4 -6 -2 -5 -13z"/>
<path d="M6640 1574 c0 -14 8 -33 17 -42 16 -16 16 -16 10 1 -4 10 -7 30 -7
43 0 13 -4 24 -10 24 -5 0 -10 -12 -10 -26z"/>
<path d="M6582 1574 c-7 -8 -8 -14 -3 -14 10 0 25 19 20 25 -2 1 -10 -3 -17
-11z"/>
<path d="M6540 1522 c0 -19 5 -22 40 -22 22 0 40 5 40 10 0 6 -13 10 -28 10
-15 0 -33 5 -40 12 -9 9 -12 7 -12 -10z"/>
<path d="M6680 1510 c0 -5 14 -10 30 -10 17 0 30 5 30 10 0 6 -13 10 -30 10
-16 0 -30 -4 -30 -10z"/>
<path d="M7263 1450 c0 -30 2 -43 4 -27 2 15 2 39 0 55 -2 15 -4 2 -4 -28z"/>
<path d="M7107 1463 c-14 -13 -6 -24 15 -21 27 4 36 28 11 28 -11 0 -23 -3
-26 -7z"/>
<path d="M7170 1449 c0 -11 6 -27 14 -35 16 -16 61 -20 51 -4 -3 6 -15 10 -26
10 -10 0 -19 7 -19 15 0 8 9 15 19 15 11 0 23 5 26 10 4 6 -8 10 -29 10 -30 0
-36 -4 -36 -21z"/>
<path d="M7128 1423 c-24 -6 -23 -23 2 -23 11 0 20 7 20 15 0 8 -1 14 -2 14
-2 -1 -11 -3 -20 -6z"/>
<path d="M8272 1653 c3 -34 6 -38 31 -39 25 -1 25 -1 2 3 -27 5 -35 39 -13 61
9 9 8 12 -6 12 -14 0 -17 -7 -14 -37z"/>
<path d="M8332 1648 c2 -13 10 -23 18 -23 8 0 16 10 18 23 3 17 -2 22 -18 22
-16 0 -21 -5 -18 -22z"/>
<path d="M7983 1580 c0 -47 2 -66 4 -42 2 23 2 61 0 85 -2 23 -4 4 -4 -43z"/>
<path d="M7573 1621 c-10 -15 -9 -22 6 -35 10 -9 25 -16 34 -16 11 0 17 -8 17
-25 0 -21 -5 -25 -30 -25 -16 0 -30 -4 -30 -10 0 -15 49 -12 66 4 29 29 7 76
-35 76 -12 0 -21 6 -21 15 0 10 10 15 29 15 17 0 33 5 36 10 4 6 -7 10 -27 10
-22 0 -37 -7 -45 -19z"/>
<path d="M7682 1598 c-7 -7 -12 -26 -12 -43 0 -17 5 -36 12 -43 15 -15 48 -16
48 -2 0 6 -12 10 -26 10 -40 0 -28 34 14 38 20 2 32 9 32 18 0 11 -4 12 -19 3
-11 -8 -26 -9 -37 -4 -17 8 -16 9 9 13 15 2 27 8 27 13 0 13 -34 11 -48 -3z"/>
<path d="M7895 1600 c-4 -6 5 -10 19 -10 35 0 33 -20 -1 -21 l-28 -1 25 -7
c35 -10 40 -41 6 -41 -16 0 -26 6 -26 15 0 8 -4 15 -10 15 -16 0 -12 -15 9
-34 11 -10 30 -16 43 -14 18 2 24 10 26 36 5 49 -43 95 -63 62z"/>
<path d="M7770 1554 c0 -24 5 -44 10 -44 6 0 10 13 10 29 0 16 7 36 14 44 13
13 12 15 -10 15 -22 0 -24 -5 -24 -44z"/>
<path d="M7843 1550 c0 -30 2 -43 4 -27 2 15 2 39 0 55 -2 15 -4 2 -4 -28z"/>
<path d="M8287 1463 c-11 -10 -8 -43 3 -43 6 0 10 11 10 25 0 26 -2 29 -13 18z"/>
<path d="M8337 1463 c-2 -5 -7 -21 -10 -38 -4 -16 -4 -24 -1 -17 3 6 14 12 24
12 10 0 21 -6 24 -12 3 -7 3 1 -1 17 -7 36 -11 45 -23 45 -5 0 -11 -3 -13 -7z"/>
<path d="M2240 1671 c0 -11 5 -23 10 -26 6 -4 10 5 10 19 0 14 -4 26 -10 26
-5 0 -10 -9 -10 -19z"/>
<path d="M2421 1674 c0 -11 3 -14 6 -6 3 7 2 16 -1 19 -3 4 -6 -2 -5 -13z"/>
<path d="M2385 1650 c-3 -5 1 -10 9 -10 9 0 16 5 16 10 0 6 -4 10 -9 10 -6 0
-13 -4 -16 -10z"/>
<path d="M2421 1624 c0 -11 3 -14 6 -6 3 7 2 16 -1 19 -3 4 -6 -2 -5 -13z"/>
<path d="M8930 1681 c0 -5 -3 -18 -7 -28 -6 -17 -6 -17 10 -1 19 18 22 38 7
38 -5 0 -10 -4 -10 -9z"/>
<path d="M8971 1674 c0 -11 3 -14 6 -6 3 7 2 16 -1 19 -3 4 -6 -2 -5 -13z"/>
<path d="M8971 1624 c0 -11 3 -14 6 -6 3 7 2 16 -1 19 -3 4 -6 -2 -5 -13z"/>
<path d="M9960 1489 c0 -17 27 -39 49 -39 16 0 21 -6 21 -25 0 -22 -4 -25 -36
-25 -21 0 -33 -4 -29 -10 9 -14 48 -13 63 2 27 27 7 78 -30 78 -10 0 -18 7
-18 15 0 8 -4 15 -10 15 -5 0 -10 -5 -10 -11z"/>
<path d="M10060 1454 c0 -14 8 -33 17 -42 16 -16 16 -16 10 1 -4 10 -7 30 -7
43 0 13 -4 24 -10 24 -5 0 -10 -12 -10 -26z"/>
<path d="M10100 1390 c0 -5 14 -10 30 -10 17 0 30 5 30 10 0 6 -13 10 -30 10
-16 0 -30 -4 -30 -10z"/>
<path d="M2240 1481 c0 -11 5 -23 10 -26 6 -4 10 5 10 19 0 14 -4 26 -10 26
-5 0 -10 -9 -10 -19z"/>
<path d="M8992 1452 c-26 -53 -28 -59 -11 -42 15 17 39 56 39 65 0 15 -17 1
-28 -23z"/>
<path d="M8882 1418 c3 -7 20 -14 39 -16 40 -4 30 12 -14 22 -21 5 -28 3 -25
-6z"/>
<path d="M3123 775 c0 -44 2 -61 4 -37 2 23 2 59 0 80 -2 20 -4 1 -4 -43z"/>
<path d="M2830 820 c0 -11 7 -20 15 -20 9 0 15 -10 15 -26 0 -34 -31 -29 -41
6 l-7 25 -1 -27 c-1 -16 -5 -28 -11 -28 -5 0 -10 -11 -10 -25 0 -14 5 -25 10
-25 6 0 10 7 10 15 0 23 67 20 74 -2 3 -10 3 5 0 32 -3 28 -9 52 -13 55 -4 3
-10 13 -14 23 -9 23 -27 22 -27 -3z"/>
<path d="M3365 770 c0 -56 3 -70 15 -70 12 0 15 14 15 70 0 56 -3 70 -15 70
-12 0 -15 -14 -15 -70z"/>
<path d="M2910 750 c0 -61 18 -67 22 -8 2 35 7 43 28 49 21 6 20 7 -12 8 l-38
1 0 -50z"/>
<path d="M3043 793 c9 -2 23 -2 30 0 6 3 -1 5 -18 5 -16 0 -22 -2 -12 -5z"/>
<path d="M3183 793 c9 -2 23 -2 30 0 6 3 -1 5 -18 5 -16 0 -22 -2 -12 -5z"/>
<path d="M3290 791 c19 -5 26 -14 28 -39 3 -29 0 -32 -22 -32 -22 0 -26 4 -26
30 0 17 -4 30 -10 30 -15 0 -12 -49 4 -66 8 -8 24 -14 35 -14 31 0 25 -20 -6
-21 -25 -2 -25 -2 -5 -6 37 -7 52 14 52 73 l0 54 -37 -1 c-33 -1 -34 -2 -13
-8z"/>
<path d="M3432 748 l1 -53 6 45 c5 36 10 45 31 51 23 6 22 7 -7 8 l-33 1 2
-52z"/>
<path d="M2980 739 c0 -24 4 -38 10 -34 6 3 10 22 10 41 0 19 -4 34 -10 34 -5
0 -10 -18 -10 -41z"/>
<path d="M3065 773 c-36 -9 -73 -53 -45 -53 6 0 10 7 10 15 0 9 9 15 25 15 16
0 25 -6 25 -15 0 -8 -9 -15 -19 -15 -11 0 -23 -4 -26 -10 -4 -6 8 -10 29 -10
35 0 36 1 36 40 0 22 -3 39 -7 39 -5 -1 -17 -4 -28 -6z"/>
<path d="M3150 754 c0 -14 6 -32 14 -40 16 -16 61 -20 51 -4 -3 6 -15 10 -26
10 -14 0 -19 7 -19 30 0 17 -4 30 -10 30 -5 0 -10 -12 -10 -26z"/>
<path d="M3220 750 c0 -16 5 -30 10 -30 6 0 10 14 10 30 0 17 -4 30 -10 30 -5
0 -10 -13 -10 -30z"/>
<path d="M3490 746 c0 -19 5 -38 10 -41 6 -4 10 10 10 34 0 23 -4 41 -10 41
-5 0 -10 -15 -10 -34z"/>
<path d="M7657 833 c-11 -11 -8 -135 3 -128 6 3 10 15 10 26 0 12 7 19 18 19
24 0 42 19 42 45 0 12 -5 26 -12 33 -13 13 -50 16 -61 5z m63 -38 c0 -20 -5
-25 -25 -25 -20 0 -25 5 -25 25 0 20 5 25 25 25 20 0 25 -5 25 -25z"/>
<path d="M8052 817 c-39 -41 -18 -117 33 -117 52 0 73 79 32 118 -29 28 -38
28 -65 -1z m66 -9 c7 -7 12 -27 12 -44 0 -36 -23 -50 -66 -40 -45 12 -27 95
22 96 11 0 25 -5 32 -12z"/>
<path d="M8272 775 c0 -47 2 -53 7 -26 4 21 14 37 26 42 16 6 17 8 3 8 -9 1
-22 9 -27 19 -8 13 -10 2 -9 -43z"/>
<path d="M7750 776 c0 -13 6 -36 14 -51 14 -26 15 -26 25 -7 6 12 11 28 11 36
0 9 5 16 10 16 6 0 10 -7 10 -15 0 -8 5 -15 10 -15 13 0 13 3 -4 35 -14 26
-15 26 -25 7 -6 -12 -11 -28 -11 -36 0 -9 -4 -16 -10 -16 -5 0 -10 16 -10 35
0 19 -4 35 -10 35 -5 0 -10 -11 -10 -24z"/>
<path d="M7863 765 c0 -22 2 -30 4 -17 2 12 2 30 0 40 -3 9 -5 -1 -4 -23z"/>
<path d="M7890 749 c0 -31 4 -48 10 -44 6 3 10 24 10 45 0 28 5 40 18 43 10 3
6 5 -10 6 -27 1 -28 -1 -28 -50z"/>
<path d="M7968 793 c7 -3 16 -2 19 1 4 3 -2 6 -13 5 -11 0 -14 -3 -6 -6z"/>
<path d="M8160 764 c0 -44 19 -64 59 -64 30 0 31 1 31 50 0 28 -4 50 -10 50
-5 0 -10 -18 -10 -40 0 -36 -2 -40 -25 -40 -22 0 -25 4 -25 40 0 22 -4 40 -10
40 -5 0 -10 -16 -10 -36z"/>
<path d="M7940 740 c0 -22 5 -40 10 -40 6 0 10 18 10 40 0 22 -4 40 -10 40 -5
0 -10 -18 -10 -40z"/>
<path d="M7990 740 c0 -22 5 -40 10 -40 6 0 10 18 10 40 0 22 -4 40 -10 40 -5
0 -10 -18 -10 -40z"/>
<path d="M7841 714 c0 -11 3 -14 6 -6 3 7 2 16 -1 19 -3 4 -6 -2 -5 -13z"/>
<path d="M8285 710 c-3 -5 1 -10 9 -10 9 0 16 5 16 10 0 6 -4 10 -9 10 -6 0
-13 -4 -16 -10z"/>
<path d="M1370 1105 c-5 -14 -10 -32 -10 -40 0 -8 -4 -17 -10 -20 -5 -3 -9
-18 -9 -33 1 -17 3 -21 6 -9 3 11 14 17 35 17 18 0 37 -8 44 -17 12 -16 13
-16 14 9 0 15 -4 30 -10 33 -5 3 -10 16 -11 28 -1 20 -2 20 -8 -3 -9 -34 -41
-40 -41 -7 0 17 7 26 21 30 12 3 19 11 17 18 -8 24 -28 21 -38 -6z"/>
<path d="M960 855 l0 -65 33 0 c18 0 38 5 45 12 16 16 15 45 0 51 -10 4 -10 7
0 18 15 16 16 29 2 29 -5 0 -10 -7 -10 -15 0 -9 -10 -15 -26 -15 -34 0 -29 31
6 41 21 6 20 7 -12 8 l-38 1 0 -65z m70 -30 c0 -20 -5 -25 -25 -25 -20 0 -25
5 -25 25 0 20 5 25 25 25 20 0 25 -5 25 -25z"/>
<path d="M2401 854 c0 -11 3 -14 6 -6 3 7 2 16 -1 19 -3 4 -6 -2 -5 -13z"/>
<path d="M2377 809 c-4 -16 -3 -18 9 -8 16 13 19 29 5 29 -5 0 -11 -9 -14 -21z"/>
<path d="M8930 870 c0 -5 5 -10 10 -10 6 0 10 5 10 10 0 6 -4 10 -10 10 -5 0
-10 -4 -10 -10z"/>
<path d="M8892 818 c-21 -21 -13 -28 26 -27 31 2 32 3 9 6 -20 3 -27 9 -23 19
7 17 4 18 -12 2z"/>
<path d="M1197 702 c-19 -21 -22 -32 -7 -32 6 0 10 7 10 15 0 11 11 15 36 15
21 0 33 4 29 10 -10 16 -51 11 -68 -8z"/>
<path d="M1292 695 c0 -16 2 -22 5 -12 2 9 2 23 0 30 -3 6 -5 -1 -5 -18z"/>
<path d="M1362 690 c0 -14 2 -19 5 -12 2 6 2 18 0 25 -3 6 -5 1 -5 -13z"/>
<path d="M1420 690 c0 -11 5 -20 10 -20 6 0 10 9 10 20 0 11 -4 20 -10 20 -5
0 -10 -9 -10 -20z"/>
<path d="M1223 653 c21 -3 27 -10 27 -29 0 -20 -5 -24 -30 -24 -16 0 -30 -4
-30 -10 0 -15 49 -12 66 4 29 30 8 67 -35 65 -26 -2 -26 -2 2 -6z"/>
<path d="M1300 646 c0 -7 6 -26 14 -41 14 -27 14 -27 26 -6 6 12 9 32 7 44 -4
18 -5 17 -6 -5 -1 -35 -21 -37 -21 -3 0 14 -4 25 -10 25 -5 0 -10 -6 -10 -14z"/>
<path d="M1370 640 c0 -11 5 -20 10 -20 6 0 10 9 10 20 0 11 -4 20 -10 20 -5
0 -10 -9 -10 -20z"/>
<path d="M1411 638 c0 -14 -6 -28 -12 -30 -7 -2 -10 -11 -7 -18 7 -23 30 26
25 53 -4 19 -4 18 -6 -5z"/>
<path d="M4551 706 c-7 -8 -11 -25 -8 -38 4 -21 4 -21 6 4 0 14 7 28 14 31 6
2 9 7 6 11 -3 4 -12 0 -18 -8z"/>
<path d="M4628 703 c15 -6 16 -45 0 -61 -16 -16 -55 -15 -61 1 -4 7 -6 8 -6 1
-1 -6 6 -17 14 -24 33 -28 103 42 75 75 -7 8 -18 15 -24 14 -7 0 -6 -2 2 -6z"/>
<path d="M4760 669 c0 -27 4 -39 9 -33 15 15 17 66 4 71 -9 3 -13 -8 -13 -38z"/>
<path d="M4160 660 c0 -22 5 -40 10 -40 6 0 10 14 10 30 0 20 5 30 15 30 10 0
15 -10 15 -30 0 -16 5 -30 10 -30 15 0 12 49 -4 66 -8 8 -24 14 -35 14 -18 0
-21 -6 -21 -40z"/>
<path d="M4270 690 c0 -5 5 -10 10 -10 6 0 10 5 10 10 0 6 -4 10 -10 10 -5 0
-10 -4 -10 -10z"/>
<path d="M4382 688 c-30 -30 1 -94 33 -68 8 7 14 24 14 39 l-2 26 -4 -27 c-6
-38 -43 -40 -43 -3 0 16 6 25 15 25 8 0 15 5 15 10 0 14 -13 13 -28 -2z"/>
<path d="M4463 685 c-21 -23 -15 -50 16 -68 16 -9 32 -17 35 -17 3 0 6 23 6
50 0 45 -2 50 -22 50 -13 -1 -29 -7 -35 -15z m37 -30 c0 -16 -6 -25 -15 -25
-9 0 -15 9 -15 25 0 16 6 25 15 25 9 0 15 -9 15 -25z"/>
<path d="M4678 694 c-15 -14 -8 -51 12 -69 30 -28 50 -13 49 37 l-2 43 -6 -35
c-9 -50 -39 -53 -43 -5 -2 20 -6 33 -10 29z"/>
<path d="M4282 666 c-12 -7 -25 -16 -29 -19 -10 -10 18 -37 38 -37 15 0 19 7
19 35 0 19 -1 35 -2 34 -2 -1 -13 -7 -26 -13z m8 -26 c0 -5 -7 -10 -15 -10 -8
0 -15 5 -15 10 0 6 7 10 15 10 8 0 15 -4 15 -10z"/>
<path d="M4475 590 c-3 -5 1 -10 9 -10 9 0 16 5 16 10 0 6 -4 10 -9 10 -6 0
-13 -4 -16 -10z"/>
<path d="M2421 684 c0 -11 3 -14 6 -6 3 7 2 16 -1 19 -3 4 -6 -2 -5 -13z"/>
<path d="M2370 645 c-15 -18 3 -46 29 -44 13 1 13 2 -1 6 -10 2 -18 13 -18 23
0 10 8 21 18 23 14 4 14 5 1 6 -9 0 -22 -6 -29 -14z"/>
<path d="M2421 634 c0 -11 3 -14 6 -6 3 7 2 16 -1 19 -3 4 -6 -2 -5 -13z"/>
<path d="M8930 685 c0 -8 5 -15 10 -15 6 0 10 7 10 15 0 8 -4 15 -10 15 -5 0
-10 -7 -10 -15z"/>
<path d="M9003 654 c28 -9 21 -42 -10 -47 -27 -5 -27 -5 2 -3 25 1 30 5 30 26
0 17 -6 25 -20 27 -16 1 -16 1 -2 -3z"/>
<path d="M8893 635 c-22 -25 -14 -35 25 -34 30 2 32 3 9 6 -22 4 -27 8 -22 24
7 22 5 23 -12 4z"/>
<path d="M9960 256 l0 -66 38 1 c30 2 32 3 10 6 -27 4 -28 7 -28 58 0 30 -4
57 -10 60 -6 4 -10 -18 -10 -59z"/>
<path d="M10050 255 l0 -65 43 1 42 2 -35 6 c-29 5 -35 10 -35 31 0 17 7 26
25 31 25 7 25 7 -3 8 -42 1 -32 34 13 42 l35 6 -42 2 -43 1 0 -65z"/>
<path d="M10150 255 l0 -65 33 1 c29 1 30 2 7 8 -22 6 -25 12 -25 56 0 44 3
50 25 56 23 6 22 7 -7 8 l-33 1 0 -65z"/>
<path d="M10225 250 c0 -37 2 -44 12 -34 17 16 17 70 1 77 -9 3 -13 -9 -13
-43z"/>
<path d="M9520 4490 c0 -5 7 -10 15 -10 8 0 15 -8 16 -17 0 -12 2 -13 6 -5 5
14 -14 42 -28 42 -5 0 -9 -4 -9 -10z"/>
<path d="M9570 4490 c0 -5 11 -10 25 -10 20 0 25 -5 25 -25 0 -14 -4 -25 -10
-25 -5 0 -10 -5 -10 -11 0 -8 5 -8 15 1 18 15 20 51 3 68 -15 15 -48 16 -48 2z"/>
<path d="M9502 4455 c0 -16 2 -22 5 -12 2 9 2 23 0 30 -3 6 -5 -1 -5 -18z"/>
<path d="M1992 4395 c0 -38 2 -63 5 -55 2 8 7 21 9 29 4 11 9 10 27 -5 22 -19
22 -19 5 2 -10 11 -18 24 -18 29 0 5 8 18 18 29 17 21 17 21 -5 2 -18 -15 -23
-16 -27 -5 -2 8 -7 21 -9 29 -3 8 -5 -16 -5 -55z"/>
<path d="M2098 4448 c7 -7 12 -30 12 -53 0 -23 -5 -46 -12 -53 -9 -9 -6 -12
17 -12 23 0 26 3 17 12 -7 7 -12 30 -12 53 0 23 5 46 12 53 9 9 6 12 -17 12
-23 0 -26 -3 -17 -12z"/>
<path d="M2173 4453 c14 -4 17 -16 17 -64 0 -33 4 -59 10 -59 6 0 10 25 10 55
0 41 4 56 18 64 13 8 7 10 -28 10 -25 -1 -37 -3 -27 -6z"/>
<path d="M2292 4448 c-9 -11 -10 -18 -2 -23 14 -9 13 -68 -2 -83 -9 -9 -6 -12
16 -12 22 0 26 3 18 13 -6 7 -12 37 -14 66 -3 46 -5 52 -16 39z"/>
<path d="M9528 4383 c12 -2 22 -9 22 -14 0 -5 11 -9 25 -9 14 0 25 -4 25 -10
0 -5 -12 -10 -27 -10 -14 0 -24 -3 -20 -6 8 -8 77 5 77 14 0 11 -55 33 -92 36
-18 2 -23 1 -10 -1z"/>
<path d="M9500 4320 c0 -5 12 -10 26 -10 14 0 23 4 19 10 -3 6 -15 10 -26 10
-10 0 -19 -4 -19 -10z"/>
<path d="M9528 4283 c7 -3 16 -2 19 1 4 3 -2 6 -13 5 -11 0 -14 -3 -6 -6z"/>
<path d="M9583 4283 c9 -2 23 -2 30 0 6 3 -1 5 -18 5 -16 0 -22 -2 -12 -5z"/>
<path d="M9503 4246 c1 -17 9 -31 17 -33 10 -3 11 -2 4 4 -7 4 -14 19 -17 33
-4 22 -5 21 -4 -4z"/>
<path d="M9551 4254 c0 -11 3 -14 6 -6 3 7 2 16 -1 19 -3 4 -6 -2 -5 -13z"/>
<path d="M9621 4248 c0 -14 -7 -29 -13 -31 -10 -4 -10 -6 0 -6 16 -1 25 22 19
46 -3 12 -5 9 -6 -9z"/>
<path d="M812 3655 c0 -16 2 -22 5 -12 2 9 2 23 0 30 -3 6 -5 -1 -5 -18z"/>
<path d="M898 3654 c-5 -4 -8 -16 -8 -26 0 -11 -7 -18 -20 -18 -11 0 -20 -4
-20 -10 0 -5 9 -10 20 -10 13 0 20 -7 20 -19 0 -11 5 -23 10 -26 6 -4 10 5 10
19 0 21 5 26 25 26 14 0 25 5 25 10 0 6 -11 10 -24 10 -19 0 -25 6 -28 26 -2
14 -6 22 -10 18z"/>
<path d="M761 3602 c0 -13 4 -32 10 -44 10 -19 11 -19 25 7 16 32 18 55 4 55
-5 0 -10 -11 -10 -25 0 -34 -18 -32 -23 3 -3 23 -4 23 -6 4z"/>
<path d="M420 3600 c0 -5 14 -10 30 -10 17 0 30 5 30 10 0 6 -13 10 -30 10
-16 0 -30 -4 -30 -10z"/>
<path d="M500 3538 c0 -86 15 -80 24 10 5 51 3 62 -9 62 -12 0 -15 -15 -15
-72z"/>
<path d="M620 3540 l0 -70 29 0 c16 0 33 6 40 13 8 11 5 13 -19 9 -30 -4 -30
-4 -30 47 0 48 2 51 25 51 14 0 25 -5 25 -12 0 -6 3 -8 6 -5 13 13 -19 37 -47
37 l-29 0 0 -70z"/>
<path d="M393 3574 c-15 -15 -18 -64 -4 -64 7 0 22 69 17 76 -1 1 -7 -4 -13
-12z"/>
<path d="M534 3558 c3 -7 9 -21 12 -30 4 -10 11 -18 16 -18 5 0 7 6 4 13 -3 6
-9 20 -12 30 -4 9 -11 17 -16 17 -5 0 -7 -6 -4 -12z"/>
<path d="M712 3540 c0 -19 2 -27 5 -17 2 9 2 25 0 35 -3 9 -5 1 -5 -18z"/>
<path d="M435 3530 c3 -5 13 -10 21 -10 23 0 11 -25 -14 -28 -33 -5 -26 -22 8
-22 28 0 30 3 30 35 0 31 -3 35 -26 35 -14 0 -23 -4 -19 -10z"/>
</g>
</svg>
