<?xml version="1.0" standalone="no"?>
<!DOCTYPE svg PUBLIC "-//W3C//DTD SVG 20010904//EN"
 "http://www.w3.org/TR/2001/REC-SVG-20010904/DTD/svg10.dtd">
<svg version="1.0" xmlns="http://www.w3.org/2000/svg"
 width="225.000000pt" height="225.000000pt" viewBox="0 0 225.000000 225.000000"
 preserveAspectRatio="xMidYMid meet">

<g transform="translate(0.000000,225.000000) scale(0.100000,-0.100000)"
fill="#ffffff" stroke="none">
<path d="M207 2229 c-115 -27 -190 -122 -189 -240 1 -208 259 -312 407 -164
115 116 82 311 -65 385 -45 22 -105 30 -153 19z"/>
<path d="M1225 2149 c-284 -36 -582 -238 -728 -491 -15 -25 -41 -88 -58 -139
l-31 -92 492 -492 492 -492 57 14 c276 71 530 331 637 653 26 78 28 97 28 240
0 142 -2 162 -27 235 -69 207 -239 397 -440 495 -130 62 -280 87 -422 69z"/>
<path d="M403 1168 c3 -40 17 -112 31 -161 30 -101 35 -230 12 -275 -19 -37
-83 -96 -259 -236 -149 -120 -177 -152 -177 -204 0 -76 104 -203 195 -237 88
-34 115 -16 276 185 112 141 176 211 213 235 47 30 175 27 285 -9 46 -14 118
-29 160 -32 l76 -6 -405 406 c-223 223 -407 406 -409 406 -2 0 -1 -33 2 -72z"/>
</g>
</svg>
