<?xml version="1.0" standalone="no"?>
<!DOCTYPE svg PUBLIC "-//W3C//DTD SVG 20010904//EN"
 "http://www.w3.org/TR/2001/REC-SVG-20010904/DTD/svg10.dtd">
<svg version="1.0" xmlns="http://www.w3.org/2000/svg"
 width="235.000000pt" height="495.000000pt" viewBox="0 0 235.000000 495.000000"
 preserveAspectRatio="xMidYMid meet">

<g transform="translate(0.000000,495.000000) scale(0.100000,-0.100000)"
fill="#ff0000" stroke="none">
<path d="M0 2491 c0 -1353 3 -2466 6 -2475 6 -14 117 -16 1159 -16 1103 0
1153 1 1168 18 16 17 17 203 17 2475 l0 2457 -112 0 -113 -1 47 -23 c26 -12
56 -34 68 -47 20 -23 60 -93 60 -104 0 -3 -134 -5 -297 -4 -164 0 -289 4 -278
8 36 15 74 62 80 100 3 20 10 44 16 54 9 16 -25 17 -649 17 l-659 0 13 -51 c8
-29 21 -63 30 -76 34 -53 20 -52 911 -59 584 -5 830 -10 835 -18 4 -6 8 -1022
8 -2258 0 -2035 -2 -2252 -16 -2295 -23 -68 -56 -107 -116 -137 l-52 -26 -950
0 c-640 0 -964 4 -989 11 -52 14 -110 69 -136 129 l-21 49 2 2283 3 2283 22
40 c27 51 57 79 113 104 l45 21 -107 0 -108 0 0 -2459z"/>
<path d="M640 4699 c0 -27 2 -30 16 -18 13 10 17 10 24 -1 6 -10 9 -8 13 6 4
16 5 17 6 2 1 -14 10 -18 41 -18 31 0 40 4 41 18 0 14 2 14 7 2 4 -8 17 -16
30 -18 16 -2 22 2 22 16 0 17 -8 20 -72 21 -40 1 -75 5 -78 9 -3 4 -15 8 -27
10 -20 3 -23 -1 -23 -29z"/>
<path d="M873 4699 c0 -29 2 -30 14 -13 7 10 13 24 13 31 0 7 -6 13 -13 13 -9
0 -14 -12 -14 -31z"/>
<path d="M928 4700 c-5 -34 -2 -36 24 -13 15 13 18 14 18 1 0 -10 13 -15 45
-17 39 -2 45 1 45 19 0 24 -30 27 -31 3 0 -15 -2 -15 -8 2 l-8 20 -5 -20 -6
-20 -1 20 c-1 17 -3 18 -11 5 -8 -12 -10 -11 -10 5 0 14 -7 21 -24 23 -19 1
-25 -4 -28 -28z"/>
<path d="M1158 4716 c-35 -26 -22 -42 37 -44 42 -1 55 2 55 13 0 8 -6 15 -12
15 -10 0 -9 3 1 9 9 6 10 10 2 16 -7 4 -18 1 -26 -5 -11 -9 -15 -9 -15 -1 0
15 -21 13 -42 -3z m32 -21 c0 -8 -4 -15 -10 -15 -5 0 -10 7 -10 15 0 8 5 15
10 15 6 0 10 -7 10 -15z m45 -13 c-3 -3 -11 0 -18 7 -9 10 -8 11 6 5 10 -3 15
-9 12 -12z"/>
<path d="M1287 4723 c-2 -5 -1 -19 4 -33 7 -23 7 -23 8 8 1 31 -3 40 -12 25z"/>
<path d="M1317 4724 c-4 -4 -7 -18 -7 -31 0 -18 6 -23 24 -23 21 0 23 3 17 27
-7 27 -22 39 -34 27z m23 -23 c0 -6 -4 -13 -10 -16 -5 -3 -10 1 -10 9 0 9 5
16 10 16 6 0 10 -4 10 -9z"/>
<path d="M1377 4724 c-4 -4 -7 -18 -7 -31 0 -18 5 -24 18 -21 10 2 17 12 17
27 0 24 -15 37 -28 25z m10 -36 c-3 -8 -6 -5 -6 6 -1 11 2 17 5 13 3 -3 4 -12
1 -19z"/>
<path d="M1437 4723 c-11 -10 -8 -51 3 -58 6 -4 10 8 10 29 0 37 -2 41 -13 29z"/>
<path d="M1467 4723 c-2 -5 -1 -19 4 -33 7 -23 7 -23 8 8 1 31 -3 40 -12 25z"/>
<path d="M1501 4712 c-7 -13 -10 -27 -6 -30 4 -4 48 -7 98 -8 51 0 102 -4 113
-8 26 -8 39 16 24 42 -8 14 -10 11 -10 -13 -1 -29 -2 -29 -11 -7 -5 13 -7 28
-3 33 3 5 -2 9 -11 9 -8 0 -20 -10 -25 -22 -9 -23 -9 -23 -10 2 l-1 25 -19
-24 c-15 -17 -20 -19 -20 -8 0 21 -19 32 -33 18 -8 -8 -8 -11 2 -11 7 0 9 -4
6 -10 -3 -5 -1 -10 6 -10 7 0 10 -2 7 -5 -10 -11 -36 7 -43 28 -6 21 -7 21
-20 -8 -13 -30 -16 -28 -28 15 -3 11 -7 9 -16 -8z"/>
<path d="M622 4690 c0 -14 2 -19 5 -12 2 6 2 18 0 25 -3 6 -5 1 -5 -13z"/>
<path d="M1080 4690 c0 -5 9 -10 20 -10 11 0 20 5 20 10 0 6 -9 10 -20 10 -11
0 -20 -4 -20 -10z"/>
<path d="M333 4593 c-17 -14 -17 -14 0 -9 10 3 16 2 13 -2 -2 -4 -1 -14 4 -22
8 -13 12 -12 24 5 9 11 16 23 16 26 0 15 -40 16 -57 2z"/>
<path d="M2150 4581 c0 -29 1 -29 60 -33 64 -3 79 7 60 43 -9 15 -22 19 -65
19 -54 0 -55 -1 -55 -29z"/>
<path d="M92 4573 c3 -23 8 -28 36 -29 28 -1 33 1 30 20 -2 11 -8 21 -15 21
-6 0 -15 3 -19 8 -18 17 -35 6 -32 -20z m35 0 c2 -6 -3 -13 -12 -16 -10 -5
-15 0 -15 14 0 21 21 22 27 2z"/>
<path d="M208 4589 c-10 -6 -18 -17 -18 -24 0 -21 18 -19 23 3 4 14 5 13 6 -3
1 -13 8 -21 21 -22 11 -1 18 2 15 8 -4 5 -1 9 4 9 6 0 11 -6 11 -12 0 -7 6 -2
13 12 15 29 4 38 -20 18 -14 -11 -16 -11 -8 1 6 11 4 13 -8 8 -9 -3 -17 -2
-19 3 -2 5 -11 4 -20 -1z"/>
<path d="M1066 4592 c-3 -5 -4 -17 -2 -28 4 -29 31 -23 34 9 2 19 -1 27 -12
27 -8 0 -17 -4 -20 -8z"/>
<path d="M1130 4592 c0 -4 5 -13 12 -20 9 -9 9 -12 -1 -12 -7 0 -9 -5 -6 -10
11 -18 34 8 28 30 -5 19 -33 29 -33 12z"/>
<path d="M1179 4591 c10 -7 11 -13 2 -30 -8 -14 -8 -21 -1 -21 5 0 10 3 10 8
0 4 3 17 6 30 5 17 2 22 -12 22 -15 0 -16 -2 -5 -9z"/>
<path d="M1230 4569 c0 -27 2 -29 15 -15 8 8 15 22 15 30 0 9 -7 16 -15 16
-10 0 -15 -10 -15 -31z"/>
<path d="M1270 4568 c0 -22 3 -29 9 -20 4 8 12 14 16 14 4 0 12 -6 16 -14 6
-8 9 -1 9 22 -1 33 -2 34 -15 16 -13 -17 -15 -18 -15 -3 0 9 -4 17 -10 17 -5
0 -10 -15 -10 -32z"/>
<path d="M170 4565 c0 -14 2 -25 4 -25 2 0 6 11 8 25 3 14 1 25 -3 25 -5 0 -9
-11 -9 -25z"/>
<path d="M626 4004 c-9 -24 -7 -32 7 -30 6 0 12 -3 12 -9 0 -5 -6 -9 -13 -7
-8 2 -11 -1 -7 -7 10 -17 35 -13 42 5 4 11 -1 22 -12 30 -10 8 -13 14 -7 14 7
0 12 5 12 10 0 16 -27 11 -34 -6z"/>
<path d="M702 3983 c2 -31 7 -39 26 -41 21 -3 23 0 20 35 -2 31 -7 39 -26 41
-21 3 -23 0 -20 -35z m35 11 c-3 -3 -12 -4 -19 -1 -8 3 -5 6 6 6 11 1 17 -2
13 -5z m3 -34 c0 -5 -7 -10 -15 -10 -8 0 -15 5 -15 10 0 6 7 10 15 10 8 0 15
-4 15 -10z"/>
<path d="M878 3999 c-16 -11 -28 -16 -28 -10 0 6 -9 11 -20 11 -16 0 -20 -6
-19 -32 1 -24 3 -27 6 -10 5 26 23 30 23 5 0 -13 9 -19 35 -20 35 -3 35 -3 35
37 0 22 -1 40 -2 40 -2 0 -15 -10 -30 -21z m12 -35 c0 -8 -4 -12 -10 -9 -5 3
-10 10 -10 16 0 5 5 9 10 9 6 0 10 -7 10 -16z"/>
<path d="M941 3978 c1 -24 3 -35 6 -25 6 21 12 22 28 0 10 -14 12 -10 11 23
-1 32 -5 40 -23 42 -21 3 -23 0 -22 -40z m39 12 c0 -5 -7 -10 -15 -10 -8 0
-15 5 -15 10 0 6 7 10 15 10 8 0 15 -4 15 -10z"/>
<path d="M1310 4006 c-7 -9 -10 -26 -6 -41 6 -23 10 -24 64 -22 31 1 60 7 64
12 5 6 8 6 8 -2 0 -7 17 -11 45 -11 44 0 45 0 44 31 -1 21 -3 25 -6 12 -8 -33
-23 -42 -23 -13 0 21 -5 26 -27 26 -16 0 -31 -5 -35 -12 -5 -6 -8 0 -8 14 -1
21 -2 23 -13 10 -7 -9 -20 -14 -29 -12 -11 2 -18 -3 -18 -12 0 -23 -40 -42
-51 -25 -13 21 -5 34 20 33 12 0 20 4 18 10 -6 17 -33 18 -47 2z m168 -38 c-6
-18 -28 -21 -28 -4 0 9 7 16 16 16 9 0 14 -5 12 -12z"/>
<path d="M1543 3980 c0 -25 2 -35 4 -22 2 12 2 32 0 45 -2 12 -4 2 -4 -23z"/>
<path d="M1167 4003 c-3 -5 -3 -20 0 -34 4 -24 9 -27 49 -25 33 1 44 5 44 16
0 9 5 21 12 28 9 9 2 11 -32 9 -37 -2 -45 -6 -52 -27 -7 -24 -8 -24 -4 3 3 27
-8 45 -17 30z m61 -34 c-2 -6 -8 -10 -13 -10 -5 0 -11 4 -13 10 -2 6 4 11 13
11 9 0 15 -5 13 -11z"/>
<path d="M1608 4005 c-7 -8 3 -54 13 -61 5 -3 9 6 9 20 0 14 0 29 1 33 1 10
-16 15 -23 8z"/>
<path d="M769 3998 c-11 -45 -8 -58 11 -58 17 0 21 5 18 27 -2 14 -9 28 -15
31 -7 2 -13 2 -14 0z"/>
<path d="M997 3985 c-13 -33 21 -63 39 -33 5 8 2 9 -9 5 -10 -3 -17 -2 -17 3
0 6 7 10 16 10 20 0 13 24 -8 28 -9 2 -18 -4 -21 -13z"/>
<path d="M1050 3987 c0 -7 6 -19 13 -26 10 -11 10 -13 0 -7 -7 4 -13 2 -13 -3
0 -14 27 -14 35 0 4 6 -1 17 -11 25 -18 14 -18 14 0 7 13 -4 17 -3 12 5 -10
16 -36 15 -36 -1z"/>
<path d="M1100 3973 c0 -13 8 -24 20 -28 32 -10 44 4 23 28 -10 11 -12 17 -5
13 6 -4 12 -2 12 3 0 6 -11 10 -25 9 -19 -2 -25 -8 -25 -25z m35 -13 c3 -6 -1
-7 -9 -4 -18 7 -21 14 -7 14 6 0 13 -4 16 -10z"/>
<path d="M1569 3998 c-11 -45 -8 -58 11 -58 17 0 21 5 18 27 -2 14 -9 28 -15
31 -7 2 -13 2 -14 0z m21 -38 c0 -5 -5 -10 -11 -10 -5 0 -7 5 -4 10 3 6 8 10
11 10 2 0 4 -4 4 -10z"/>
<path d="M1644 3985 c-10 -26 4 -45 32 -43 22 2 44 28 44 54 0 10 -29 3 -33
-8 -4 -10 -6 -10 -6 0 -1 17 -30 15 -37 -3z m26 -21 c0 -8 -4 -12 -10 -9 -5 3
-10 10 -10 16 0 5 5 9 10 9 6 0 10 -7 10 -16z"/>
<path d="M755 3360 c-3 -6 1 -7 9 -4 20 8 20 0 0 -31 -16 -24 -15 -25 7 -25
17 0 20 3 10 9 -9 6 -10 11 -2 15 16 10 13 46 -3 46 -8 0 -18 -4 -21 -10z"/>
<path d="M807 3363 c-3 -4 -5 -21 -5 -36 0 -23 4 -28 22 -25 16 2 21 10 21 33
0 28 -26 48 -38 28z m27 -24 c-3 -5 -10 -7 -15 -3 -5 3 -7 10 -3 15 3 5 10 7
15 3 5 -3 7 -10 3 -15z"/>
<path d="M867 3364 c-4 -4 -7 -20 -7 -35 0 -26 3 -28 35 -27 20 1 32 4 26 7
-5 3 -11 17 -12 31 -4 24 -28 38 -42 24z m23 -29 c0 -14 -4 -25 -10 -25 -11 0
-14 33 -3 43 11 11 13 8 13 -18z"/>
<path d="M935 3351 c-3 -10 -3 -26 1 -35 8 -21 44 -21 44 1 0 15 1 15 14 -2
18 -25 46 -13 46 20 0 33 -28 45 -46 20 -13 -17 -14 -17 -14 -2 0 23 -37 22
-45 -2z m35 -16 c0 -14 -4 -25 -10 -25 -5 0 -10 11 -10 25 0 14 5 25 10 25 6
0 10 -11 10 -25z m52 -17 c-13 -13 -26 8 -17 30 6 16 7 16 17 -1 7 -13 7 -22
0 -29z"/>
<path d="M1051 3333 c0 -31 2 -34 9 -18 7 17 9 17 9 3 1 -25 20 -22 31 5 9 22
9 22 10 -3 1 -23 2 -23 10 -5 7 17 9 17 9 3 1 -10 5 -18 10 -18 6 0 9 12 8 26
-1 15 4 29 12 32 10 3 13 -3 9 -27 -3 -20 0 -31 7 -31 10 0 13 31 7 63 -3 12
-52 8 -52 -5 0 -9 -4 -8 -10 2 -9 13 -11 13 -20 0 -5 -8 -10 -22 -10 -30 -1
-8 -7 -3 -16 13 -20 36 -24 34 -23 -10z"/>
<path d="M1224 3344 c-4 -14 -2 -35 3 -47 8 -17 10 -12 10 26 0 53 -4 59 -13
21z"/>
<path d="M1310 3360 c0 -5 7 -7 15 -4 19 8 19 -1 -1 -31 -16 -24 -15 -25 7
-25 17 0 20 3 10 9 -9 6 -10 11 -2 15 19 12 13 46 -9 46 -11 0 -20 -4 -20 -10z"/>
<path d="M1387 3363 c-4 -3 -7 -16 -7 -29 0 -12 -6 -24 -12 -26 -7 -3 4 -5 24
-6 27 -1 38 3 41 16 4 16 5 16 6 0 1 -20 36 -25 46 -7 4 5 4 21 1 35 -8 28
-46 34 -46 7 -1 -17 -1 -17 -11 0 -10 17 -30 22 -42 10z m33 -34 c0 -10 -4
-19 -10 -19 -5 0 -10 12 -10 26 0 14 4 23 10 19 6 -3 10 -15 10 -26z m50 6 c0
-14 -4 -25 -10 -25 -11 0 -14 33 -3 43 11 11 13 8 13 -18z"/>
<path d="M1520 3356 c0 -8 6 -16 13 -19 9 -3 9 -7 -1 -19 -11 -14 -8 -15 20
-13 45 4 45 4 24 20 -16 12 -17 17 -6 30 8 10 9 15 1 15 -6 0 -11 -5 -11 -12
0 -9 -3 -9 -12 0 -16 16 -28 15 -28 -2z"/>
<path d="M1595 3325 c0 -24 3 -41 8 -38 4 2 7 19 7 38 0 19 -3 36 -7 38 -5 3
-8 -14 -8 -38z"/>
<path d="M1261 3340 c-10 -5 -9 -8 2 -13 7 -3 19 -2 26 3 10 5 9 8 -2 13 -7 3
-19 2 -26 -3z"/>
<path d="M1263 3303 c9 -2 23 -2 30 0 6 3 -1 5 -18 5 -16 0 -22 -2 -12 -5z"/>
<path d="M620 2915 c0 -8 9 -15 20 -15 15 0 20 -7 20 -24 0 -30 -16 -42 -35
-26 -13 10 -15 8 -15 -14 l0 -26 160 0 161 0 -3 58 -3 57 -152 3 c-132 2 -153
0 -153 -13z"/>
<path d="M630 2869 c0 -11 5 -17 10 -14 6 3 10 13 10 21 0 8 -4 14 -10 14 -5
0 -10 -9 -10 -21z"/>
<path d="M1031 2867 c-13 -21 -12 -21 5 -5 10 10 16 20 13 22 -3 3 -11 -5 -18
-17z"/>
<path d="M1611 2878 c-1 -10 6 -18 14 -18 8 0 15 5 15 11 0 5 -4 8 -9 5 -5 -4
-12 0 -14 6 -3 8 -6 6 -6 -4z"/>
<path d="M1423 2867 c0 -8 6 -14 14 -14 9 0 10 4 2 14 -6 7 -12 13 -14 13 -1
0 -2 -6 -2 -13z"/>
<path d="M1420 2710 l0 -80 161 0 162 0 -7 53 c-3 28 -6 64 -6 80 l0 27 -155
0 -155 0 0 -80z"/>
<path d="M617 2743 c-2 -5 0 -21 4 -38 7 -29 7 -29 8 8 1 35 -3 46 -12 30z"/>
<path d="M1020 2725 c-13 -35 -13 -42 3 -48 23 -8 36 7 34 38 -3 37 -24 44
-37 10z m25 5 c3 -5 1 -10 -4 -10 -6 0 -11 5 -11 10 0 6 2 10 4 10 3 0 8 -4
11 -10z m0 -30 c3 -5 -1 -10 -10 -10 -9 0 -13 5 -10 10 3 6 8 10 10 10 2 0 7
-4 10 -10z"/>
<path d="M1890 2740 c-9 -6 -10 -10 -3 -10 6 0 14 -12 16 -27 3 -23 4 -21 6
10 0 20 0 37 -1 37 -2 0 -10 -5 -18 -10z"/>
<path d="M1925 2740 c-4 -6 -1 -17 5 -25 6 -8 8 -20 4 -27 -5 -10 -4 -10 6 -1
11 10 16 9 26 -5 12 -16 13 -16 20 1 8 21 3 28 -24 30 -11 0 -18 6 -15 13 6
16 -14 28 -22 14z"/>
<path d="M1967 2743 c-4 -3 -7 -11 -7 -17 0 -6 5 -5 12 2 6 6 9 14 7 17 -3 3
-9 2 -12 -2z"/>
<path d="M1834 2700 c0 -15 7 -20 26 -20 18 0 21 3 11 9 -7 5 -10 14 -7 20 4
7 0 11 -11 11 -12 0 -19 -7 -19 -20z"/>
<path d="M678 2633 c45 -2 119 -2 165 0 45 1 8 3 -83 3 -91 0 -128 -2 -82 -3z"/>
<path d="M1088 2633 c45 -2 119 -2 165 0 45 1 8 3 -83 3 -91 0 -128 -2 -82 -3z"/>
<path d="M1908 2633 c45 -2 119 -2 165 0 45 1 8 3 -83 3 -91 0 -128 -2 -82 -3z"/>
<path d="M187 2614 c-4 -4 -7 -45 -7 -91 l0 -83 170 0 171 0 -3 88 -3 87 -161
3 c-88 1 -163 -1 -167 -4z m10 -96 c-3 -8 -6 -5 -6 6 -1 11 2 17 5 13 3 -3 4
-12 1 -19z m40 0 c-3 -8 -6 -5 -6 6 -1 11 2 17 5 13 3 -3 4 -12 1 -19z"/>
<path d="M600 2530 l0 -90 160 0 160 0 0 90 0 90 -160 0 -160 0 0 -90z"/>
<path d="M1827 2613 c-4 -3 -7 -44 -7 -90 l0 -83 165 0 165 0 0 90 0 90 -158
0 c-87 0 -162 -3 -165 -7z"/>
<path d="M1420 2525 l0 -85 160 0 160 0 0 85 0 85 -160 0 -160 0 0 -85z"/>
<path d="M1015 2548 c-9 -25 2 -53 21 -53 26 0 27 58 1 63 -9 2 -19 -2 -22
-10z m33 -23 c0 -16 -6 -25 -17 -25 -13 0 -13 2 -2 9 9 6 10 11 2 15 -15 10
-14 26 3 26 8 0 14 -10 14 -25z"/>
<path d="M205 2349 c12 -39 27 -48 23 -15 -2 16 -9 31 -17 34 -10 3 -11 -2 -6
-19z"/>
<path d="M636 2344 c7 -37 16 -47 12 -12 -2 15 -7 30 -11 34 -3 3 -4 -6 -1
-22z"/>
<path d="M1915 2340 c0 -15 3 -26 8 -23 4 2 7 13 7 23 0 10 -3 21 -7 23 -5 3
-8 -8 -8 -23z"/>
<path d="M1967 2363 c-12 -11 -8 -23 7 -23 8 0 17 -8 19 -17 4 -14 5 -12 6 5
1 14 -5 22 -15 22 -8 0 -12 5 -9 10 7 11 2 13 -8 3z"/>
<path d="M2014 2359 c3 -19 34 -19 48 -1 12 15 11 16 -4 3 -15 -11 -18 -11
-18 0 0 12 -2 12 -9 0 -6 -9 -10 -10 -14 -2 -4 8 -5 8 -3 0z"/>
<path d="M1424 2330 c0 -9 6 -17 13 -17 7 0 13 8 13 17 0 9 -6 17 -13 17 -7 0
-13 -8 -13 -17z"/>
<path d="M1845 2340 c-3 -5 -1 -10 4 -10 6 0 11 5 11 10 0 6 -2 10 -4 10 -3 0
-8 -4 -11 -10z"/>
<path d="M1880 2336 c0 -8 4 -17 9 -20 5 -4 7 3 4 14 -6 23 -13 26 -13 6z"/>
<path d="M2057 2333 c-10 -9 -9 -23 1 -23 5 0 9 7 9 15 0 17 -1 18 -10 8z"/>
<path d="M1838 2313 c6 -2 18 -2 25 0 6 3 1 5 -13 5 -14 0 -19 -2 -12 -5z"/>
<path d="M1820 2228 c0 -7 -3 -30 -6 -50 l-7 -38 156 0 c171 0 167 -2 167 66
l0 34 -155 0 c-117 0 -155 -3 -155 -12z"/>
<path d="M214 2198 c-5 -8 -2 -9 9 -5 20 7 21 3 7 -24 -9 -16 -7 -19 12 -18
13 0 17 3 10 6 -10 4 -10 8 -2 19 7 7 9 18 5 24 -8 14 -32 13 -41 -2z"/>
<path d="M314 506 c-29 -15 -80 -76 -87 -104 -4 -18 -3 -21 7 -13 7 6 15 9 17
6 3 -2 22 14 43 36 22 21 36 42 33 46 -4 3 -2 12 5 20 15 18 8 22 -18 9z"/>
<path d="M2034 506 c-3 -7 -4 -40 -2 -72 l3 -59 44 -3 c28 -2 47 1 52 10 10
15 12 99 3 122 -8 21 -92 23 -100 2z m91 -61 l0 -60 -40 0 -40 0 -3 63 -3 63
43 -3 43 -3 0 -60z"/>
<path d="M2050 484 c0 -11 8 -14 32 -12 46 4 49 28 4 28 -26 0 -36 -4 -36 -16z"/>
<path d="M2053 425 c0 -22 2 -30 4 -17 2 12 2 30 0 40 -3 9 -5 -1 -4 -23z"/>
<path d="M2076 428 c6 -45 14 -48 14 -5 0 21 -4 37 -9 37 -4 0 -7 -14 -5 -32z"/>
<path d="M2100 425 c0 -19 4 -35 10 -35 5 0 9 16 8 35 -1 19 -5 35 -10 35 -4
0 -8 -16 -8 -35z"/>
<path d="M770 499 c0 -5 5 -7 10 -4 6 3 10 8 10 11 0 2 -4 4 -10 4 -5 0 -10
-5 -10 -11z"/>
<path d="M1152 480 c2 -24 7 -30 25 -30 19 0 23 5 23 30 0 25 -4 30 -25 30
-22 0 -25 -4 -23 -30z"/>
<path d="M715 466 c-35 -39 -65 -107 -38 -84 9 7 21 13 27 13 7 0 27 17 45 38
27 31 31 40 21 52 -17 20 -20 19 -55 -19z"/>
<path d="M1618 443 c6 -2 18 -2 25 0 6 3 1 5 -13 5 -14 0 -19 -2 -12 -5z"/>
<path d="M687 323 c-3 -5 -1 -17 4 -28 7 -17 8 -17 8 8 1 27 -4 34 -12 20z"/>
<path d="M570 306 c0 -8 4 -17 9 -20 5 -4 7 3 4 14 -6 23 -13 26 -13 6z"/>
<path d="M656 307 c3 -10 9 -15 12 -12 3 3 0 11 -7 18 -10 9 -11 8 -5 -6z"/>
<path d="M764 309 c-3 -6 -2 -15 3 -20 5 -5 9 -1 9 11 0 23 -2 24 -12 9z"/>
<path d="M735 300 c3 -5 8 -10 11 -10 2 0 4 5 4 10 0 6 -5 10 -11 10 -5 0 -7
-4 -4 -10z"/>
<path d="M50 270 c0 -5 5 -10 11 -10 5 0 7 5 4 10 -3 6 -8 10 -11 10 -2 0 -4
-4 -4 -10z"/>
<path d="M652 263 c300 -2 795 -2 1100 0 304 1 58 2 -547 2 -605 0 -854 -1
-553 -2z"/>
</g>
</svg>
