<?xml version="1.0" standalone="no"?>
<!DOCTYPE svg PUBLIC "-//W3C//DTD SVG 20010904//EN"
 "http://www.w3.org/TR/2001/REC-SVG-20010904/DTD/svg10.dtd">
<svg version="1.0" xmlns="http://www.w3.org/2000/svg"
 width="235.000000pt" height="227.000000pt" viewBox="0 0 235.000000 227.000000"
 preserveAspectRatio="xMidYMid meet">

<g transform="translate(0.000000,227.000000) scale(0.100000,-0.100000)"
fill="#ffffff" stroke="none">
<path d="M149 2138 c0 -7 -6 -66 -12 -131 -7 -65 -9 -123 -6 -129 4 -7 21 -9
43 -5 34 5 36 5 36 -24 l0 -29 136 0 c147 0 164 6 164 54 l0 26 -151 0 -151 0
6 63 c4 34 9 90 12 125 l6 62 -41 0 c-26 0 -41 -5 -42 -12z m56 -60 c-4 -29
-10 -82 -14 -118 -5 -51 -10 -66 -23 -68 -21 -4 -21 -3 -9 125 10 101 14 113
38 113 13 0 15 -8 8 -52z m285 -206 c0 -25 -30 -32 -142 -32 -111 0 -118 1
-118 20 0 19 7 20 130 20 72 0 130 -4 130 -8z"/>
<path d="M242 2120 l3 -31 139 0 c133 0 140 1 151 21 10 18 11 12 8 -36 -2
-33 -9 -85 -15 -116 -13 -71 -7 -88 30 -88 40 0 48 14 56 95 4 39 10 95 13
127 l5 56 -197 1 -196 1 3 -30z m266 -2 c-4 -10 -37 -13 -123 -13 -86 0 -119
3 -122 13 -4 9 25 12 122 12 97 0 126 -3 123 -12z"/>
<path d="M941 2054 c-1 -42 -7 -87 -12 -101 -5 -13 -9 -42 -9 -65 l0 -40 40 4
c36 3 40 1 40 -19 0 -23 1 -23 143 -23 152 0 167 4 167 48 l0 23 -151 -3 -152
-3 6 85 c3 47 8 92 11 100 5 13 30 15 156 12 83 -2 150 1 150 5 0 4 3 18 6 31
l6 22 -150 0 c-148 0 -151 0 -155 -22 l-4 -23 -2 23 c-1 19 -6 22 -44 22 l-43
0 -3 -76z m54 -41 c-9 -112 -18 -143 -41 -143 -13 0 -15 6 -10 28 3 15 9 54
12 87 9 105 14 125 30 125 14 0 15 -13 9 -97z"/>
<path d="M1349 2123 c0 -5 -5 -44 -10 -88 -5 -44 -12 -104 -16 -132 l-5 -53
35 0 c47 0 53 12 61 135 4 55 10 110 13 123 5 20 2 22 -36 22 -23 0 -41 -3
-42 -7z"/>
<path d="M1736 2053 c-3 -43 -9 -106 -12 -140 l-6 -63 35 0 c42 0 44 4 58 129
l11 96 155 0 155 0 -7 -113 -7 -113 38 3 39 3 12 85 c6 47 12 109 12 138 l1
52 -194 0 c-194 0 -195 0 -199 -22 l-4 -23 -2 23 c-1 19 -7 22 -40 22 l-38 0
-7 -77z m64 32 c0 -22 -15 -131 -26 -192 -3 -13 -12 -23 -20 -23 -13 0 -15 7
-10 38 3 20 8 64 11 97 4 33 8 70 11 83 6 31 34 29 34 -3z"/>
<path d="M1813 1873 c-7 -2 -13 -18 -13 -34 l0 -29 143 0 144 0 12 26 c6 14 9
30 6 35 -6 9 -270 12 -292 2z"/>
<path d="M123 1848 c-4 -8 -12 -64 -30 -230 l-5 -46 185 -1 c195 -1 214 3 205
46 -3 16 -17 18 -152 17 l-149 -1 6 61 c4 34 9 82 13 107 l6 47 -36 4 c-21 2
-40 0 -43 -4z m41 -120 c-7 -110 -15 -138 -41 -138 -13 0 -14 7 -8 38 3 20 10
69 14 107 7 72 15 95 32 95 6 0 7 -37 3 -102z m286 -123 c0 -13 -21 -15 -125
-15 -114 0 -137 5 -118 23 3 4 60 7 125 7 98 0 118 -3 118 -15z"/>
<path d="M523 1846 c-4 -5 -10 -43 -14 -85 -4 -42 -11 -102 -15 -133 l-7 -58
36 0 c47 0 53 12 61 128 4 52 9 106 12 122 6 26 3 28 -31 32 -20 2 -39 0 -42
-6z"/>
<path d="M923 1826 c-9 -14 -32 -181 -33 -232 l0 -41 178 -2 c97 0 182 2 188
6 7 5 14 19 15 33 l4 25 -148 3 -148 3 7 103 7 103 -32 5 c-18 3 -35 0 -38 -6z"/>
<path d="M1321 1826 c-5 -6 -14 -60 -20 -120 -16 -158 -16 -156 18 -156 47 0
50 11 67 211 l6 66 -31 5 c-17 3 -35 0 -40 -6z m45 -68 c-4 -29 -10 -81 -13
-115 -3 -42 -10 -64 -21 -68 -8 -3 -17 -4 -19 -1 -4 3 7 103 23 204 3 20 11
32 21 32 13 0 14 -8 9 -52z"/>
<path d="M1715 1821 c-8 -26 -33 -254 -29 -262 5 -8 346 -11 367 -3 11 4 17
17 17 35 l0 29 -151 0 -152 0 7 48 c4 26 10 73 13 105 5 53 4 57 -15 57 -11 0
-27 3 -35 6 -10 3 -18 -2 -22 -15z m51 -48 c-3 -21 -9 -69 -12 -108 -6 -68
-16 -95 -36 -95 -6 0 -8 31 -3 83 9 108 22 157 41 157 13 0 15 -8 10 -37z"/>
<path d="M2116 1831 c-6 -9 -27 -185 -30 -246 -1 -26 3 -30 27 -33 42 -5 54
12 61 83 20 213 20 195 -2 195 -11 0 -27 3 -35 6 -8 3 -18 1 -21 -5z"/>
<path d="M155 1350 c-4 -6 -11 -59 -17 -118 -16 -175 -19 -157 30 -157 37 0
42 -3 42 -23 l0 -23 148 3 147 3 3 28 3 27 -152 0 -151 0 6 65 c3 36 9 94 12
130 6 61 5 65 -14 65 -11 0 -27 3 -35 6 -8 3 -18 0 -22 -6z"/>
<path d="M378 1352 l-138 -3 0 -34 0 -35 140 0 c122 0 140 2 150 18 8 13 9 -4
5 -68 -11 -157 -12 -154 8 -158 10 -2 29 -1 41 2 21 5 24 14 30 78 3 40 9 101
12 136 7 69 16 62 -76 66 -19 0 -97 0 -172 -2z m132 -37 c0 -13 -21 -15 -125
-15 -114 0 -137 5 -118 23 3 4 60 7 125 7 98 0 118 -3 118 -15z"/>
<path d="M951 1326 c-8 -10 -20 -124 -24 -226 -2 -43 0 -45 27 -48 16 -2 33 1
38 6 6 6 14 47 18 91 13 127 -2 116 162 113 128 -3 144 -1 156 15 12 16 13 8
7 -57 -14 -166 -14 -165 22 -168 23 -2 34 2 41 15 8 14 25 203 23 248 0 6 -14
13 -31 16 -26 6 -33 3 -40 -15 -7 -17 -9 -18 -9 -3 -1 15 -15 17 -151 17
l-150 0 -1 -27 c-1 -28 -1 -28 -8 -3 -8 27 -64 46 -80 26z m444 -113 c-8 -108
-19 -147 -38 -140 -13 4 -13 9 1 133 9 83 16 104 34 104 6 0 7 -32 3 -97z"/>
<path d="M1753 1327 c-9 -12 -33 -193 -33 -249 0 -24 4 -28 29 -28 16 0 33 6
39 13 9 10 32 151 32 192 0 6 49 9 142 7 128 -3 143 -2 156 15 12 16 13 2 7
-104 l-7 -123 29 0 c52 0 51 -1 69 212 l6 68 -221 -1 c-121 0 -225 2 -230 5
-5 3 -13 0 -18 -7z m443 -69 c-4 -29 -10 -81 -13 -115 -3 -42 -10 -64 -21 -68
-8 -3 -17 -3 -20 0 -4 4 12 155 24 213 2 12 12 22 20 22 14 0 15 -8 10 -52z"/>
<path d="M1015 1064 c-9 -9 -15 -26 -13 -38 3 -20 9 -21 137 -24 91 -2 138 1
147 9 8 7 17 9 20 7 3 -3 0 -52 -6 -108 -16 -161 -16 -160 25 -160 28 0 36 4
39 23 12 53 26 170 26 211 0 43 -2 46 -27 47 -16 1 -33 1 -40 0 -6 -1 -13 9
-15 21 -3 22 -6 23 -140 26 -116 2 -138 0 -153 -14z"/>
<path d="M1812 1071 c-8 -5 -12 -21 -10 -37 l3 -29 132 -3 c143 -3 163 4 163
54 l0 24 -137 0 c-76 0 -144 -4 -151 -9z"/>
<path d="M119 1043 c0 -5 -5 -46 -10 -93 -6 -47 -13 -106 -16 -132 l-5 -47
182 -1 c194 0 210 3 210 47 l0 24 -151 -3 -151 -3 6 75 c4 41 9 90 12 108 6
32 6 32 -35 32 -22 0 -41 -3 -42 -7z m47 -100 c-10 -139 -14 -153 -38 -153
-18 0 -19 4 -14 33 5 25 22 159 25 200 1 4 8 7 17 7 14 0 15 -12 10 -87z m284
-138 c0 -13 -21 -15 -125 -15 -114 0 -137 5 -118 23 3 4 60 7 125 7 98 0 118
-3 118 -15z"/>
<path d="M517 1043 c-2 -5 -5 -35 -6 -68 -1 -33 -6 -78 -11 -100 -5 -22 -10
-55 -10 -72 0 -31 2 -33 34 -33 19 0 38 6 43 13 9 14 33 248 26 260 -2 4 -19
7 -38 7 -19 0 -36 -3 -38 -7z"/>
<path d="M923 1027 c-6 -10 -19 -99 -29 -209 l-7 -67 187 -1 c195 0 191 -1
198 45 3 19 -3 20 -145 20 l-149 0 7 106 7 106 -31 5 c-18 3 -35 0 -38 -5z
m46 -39 c0 -13 -6 -66 -12 -118 -11 -79 -16 -95 -31 -98 -17 -4 -18 1 -13 39
3 24 9 64 12 89 13 100 16 110 30 110 9 0 15 -9 14 -22z"/>
<path d="M1705 973 c-3 -32 -10 -92 -15 -133 -5 -41 -7 -77 -4 -81 2 -4 87 -8
188 -9 197 0 196 -1 196 51 0 19 -7 20 -147 19 l-148 -2 1 34 c1 18 5 66 9
106 l8 72 -41 0 -41 0 -6 -57z"/>
<path d="M2106 973 c-3 -32 -11 -91 -17 -130 -5 -40 -7 -77 -4 -83 9 -14 61
-12 73 3 9 11 13 37 28 205 l6 62 -40 0 -41 0 -5 -57z"/>
<path d="M146 598 c-17 -166 -22 -219 -17 -223 2 -3 22 -5 43 -5 26 0 38 -4
38 -14 0 -11 -10 -14 -40 -11 -22 2 -43 -1 -46 -7 -8 -13 -26 -161 -28 -228
-1 -44 0 -45 32 -48 21 -2 32 1 32 9 0 10 3 10 12 1 8 -8 56 -12 150 -12 126
0 138 2 148 19 5 11 10 29 10 41 0 21 -2 21 -151 18 l-151 -3 6 75 c12 130 -6
118 176 118 l159 1 -4 -32 c-2 -18 -9 -71 -16 -118 -7 -48 -9 -94 -6 -103 9
-22 63 -21 72 2 11 24 35 254 28 265 -3 5 -23 7 -44 4 -36 -5 -39 -3 -39 19
l0 24 -151 0 -151 0 6 65 c3 36 9 94 12 130 l6 65 -40 0 -41 0 -5 -52z m57 -9
c-9 -160 -16 -199 -35 -199 -18 0 -19 6 -13 88 8 100 22 155 38 149 7 -2 11
-19 10 -38z m287 -228 c0 -16 -31 -21 -146 -21 -95 0 -114 3 -114 15 0 13 21
15 130 15 72 0 130 -4 130 -9z m-326 -133 c-7 -112 -17 -152 -37 -145 -13 4
-13 11 1 138 9 88 16 109 33 109 7 0 8 -35 3 -102z m286 -133 c0 -13 -21 -15
-125 -15 -104 0 -125 2 -125 15 0 13 21 15 125 15 104 0 125 -2 125 -15z"/>
<path d="M247 643 c-4 -3 -7 -19 -7 -35 l0 -28 144 0 c141 0 144 0 150 23 13
47 14 47 -137 47 -79 0 -147 -3 -150 -7z"/>
<path d="M549 643 c-4 -48 -20 -188 -25 -226 l-7 -48 44 3 44 3 9 80 c4 44 9
105 10 135 l1 55 -37 3 c-21 2 -38 0 -39 -5z"/>
<path d="M946 618 c-3 -7 -7 -47 -10 -88 -3 -41 -9 -99 -12 -129 l-7 -53 41 4
c38 3 41 1 44 -22 l3 -25 139 -3 c149 -3 169 3 164 46 l-3 24 -152 -1 -153 -2
5 28 c2 15 7 53 10 85 8 89 -3 83 159 80 139 -3 145 -2 156 18 25 46 11 51
-142 48 l-143 -3 -4 -25 -4 -25 -6 25 c-6 20 -14 26 -44 28 -24 2 -39 -1 -41
-10z"/>
<path d="M1349 623 c0 -5 -5 -44 -10 -88 -5 -44 -12 -104 -16 -132 l-5 -53 35
0 c20 0 39 6 44 13 9 13 32 247 26 260 -2 4 -20 7 -39 7 -19 0 -34 -3 -35 -7z"/>
<path d="M1745 617 c-5 -20 -25 -203 -25 -237 0 -31 1 -32 40 -28 38 3 40 2
40 -24 l0 -28 139 0 c147 0 158 3 163 49 l3 23 -153 -2 -154 -1 6 38 c3 21 8
64 11 96 l6 57 149 0 c109 0 150 3 154 13 3 6 3 -41 0 -106 l-6 -118 38 3 38
3 13 90 c7 50 12 110 11 135 l-3 45 -233 2 c-173 1 -234 -1 -237 -10z"/>
<path d="M915 298 c-13 -75 -25 -175 -25 -210 l0 -37 185 -1 c184 0 186 0 194
22 5 13 7 26 4 31 -2 4 -70 7 -149 7 l-146 0 7 110 8 110 -36 0 c-33 0 -37 -3
-42 -32z"/>
<path d="M1319 328 c-8 -26 -29 -206 -29 -251 0 -26 2 -28 37 -25 l37 3 13 85
c7 47 12 109 13 138 l0 52 -35 0 c-19 0 -35 -1 -36 -2z"/>
<path d="M1707 283 c-4 -27 -9 -90 -13 -141 l-7 -92 189 2 189 3 3 28 3 27
-152 0 -152 0 7 53 c4 28 9 78 13 110 l5 57 -40 0 -39 0 -6 -47z m58 -20 c-4
-27 -10 -79 -13 -118 -6 -57 -10 -70 -25 -73 -17 -4 -18 2 -12 80 9 110 22
158 42 158 13 0 14 -8 8 -47z"/>
<path d="M2110 323 c-2 -36 -20 -206 -26 -236 l-7 -37 42 0 c49 0 47 -5 68
218 l5 62 -41 0 c-22 0 -41 -3 -41 -7z"/>
</g>
</svg>
