<?xml version="1.0" standalone="no"?>
<!DOCTYPE svg PUBLIC "-//W3C//DTD SVG 20010904//EN"
 "http://www.w3.org/TR/2001/REC-SVG-20010904/DTD/svg10.dtd">
<svg version="1.0" xmlns="http://www.w3.org/2000/svg"
 width="248.000000pt" height="497.000000pt" viewBox="0 0 248.000000 497.000000"
 preserveAspectRatio="xMidYMid meet">

<g transform="translate(0.000000,497.000000) scale(0.100000,-0.100000)"
fill="#06449b" stroke="none">
<path d="M980 4916 c0 -16 -6 -26 -15 -26 -22 0 -18 -13 10 -40 14 -13 25 -35
25 -49 0 -19 3 -22 12 -13 15 15 90 16 106 0 9 -9 13 -7 18 5 9 23 -4 56 -15
39 -12 -20 -101 -11 -115 10 -14 22 -6 29 42 35 26 4 51 0 72 -10 21 -11 30
-12 27 -4 -7 22 -51 38 -100 35 -39 -3 -47 0 -47 14 0 9 -4 20 -10 23 -6 4
-10 -5 -10 -19z"/>
<path d="M1530 4885 c0 -12 -13 -15 -60 -15 -33 0 -60 -4 -60 -10 0 -6 27 -10
60 -10 47 0 60 -3 60 -15 0 -8 5 -15 10 -15 6 0 10 18 10 40 0 22 -4 40 -10
40 -5 0 -10 -7 -10 -15z"/>
<path d="M1410 4790 c0 -5 23 -10 53 -11 l52 0 -37 -17 c-42 -18 -49 -32 -18
-32 11 0 20 -4 20 -9 0 -5 8 -12 18 -14 9 -3 -7 -5 -35 -6 -30 0 -53 -6 -53
-11 0 -7 25 -10 68 -8 51 2 67 7 67 18 0 8 -15 18 -32 24 -42 11 -41 19 2 36
20 8 34 19 32 24 -5 15 -137 20 -137 6z"/>
<path d="M1000 4723 c0 -54 14 -48 23 10 4 28 2 37 -9 37 -10 0 -14 -13 -14
-47z"/>
<path d="M1100 4763 c0 -7 5 -15 10 -18 16 -10 12 -45 -5 -45 -9 0 -27 12 -41
27 -13 14 -27 23 -30 20 -8 -8 53 -67 70 -67 7 0 19 11 26 25 12 23 12 28 -8
48 -12 12 -22 16 -22 10z"/>
<path d="M1017 4642 c-18 -20 -24 -87 -7 -77 6 3 10 19 10 34 0 32 16 51 45
51 33 -1 55 -24 55 -59 0 -19 4 -30 10 -26 18 11 11 51 -13 73 -29 27 -78 29
-100 4z"/>
<path d="M1430 4651 c14 -4 27 -16 29 -26 5 -30 21 -45 45 -45 30 0 46 18 46
52 l0 28 -72 -1 c-46 -1 -64 -4 -48 -8z m98 -28 c3 -19 -1 -23 -22 -23 -21 0
-26 5 -26 26 0 21 4 25 23 22 14 -2 23 -11 25 -25z"/>
<path d="M1410 4511 c0 -20 3 -22 12 -13 7 7 36 12 66 12 36 0 52 4 50 12 -3
7 -29 12 -66 12 -59 1 -62 0 -62 -23z"/>
<path d="M1002 4453 l3 -38 57 -2 c62 -2 82 10 76 49 -3 21 -9 23 -71 26 l-68
3 3 -38z m58 -3 c0 -13 -7 -20 -20 -20 -13 0 -20 7 -20 20 0 13 7 20 20 20 13
0 20 -7 20 -20z m60 0 c0 -13 -7 -20 -20 -20 -13 0 -20 7 -20 20 0 13 7 20 20
20 13 0 20 -7 20 -20z"/>
<path d="M1422 4448 c-7 -7 -12 -21 -12 -33 0 -32 19 -45 65 -45 56 0 85 28
65 65 -11 21 -21 25 -60 25 -25 0 -51 -5 -58 -12z m108 -33 c0 -23 -3 -25 -50
-25 -47 0 -50 2 -50 25 0 23 3 25 50 25 47 0 50 -2 50 -25z"/>
<path d="M1012 4378 c-7 -7 -12 -27 -12 -45 0 -32 1 -33 44 -33 25 0 48 5 51
10 4 6 -10 10 -34 10 -37 0 -41 2 -41 25 0 23 4 25 40 25 22 0 40 5 40 10 0
14 -74 12 -88 -2z"/>
<path d="M1410 4313 c0 -54 14 -48 23 10 4 28 2 37 -9 37 -10 0 -14 -13 -14
-47z"/>
<path d="M1518 4343 c6 -2 12 -16 12 -29 0 -32 -24 -31 -56 3 -13 14 -27 23
-30 20 -7 -7 53 -67 67 -67 15 0 39 26 39 42 0 17 -20 38 -34 37 -6 0 -5 -3 2
-6z"/>
<path d="M1000 4271 c0 -33 11 -51 31 -51 10 0 19 6 19 14 0 7 7 19 15 26 8 7
15 16 15 21 0 5 -7 9 -15 9 -8 0 -15 -6 -15 -14 0 -7 -7 -19 -15 -26 -13 -10
-15 -9 -15 8 0 12 -4 24 -10 27 -5 3 -10 -3 -10 -14z"/>
<path d="M1080 4245 c0 -14 5 -25 10 -25 6 0 10 11 10 25 0 14 -4 25 -10 25
-5 0 -10 -11 -10 -25z"/>
<path d="M964 4192 c18 -30 136 -58 136 -33 0 5 11 12 25 15 14 4 25 11 25 16
0 14 -13 12 -36 -5 -21 -16 -85 -20 -99 -6 -16 14 -59 25 -51 13z"/>
<path d="M1412 4164 c3 -37 5 -39 38 -39 31 0 35 3 38 28 2 19 9 27 23 27 14
0 19 -7 19 -30 0 -16 5 -30 10 -30 6 0 10 13 10 29 0 57 -61 71 -70 16 -4 -21
-12 -31 -28 -33 -19 -3 -22 1 -22 27 0 16 -5 33 -11 36 -7 5 -9 -6 -7 -31z"/>
<path d="M1410 4055 c0 -28 4 -44 10 -40 6 3 10 20 10 36 0 26 3 30 22 27 14
-2 25 -12 29 -28 l6 -25 4 25 c2 14 12 26 22 28 14 3 17 -4 17 -34 0 -27 3
-35 11 -27 6 6 9 26 7 44 l-3 34 -67 3 -68 3 0 -46z"/>
<path d="M1410 3990 c0 -5 22 -10 50 -10 28 0 50 -4 50 -10 0 -5 -4 -10 -10
-10 -28 0 -90 -36 -90 -52 0 -15 10 -18 65 -18 37 0 65 4 65 10 0 6 -20 10
-44 10 -25 0 -48 5 -51 10 -3 6 1 10 9 10 25 0 97 42 93 54 -5 14 -137 21
-137 6z"/>
<path d="M1412 3845 c5 -65 64 -75 78 -14 3 13 14 25 23 27 13 3 17 -4 17 -33
0 -22 4 -34 10 -30 17 10 11 51 -10 70 -23 21 -47 8 -52 -28 -2 -14 -11 -23
-25 -25 -20 -3 -23 1 -23 27 0 16 -5 33 -11 36 -7 5 -9 -6 -7 -30z"/>
<path d="M1432 3757 c-28 -30 -28 -58 1 -85 31 -29 59 -28 91 4 33 33 33 41
-1 76 -33 34 -62 36 -91 5z m84 -11 c31 -32 6 -76 -44 -76 -30 0 -42 14 -42
49 0 38 56 56 86 27z"/>
<path d="M1410 3630 c0 -5 11 -10 25 -10 14 0 25 -6 25 -13 0 -8 -11 -24 -25
-37 -14 -13 -25 -28 -25 -34 1 -6 10 0 21 13 17 21 23 23 40 13 29 -19 54 -14
68 12 26 47 13 61 -62 64 -42 2 -67 -1 -67 -8z m118 -37 c3 -19 -1 -23 -22
-23 -21 0 -26 5 -26 26 0 21 4 25 23 22 14 -2 23 -11 25 -25z"/>
<path d="M1763 3423 c9 -2 23 -2 30 0 6 3 -1 5 -18 5 -16 0 -22 -2 -12 -5z"/>
<path d="M1846 3392 c3 -37 25 -92 36 -92 9 0 22 69 14 77 -3 4 -6 -6 -6 -20
0 -15 -4 -27 -10 -27 -5 0 -10 11 -10 25 0 14 -4 25 -9 25 -5 0 -12 10 -14 23
-2 12 -3 7 -1 -11z"/>
<path d="M1903 3414 c-3 -8 -1 -20 6 -27 8 -8 11 -4 11 16 0 30 -7 35 -17 11z"/>
<path d="M1968 3423 c6 -2 18 -2 25 0 6 3 1 5 -13 5 -14 0 -19 -2 -12 -5z"/>
<path d="M1649 3390 c-3 -17 -12 -26 -29 -29 l-25 -4 25 -6 c15 -4 27 -16 31
-31 l6 -25 4 25 c3 16 13 26 29 31 l25 6 -25 4 c-16 3 -26 13 -31 29 l-6 25
-4 -25z"/>
<path d="M1800 3395 c0 -8 -7 -15 -15 -15 -8 0 -15 -4 -15 -10 0 -5 7 -10 15
-10 9 0 15 -9 15 -25 0 -20 -5 -25 -24 -25 -13 0 -27 5 -29 10 -3 6 -4 5 -3
-2 3 -18 44 -22 62 -8 17 15 18 47 2 53 -10 4 -10 7 0 18 15 16 16 29 2 29 -5
0 -10 -7 -10 -15z"/>
<path d="M2011 3398 c-1 -12 -9 -18 -23 -18 -17 0 -19 -3 -10 -12 10 -9 16 -9
28 4 9 9 14 22 11 30 -4 9 -6 7 -6 -4z"/>
<path d="M2011 3338 c-1 -21 -7 -28 -28 -31 l-28 -4 28 -2 c29 -1 42 15 34 46
-3 12 -5 9 -6 -9z"/>
<path d="M211 3266 c-33 -35 -25 -70 17 -74 29 -3 32 -1 32 25 -1 24 -2 25
-11 11 -15 -26 -39 -22 -39 6 0 29 16 43 55 49 l30 4 -31 2 c-21 1 -38 -7 -53
-23z"/>
<path d="M303 3267 c4 -10 7 -30 7 -43 0 -13 5 -24 10 -24 16 0 11 50 -7 68
-16 16 -16 16 -10 -1z"/>
<path d="M380 3165 l0 -75 -73 0 c-43 0 -78 5 -85 12 -9 9 -15 9 -23 1 -23
-23 3 -33 92 -33 l89 0 0 -75 c0 -68 2 -75 20 -75 18 0 20 7 20 76 l0 75 89
-3 c68 -2 87 0 84 10 -4 8 -31 12 -89 12 l-84 0 0 75 c0 68 -2 75 -20 75 -18
0 -20 -7 -20 -75z"/>
<path d="M1836 3182 c-7 -11 56 -60 88 -68 52 -13 24 -24 -58 -24 -58 0 -85
-4 -89 -12 -3 -10 16 -12 82 -11 56 2 79 0 66 -6 -12 -5 -27 -16 -34 -25 -7
-9 -19 -16 -26 -16 -21 0 -40 -29 -27 -42 9 -9 21 -7 47 8 19 10 35 22 35 26
0 5 6 8 14 8 7 0 19 7 26 15 16 19 30 19 30 -1 0 -8 5 -12 10 -9 6 3 10 15 10
26 0 10 7 19 15 19 8 0 15 4 15 8 0 14 -43 49 -70 57 -14 4 -27 11 -30 14 -7
9 -75 41 -88 41 -6 0 -13 -4 -16 -8z"/>
<path d="M235 3163 c28 -2 54 -8 59 -14 15 -14 36 -11 36 6 0 12 -14 15 -72
13 -60 -1 -64 -2 -23 -5z"/>
<path d="M265 3130 c3 -5 10 -10 16 -10 5 0 9 5 9 10 0 6 -7 10 -16 10 -8 0
-12 -4 -9 -10z"/>
<path d="M238 3113 c7 -3 16 -2 19 1 4 3 -2 6 -13 5 -11 0 -14 -3 -6 -6z"/>
<path d="M190 3025 c0 -33 42 -75 75 -75 14 0 25 5 25 10 0 6 -13 10 -28 10
-34 0 -52 16 -52 47 0 21 4 23 51 23 l52 0 -6 -35 c-5 -31 -4 -33 9 -21 8 8
14 26 14 40 0 25 -1 26 -70 26 -68 0 -70 -1 -70 -25z"/>
<path d="M625 3030 c10 -11 20 -20 23 -20 3 0 -3 9 -13 20 -10 11 -20 20 -23
20 -3 0 3 -9 13 -20z"/>
<path d="M1735 3030 c-10 -11 -16 -20 -13 -20 3 0 15 9 28 20 13 11 19 20 13
20 -5 0 -18 -9 -28 -20z"/>
<path d="M1687 2982 c-10 -10 -17 -22 -17 -27 0 -4 9 2 20 15 11 13 20 25 20
27 0 7 -8 2 -23 -15z"/>
<path d="M745 2910 c10 -11 20 -20 23 -20 3 0 -3 9 -13 20 -10 11 -20 20 -23
20 -3 0 3 -9 13 -20z"/>
<path d="M1625 2919 c-11 -16 -1 -19 13 -3 7 8 8 14 3 14 -5 0 -13 -5 -16 -11z"/>
<path d="M776 2688 l-8 -198 -99 0 -99 0 0 -720 0 -720 100 0 100 0 0 -94 c0
-53 4 -98 10 -101 6 -4 10 30 10 94 l0 101 193 0 194 0 7 -155 c8 -185 2 -235
-26 -235 -13 0 -18 -5 -15 -14 3 -7 -12 -30 -34 -52 l-39 -38 0 -213 0 -213
135 0 135 0 0 208 0 208 -70 69 -70 69 0 183 0 183 190 0 190 0 0 -195 c0
-167 -2 -195 -15 -195 -8 0 -15 -5 -15 -11 0 -5 -20 -30 -45 -55 l-45 -44 0
-225 0 -225 135 0 135 0 0 228 0 229 -27 26 c-16 14 -45 44 -65 65 l-38 40 0
181 0 180 108 3 107 3 3 718 2 717 -110 0 -110 0 0 195 c0 120 -4 195 -10 195
-6 0 -11 -76 -12 -192 l-3 -193 -185 0 -185 0 -3 93 c-4 120 -22 112 -22 -9
l0 -89 -192 2 -193 3 -5 195 -5 195 -9 -197z m1004 -913 l0 -685 -251 0 c-204
0 -253 3 -265 14 -8 8 -14 18 -14 21 0 13 -34 80 -47 93 -11 11 -15 9 -23 -13
-5 -14 -10 -29 -10 -31 0 -3 -14 -23 -32 -45 l-32 -39 -250 2 -251 3 -3 670
c-1 369 0 676 3 683 3 9 131 12 590 12 l585 0 0 -685z m-554 -633 c10 -20 19
-40 21 -44 2 -5 -21 -8 -52 -8 -54 0 -56 1 -49 23 4 12 15 29 25 38 11 9 19
22 19 28 0 21 19 2 36 -37z m474 -809 l0 -203 -105 0 -105 0 0 201 c0 160 3
203 14 215 21 20 24 18 29 -18 3 -21 3 -17 2 8 -2 42 4 53 51 81 16 9 26 5 67
-35 l47 -46 0 -203z m-437 239 l47 -48 -2 -180 -3 -179 -100 0 -100 0 -3 184
-2 185 32 34 c28 29 58 49 78 51 3 1 27 -21 53 -47z"/>
<path d="M793 2293 c9 -2 23 -2 30 0 6 3 -1 5 -18 5 -16 0 -22 -2 -12 -5z"/>
<path d="M1153 2289 c22 -13 24 -69 2 -69 -8 0 -15 -4 -15 -10 0 -14 23 -12
54 4 26 13 26 14 5 19 -24 6 -21 30 4 35 10 2 17 -3 17 -12 0 -9 7 -16 15 -16
29 0 14 26 -25 43 -46 19 -89 24 -57 6z"/>
<path d="M1583 2282 c-34 -18 -44 -42 -18 -42 8 0 15 7 15 15 0 8 7 15 15 15
8 0 15 4 15 9 0 5 12 12 28 14 25 4 25 4 2 5 -14 0 -40 -7 -57 -16z"/>
<path d="M753 2273 c-7 -2 -13 -20 -13 -39 0 -32 2 -34 35 -34 31 0 35 3 35
25 0 14 -4 25 -10 25 -5 0 -10 -7 -10 -15 0 -8 -7 -15 -16 -15 -12 0 -15 7
-12 30 3 17 4 30 4 29 -1 0 -7 -3 -13 -6z"/>
<path d="M835 2240 c-1 -31 1 -35 12 -24 17 16 17 50 1 57 -9 3 -13 -7 -13
-33z"/>
<path d="M1588 2223 c7 -3 16 -2 19 1 4 3 -2 6 -13 5 -11 0 -14 -3 -6 -6z"/>
<path d="M1620 2210 c0 -5 9 -10 20 -10 11 0 20 5 20 10 0 6 -9 10 -20 10 -11
0 -20 -4 -20 -10z"/>
<path d="M775 2173 c22 -3 45 -9 51 -14 7 -6 16 -4 24 6 11 13 5 15 -51 13
-47 -1 -53 -2 -24 -5z"/>
<path d="M1130 2150 c0 -35 17 -41 22 -7 3 19 9 22 43 22 33 0 40 -4 46 -25 6
-23 7 -22 8 8 l1 32 -60 0 -60 0 0 -30z"/>
<path d="M1593 2173 c9 -2 23 -2 30 0 6 3 -1 5 -18 5 -16 0 -22 -2 -12 -5z"/>
<path d="M1557 2153 c-13 -13 -7 -51 11 -64 14 -11 15 -11 5 1 -7 8 -13 24
-13 36 0 12 6 25 13 27 6 3 7 6 1 6 -6 1 -14 -2 -17 -6z"/>
<path d="M1640 2153 c14 -7 13 -46 -2 -63 -11 -12 -10 -12 5 0 20 15 20 62 -1
66 -7 1 -8 0 -2 -3z"/>
<path d="M802 2134 c-7 -8 -8 -14 -3 -14 10 0 25 19 20 25 -2 1 -10 -3 -17
-11z"/>
<path d="M753 2095 c-16 -13 -11 -14 47 -15 67 0 72 13 8 23 -23 3 -43 0 -55
-8z"/>
<path d="M1166 2093 c7 -7 20 -13 29 -13 9 0 22 6 29 13 10 10 4 12 -29 12
-33 0 -39 -2 -29 -12z"/>
<path d="M740 2030 c0 -16 5 -30 10 -30 6 0 10 11 10 25 0 23 4 25 40 25 36 0
40 -2 40 -25 0 -14 5 -25 10 -25 6 0 10 14 10 30 l0 30 -60 0 -60 0 0 -30z"/>
<path d="M1130 2030 c0 -35 17 -41 22 -7 3 19 9 22 43 22 33 0 40 -4 46 -25 6
-23 7 -22 8 8 l1 32 -60 0 -60 0 0 -30z"/>
<path d="M1599 2053 c46 -9 66 -52 39 -83 -11 -12 -10 -12 5 -1 37 29 7 92
-44 90 l-24 -2 24 -4z"/>
<path d="M1557 2033 c-10 -9 -9 -51 2 -57 4 -3 6 6 3 20 -3 16 1 30 9 35 8 5
9 9 3 9 -6 0 -14 -3 -17 -7z"/>
<path d="M1166 1973 c7 -7 20 -13 29 -13 9 0 22 6 29 13 10 10 4 12 -29 12
-33 0 -39 -2 -29 -12z"/>
<path d="M780 1970 c0 -5 9 -10 20 -10 11 0 20 5 20 10 0 6 -9 10 -20 10 -11
0 -20 -4 -20 -10z"/>
<path d="M1140 1925 c-22 -26 5 -46 59 -43 42 3 46 5 46 28 0 23 -4 25 -46 28
-32 2 -50 -2 -59 -13z m100 -15 c0 -17 -7 -20 -45 -20 -38 0 -45 3 -45 20 0
17 7 20 45 20 38 0 45 -3 45 -20z"/>
<path d="M761 1885 c-17 -18 -19 -25 -8 -25 8 0 18 -10 21 -22 l7 -23 9 23 c5
12 18 22 30 22 11 0 20 5 20 10 0 6 -11 10 -24 10 -14 0 -26 7 -28 15 -2 11
-9 8 -27 -10z"/>
<path d="M758 1740 c29 -12 31 -60 2 -67 -11 -3 -17 -9 -14 -14 7 -12 44 -11
44 1 0 6 7 10 15 10 8 0 15 5 15 10 0 6 -7 10 -15 10 -8 0 -15 7 -15 15 0 8 7
15 15 15 8 0 15 4 15 9 0 10 -35 21 -65 20 -18 0 -18 -1 3 -9z"/>
<path d="M830 1705 c0 -8 7 -15 15 -15 8 0 15 7 15 15 0 8 -7 15 -15 15 -8 0
-15 -7 -15 -15z"/>
<path d="M747 1633 c-11 -10 -8 -143 3 -143 6 0 10 14 10 30 0 20 5 30 15 30
9 0 15 -9 15 -25 0 -14 5 -25 10 -25 6 0 10 11 10 25 0 16 6 25 15 25 10 0 15
-10 15 -29 0 -17 5 -33 11 -36 7 -5 9 8 7 37 l-3 43 -47 3 c-43 3 -48 5 -48
28 0 22 4 24 51 24 31 0 48 4 44 10 -7 11 -98 14 -108 3z"/>
<path d="M1554 1560 c1 -30 4 -35 26 -35 20 0 25 5 26 28 1 25 1 25 -3 2 -7
-39 -41 -33 -46 8 -4 32 -4 32 -3 -3z"/>
<path d="M1628 1593 c7 -3 16 -2 19 1 4 3 -2 6 -13 5 -11 0 -14 -3 -6 -6z"/>
<path d="M1652 1550 c0 -19 2 -27 5 -17 2 9 2 25 0 35 -3 9 -5 1 -5 -18z"/>
<path d="M1138 1544 c-24 -23 5 -82 34 -71 8 4 7 6 -4 6 -12 1 -18 11 -20 37
-2 20 -6 32 -10 28z"/>
<path d="M1210 1540 c0 -5 5 -10 10 -10 6 0 10 5 10 10 0 6 -4 10 -10 10 -5 0
-10 -4 -10 -10z"/>
<path d="M1192 1505 c0 -16 2 -22 5 -12 2 9 2 23 0 30 -3 6 -5 -1 -5 -18z"/>
<path d="M1242 1500 c0 -19 2 -27 5 -17 2 9 2 25 0 35 -3 9 -5 1 -5 -18z"/>
<path d="M1550 1467 c0 -58 58 -88 93 -49 10 10 17 33 17 50 l0 32 -55 0 -55
0 0 -33z m100 -8 c0 -25 -22 -49 -45 -49 -23 0 -45 24 -45 49 0 18 6 21 45 21
39 0 45 -3 45 -21z"/>
<path d="M763 1453 c21 -3 27 -9 23 -20 -6 -14 23 -53 39 -53 15 0 35 31 35
54 0 25 -2 26 -62 25 -35 -1 -50 -4 -35 -6z m77 -28 c0 -16 -6 -25 -15 -25 -9
0 -15 9 -15 25 0 16 6 25 15 25 9 0 15 -9 15 -25z"/>
<path d="M1153 1425 c-13 -13 -23 -31 -23 -38 0 -17 28 -42 37 -33 3 3 1 6 -5
6 -17 0 -15 45 3 60 8 7 26 10 40 8 20 -4 23 -3 14 8 -17 20 -41 16 -66 -11z"/>
<path d="M1241 1388 c0 -14 -7 -29 -13 -31 -10 -4 -10 -6 0 -6 16 -1 25 22 19
46 -3 12 -5 9 -6 -9z"/>
<path d="M1550 1370 c0 -5 7 -10 15 -10 22 0 20 -56 -2 -69 -33 -19 22 -13 61
7 36 17 48 42 21 42 -8 0 -15 -7 -15 -15 0 -8 -7 -15 -15 -15 -8 0 -15 9 -15
20 0 12 7 20 18 20 11 0 8 5 -12 15 -33 17 -56 19 -56 5z"/>
<path d="M840 1345 c0 -11 -12 -15 -44 -15 -25 0 -48 -4 -51 -10 -4 -6 13 -10
44 -10 39 0 51 -4 51 -15 0 -8 5 -15 10 -15 6 0 10 18 10 40 0 22 -4 40 -10
40 -5 0 -10 -7 -10 -15z"/>
<path d="M1137 1323 c-11 -10 -8 -51 3 -58 6 -4 10 5 10 19 0 24 3 26 50 26
28 0 50 5 50 10 0 11 -103 14 -113 3z"/>
<path d="M1610 546 c-6 -8 -10 -25 -7 -38 4 -20 4 -20 6 5 1 20 6 27 21 27 16
0 20 -7 22 -37 l1 -38 4 33 c4 31 -10 62 -27 62 -4 0 -13 -7 -20 -14z"/>
<path d="M1550 480 c0 -5 9 -10 20 -10 11 0 20 5 20 10 0 6 -9 10 -20 10 -11
0 -20 -4 -20 -10z"/>
<path d="M1531 418 c1 -30 2 -31 8 -8 6 22 12 25 56 25 44 0 50 -3 56 -25 6
-23 7 -22 8 8 l1 32 -65 0 -65 0 1 -32z"/>
<path d="M1550 385 c0 -31 57 -47 78 -22 9 10 4 12 -25 9 -23 -3 -38 0 -44 9
-5 8 -9 9 -9 4z"/>
<path d="M1543 324 c22 -7 25 -74 2 -74 -8 0 -15 -4 -15 -10 0 -5 9 -10 19
-10 11 0 23 5 26 10 3 6 17 10 31 10 13 0 24 5 24 10 0 6 7 10 15 10 8 0 15 7
15 15 0 8 -6 15 -14 15 -8 0 -16 4 -18 9 -1 5 -25 12 -53 15 -27 3 -42 3 -32
0z m87 -39 c0 -9 -9 -15 -25 -15 -16 0 -25 6 -25 15 0 9 9 15 25 15 16 0 25
-6 25 -15z"/>
<path d="M1138 554 c-23 -22 7 -84 41 -84 19 0 41 26 41 49 0 12 6 21 15 21
10 0 15 -10 15 -29 0 -17 5 -33 10 -36 16 -10 12 55 -4 71 -8 8 -17 14 -21 14
-14 0 -35 -30 -35 -49 0 -16 -6 -21 -24 -21 -21 0 -25 5 -28 36 -2 20 -6 32
-10 28z"/>
<path d="M1152 427 c-22 -24 -30 -67 -12 -67 6 0 10 13 10 28 0 37 17 52 56
52 34 0 44 -13 44 -56 0 -13 5 -24 10 -24 16 0 11 48 -7 70 -24 28 -74 26
-101 -3z"/>
<path d="M1130 306 c0 -14 5 -28 10 -31 6 -3 10 5 10 19 0 24 3 25 63 29 l62
3 -72 2 c-71 2 -73 1 -73 -22z"/>
<path d="M450 2476 c0 -13 -12 -16 -54 -16 -30 0 -58 -4 -61 -10 -4 -6 17 -10
54 -10 48 0 61 -3 61 -15 0 -8 5 -15 10 -15 6 0 10 15 10 34 0 19 -4 38 -10
41 -5 3 -10 -1 -10 -9z"/>
<path d="M1960 2480 c0 -5 25 -10 55 -10 30 0 55 5 55 10 0 6 -25 10 -55 10
-30 0 -55 -4 -55 -10z"/>
<path d="M1942 2440 c0 -19 2 -27 5 -17 2 9 2 25 0 35 -3 9 -5 1 -5 -18z"/>
<path d="M1988 2393 c18 -2 45 -2 60 0 15 2 0 4 -33 4 -33 0 -45 -2 -27 -4z"/>
<path d="M330 2380 c0 -5 22 -10 48 -10 26 0 53 -5 60 -12 14 -14 38 4 28 21
-9 14 -136 15 -136 1z"/>
<path d="M1941 2358 c0 -10 -8 -18 -16 -18 -8 0 -15 -4 -15 -10 0 -5 7 -10 15
-10 8 0 15 -5 15 -12 0 -9 3 -9 12 0 14 14 38 16 38 3 0 -5 -8 -12 -17 -14
-15 -4 -15 -5 -2 -6 9 0 22 6 29 14 7 8 19 15 26 15 8 0 14 -7 14 -15 0 -8 5
-15 10 -15 6 0 10 7 10 15 0 8 7 15 15 15 21 0 19 17 -2 22 -10 3 -41 3 -70 2
-42 -3 -52 0 -56 14 -4 16 -5 16 -6 0z"/>
<path d="M2010 2360 c0 -5 4 -10 9 -10 6 0 13 5 16 10 3 6 -1 10 -9 10 -9 0
-16 -4 -16 -10z"/>
<path d="M388 2343 c-22 -5 -24 -23 -3 -23 8 0 15 -4 15 -10 0 -5 7 -10 15
-10 8 0 15 5 15 10 0 6 -7 10 -15 10 -21 0 -19 18 3 23 11 3 12 5 2 5 -8 0
-23 -2 -32 -5z"/>
<path d="M390 2293 c-77 -7 -73 -24 4 -21 44 2 71 8 74 16 2 7 -4 11 -15 10
-10 -1 -38 -3 -63 -5z"/>
<path d="M350 2241 c14 -4 27 -16 29 -26 5 -30 21 -45 46 -45 29 0 47 22 43
52 -3 21 -8 23 -73 25 -42 1 -60 -1 -45 -6z m98 -34 c3 -23 0 -27 -22 -27 -21
0 -26 5 -26 23 0 13 3 27 7 31 15 14 38 0 41 -27z"/>
<path d="M1940 2226 c0 -22 3 -26 13 -18 7 6 36 12 65 14 43 2 50 6 42 18 -7
12 -12 12 -22 2 -15 -15 -70 -16 -86 0 -9 9 -12 6 -12 -16z"/>
<path d="M330 2103 c0 -21 3 -24 12 -15 7 7 39 12 72 12 58 0 60 1 42 18 -13
12 -20 14 -23 5 -6 -15 -83 -18 -83 -3 0 6 -4 10 -10 10 -5 0 -10 -12 -10 -27z"/>
<path d="M343 2035 c-33 -36 -3 -75 57 -75 63 0 90 38 52 73 -23 21 -92 22
-109 2z m107 -30 c0 -23 -3 -25 -50 -25 -47 0 -50 2 -50 25 0 23 3 25 50 25
47 0 50 -2 50 -25z"/>
<path d="M330 1900 c0 -22 4 -40 9 -40 5 0 11 18 13 40 2 28 0 40 -9 40 -8 0
-13 -14 -13 -40z"/>
<path d="M438 1933 c6 -2 12 -16 12 -29 0 -13 5 -24 10 -24 6 0 10 8 10 18 0
20 -19 42 -34 41 -6 0 -5 -3 2 -6z"/>
<path d="M385 1900 c10 -11 20 -20 23 -20 3 0 -3 9 -13 20 -10 11 -20 20 -23
20 -3 0 3 -9 13 -20z"/>
<path d="M428 1863 c7 -3 16 -2 19 1 4 3 -2 6 -13 5 -11 0 -14 -3 -6 -6z"/>
<path d="M303 1790 c0 -30 2 -43 4 -27 2 15 2 39 0 55 -2 15 -4 2 -4 -28z"/>
<path d="M330 1730 c0 -5 11 -10 25 -10 19 0 25 -5 25 -21 0 -24 22 -49 43
-49 22 0 49 36 45 62 -3 21 -8 23 -70 26 -43 2 -68 -1 -68 -8z m120 -35 c0
-20 -5 -25 -25 -25 -20 0 -25 5 -25 25 0 20 5 25 25 25 20 0 25 -5 25 -25z"/>
<path d="M450 1615 c0 -12 -14 -15 -62 -17 l-63 -2 59 -3 c47 -3 59 -8 63 -23
3 -11 9 -17 14 -14 12 7 11 74 -1 74 -5 0 -10 -7 -10 -15z"/>
<path d="M360 1521 c31 -5 35 -10 38 -38 3 -31 1 -33 -27 -33 -16 0 -33 -4
-36 -10 -4 -6 18 -10 59 -10 62 0 92 15 44 22 -18 2 -23 10 -23 33 0 25 5 31
30 36 19 4 1 7 -45 7 -51 -1 -64 -3 -40 -7z"/>
</g>
</svg>
