<?xml version="1.0" standalone="no"?>
<!DOCTYPE svg PUBLIC "-//W3C//DTD SVG 20010904//EN"
 "http://www.w3.org/TR/2001/REC-SVG-20010904/DTD/svg10.dtd">
<svg version="1.0" xmlns="http://www.w3.org/2000/svg"
 width="200.000000pt" height="86.000000pt" viewBox="0 0 200.000000 86.000000"
 preserveAspectRatio="xMidYMid meet">

<g transform="translate(0.000000,86.000000) scale(0.100000,-0.100000)"
fill="#000000" stroke="none">
<path d="M90 455 l0 -215 35 0 35 0 0 215 0 215 -35 0 -35 0 0 -215z"/>
<path d="M180 455 l0 -215 30 0 30 0 0 215 0 215 -30 0 -30 0 0 -215z"/>
<path d="M260 455 c0 -184 2 -215 15 -215 13 0 15 31 15 215 0 184 -2 215 -15
215 -13 0 -15 -31 -15 -215z"/>
<path d="M370 455 c0 -184 2 -215 15 -215 13 0 15 31 15 215 0 184 -2 215 -15
215 -13 0 -15 -31 -15 -215z"/>
<path d="M420 455 c0 -137 4 -215 10 -215 6 0 10 78 10 215 0 137 -4 215 -10
215 -6 0 -10 -78 -10 -215z"/>
<path d="M460 455 l0 -215 35 0 35 0 0 215 0 215 -35 0 -35 0 0 -215z"/>
<path d="M550 455 c0 -137 4 -215 10 -215 6 0 10 78 10 215 0 137 -4 215 -10
215 -6 0 -10 -78 -10 -215z"/>
<path d="M590 455 c0 -137 4 -215 10 -215 6 0 10 78 10 215 0 137 -4 215 -10
215 -6 0 -10 -78 -10 -215z"/>
<path d="M700 455 l0 -215 35 0 35 0 0 215 0 215 -35 0 -35 0 0 -215z"/>
<path d="M790 455 c0 -137 4 -215 10 -215 6 0 10 78 10 215 0 137 -4 215 -10
215 -6 0 -10 -78 -10 -215z"/>
<path d="M830 455 c0 -137 4 -215 10 -215 6 0 10 78 10 215 0 137 -4 215 -10
215 -6 0 -10 -78 -10 -215z"/>
<path d="M870 455 l0 -215 35 0 35 0 0 215 0 215 -35 0 -35 0 0 -215z"/>
<path d="M960 455 c0 -137 4 -215 10 -215 6 0 10 5 10 10 0 6 0 96 0 200 0
105 0 197 0 205 0 8 -4 15 -10 15 -6 0 -10 -78 -10 -215z"/>
<path d="M1070 455 l0 -215 35 0 35 0 0 215 0 215 -35 0 -35 0 0 -215z"/>
<path d="M1160 455 c0 -137 4 -215 10 -215 6 0 10 78 10 215 0 137 -4 215 -10
215 -6 0 -10 -78 -10 -215z"/>
<path d="M1200 455 l0 -215 35 0 35 0 0 215 0 215 -35 0 -35 0 0 -215z"/>
<path d="M1290 455 l0 -215 30 0 30 0 0 215 0 215 -30 0 -30 0 0 -215z"/>
<path d="M1370 455 c0 -184 2 -215 15 -215 13 0 15 31 15 215 0 184 -2 215
-15 215 -13 0 -15 -31 -15 -215z"/>
<path d="M1420 455 c0 -137 4 -215 10 -215 6 0 10 78 10 215 0 137 -4 215 -10
215 -6 0 -10 -78 -10 -215z"/>
<path d="M1530 455 c0 -137 4 -215 10 -215 6 0 10 78 10 215 0 137 -4 215 -10
215 -6 0 -10 -78 -10 -215z"/>
<path d="M1570 455 l0 -215 35 0 35 0 0 215 0 215 -35 0 -35 0 0 -215z"/>
<path d="M1660 455 c0 -137 4 -215 10 -215 6 0 10 78 10 215 0 137 -4 215 -10
215 -6 0 -10 -78 -10 -215z"/>
<path d="M1700 455 c0 -137 4 -215 10 -215 6 0 10 78 10 215 0 137 -4 215 -10
215 -6 0 -10 -78 -10 -215z"/>
<path d="M1810 455 c0 -137 4 -215 10 -215 6 0 10 78 10 215 0 137 -4 215 -10
215 -6 0 -10 -78 -10 -215z"/>
<path d="M1850 455 l0 -215 35 0 35 0 0 215 0 215 -35 0 -35 0 0 -215z"/>
</g>
</svg>
