<?xml version="1.0" standalone="no"?>
<!DOCTYPE svg PUBLIC "-//W3C//DTD SVG 20010904//EN"
 "http://www.w3.org/TR/2001/REC-SVG-20010904/DTD/svg10.dtd">
<svg version="1.0" xmlns="http://www.w3.org/2000/svg"
 width="200.000000pt" height="86.000000pt" viewBox="0 0 200.000000 86.000000"
 preserveAspectRatio="xMidYMid meet">

<g transform="translate(0.000000,86.000000) scale(0.100000,-0.100000)"
fill="#000000" stroke="none">
<path d="M90 455 c0 -120 3 -216 6 -212 7 7 7 418 -1 425 -3 3 -5 -93 -5 -213z"/>
<path d="M140 663 c-4 -63 0 -416 4 -421 3 -3 6 92 6 211 0 119 -2 217 -5 217
-3 0 -5 -3 -5 -7z"/>
<path d="M274 455 c0 -121 2 -169 3 -107 2 62 2 161 0 220 -1 59 -3 8 -3 -113z"/>
<path d="M384 455 c0 -121 2 -169 3 -107 2 62 2 161 0 220 -1 59 -3 8 -3 -113z"/>
<path d="M420 455 c0 -137 4 -215 10 -215 6 0 10 78 10 215 0 137 -4 215 -10
215 -6 0 -10 -78 -10 -215z"/>
<path d="M464 455 c0 -121 2 -169 3 -107 2 62 2 161 0 220 -1 59 -3 8 -3 -113z"/>
<path d="M550 455 c0 -137 4 -215 10 -215 6 0 10 78 10 215 0 137 -4 215 -10
215 -6 0 -10 -78 -10 -215z"/>
<path d="M590 455 c0 -137 4 -215 10 -215 6 0 10 78 10 215 0 137 -4 215 -10
215 -6 0 -10 -78 -10 -215z"/>
<path d="M790 455 c0 -137 4 -215 10 -215 6 0 10 78 10 215 0 137 -4 215 -10
215 -6 0 -10 -78 -10 -215z"/>
<path d="M830 455 c0 -137 4 -215 10 -215 6 0 10 78 10 215 0 137 -4 215 -10
215 -6 0 -10 -78 -10 -215z"/>
<path d="M934 455 c0 -121 2 -169 3 -107 2 62 2 161 0 220 -1 59 -3 8 -3 -113z"/>
<path d="M961 454 c-1 -149 1 -214 8 -209 13 8 15 411 2 419 -5 3 -9 -89 -10
-210z"/>
<path d="M1070 455 c0 -120 3 -216 6 -213 7 7 5 420 -1 427 -3 2 -5 -94 -5
-214z"/>
<path d="M1120 653 c0 -10 -1 -107 -3 -216 -1 -108 1 -197 6 -197 4 0 7 97 7
215 0 118 -2 215 -5 215 -3 0 -5 -8 -5 -17z"/>
<path d="M1167 663 c-12 -11 -8 -411 4 -418 7 -5 10 60 8 209 -1 119 -2 216
-4 216 -1 0 -5 -3 -8 -7z"/>
<path d="M1204 470 c0 -113 2 -159 3 -102 2 56 2 148 0 205 -1 56 -3 10 -3
-103z"/>
<path d="M1292 453 c2 -245 6 -227 10 40 2 97 0 177 -4 177 -5 0 -7 -98 -6
-217z"/>
<path d="M1340 663 c-4 -63 0 -416 4 -421 3 -3 6 92 6 211 0 119 -2 217 -5
217 -3 0 -5 -3 -5 -7z"/>
<path d="M1420 455 c0 -126 4 -215 9 -215 6 0 10 90 11 215 0 142 -3 215 -10
215 -6 0 -10 -74 -10 -215z"/>
<path d="M1530 455 c0 -137 4 -215 10 -215 6 0 10 78 10 215 0 137 -4 215 -10
215 -6 0 -10 -78 -10 -215z"/>
<path d="M1570 455 c0 -118 3 -215 8 -215 4 0 7 97 7 215 0 118 -3 215 -7 215
-5 0 -8 -97 -8 -215z"/>
<path d="M1620 653 c-2 -235 -1 -406 4 -410 3 -4 6 91 6 210 0 119 -2 217 -5
217 -3 0 -5 -8 -5 -17z"/>
<path d="M1660 455 c0 -137 4 -215 10 -215 6 0 10 78 10 215 0 137 -4 215 -10
215 -6 0 -10 -78 -10 -215z"/>
<path d="M1700 455 c1 -126 5 -215 11 -215 5 0 9 89 9 215 0 141 -4 215 -10
215 -7 0 -10 -74 -10 -215z"/>
<path d="M1810 455 c0 -137 4 -215 10 -215 6 0 10 78 10 215 0 137 -4 215 -10
215 -6 0 -10 -78 -10 -215z"/>
<path d="M1914 455 c0 -121 2 -169 3 -107 2 62 2 161 0 220 -1 59 -3 8 -3
-113z"/>
<path d="M184 450 c0 -118 2 -167 3 -108 2 60 2 156 0 215 -1 60 -3 11 -3
-107z"/>
<path d="M514 455 c0 -116 2 -161 3 -102 2 59 2 154 0 210 -1 56 -3 8 -3 -108z"/>
<path d="M754 455 c0 -116 2 -161 3 -102 2 59 2 154 0 210 -1 56 -3 8 -3 -108z"/>
<path d="M1861 634 c0 -11 3 -14 6 -6 3 7 2 16 -1 19 -3 4 -6 -2 -5 -13z"/>
<path d="M234 455 c0 -104 2 -146 3 -92 2 54 2 139 0 190 -1 51 -3 7 -3 -98z"/>
<path d="M704 445 c0 -110 2 -156 3 -103 2 53 2 143 0 200 -1 57 -3 13 -3 -97z"/>
<path d="M1254 440 c0 -113 2 -159 3 -102 2 56 2 148 0 205 -1 56 -3 10 -3
-103z"/>
<path d="M1384 430 c0 -107 2 -151 3 -97 2 53 2 141 0 195 -1 53 -3 9 -3 -98z"/>
</g>
</svg>
