<?xml version="1.0" encoding="UTF-8" standalone="no"?>
<svg width="130px" height="59px" viewBox="0 0 261 119" version="1.1" xmlns="http://www.w3.org/2000/svg" xmlns:xlink="http://www.w3.org/1999/xlink" xmlns:sketch="http://www.bohemiancoding.com/sketch/ns">
    <!-- Generator: Sketch 3.3.3 (12081) - http://www.bohemiancoding.com/sketch -->
    <title>Group</title>
    <desc>Created with Sketch.</desc>
    <defs></defs>
    <g id="Page-1" stroke="none" stroke-width="1" fill="none" fill-rule="evenodd" sketch:type="MSPage">
        <g id="uoe-white-black" sketch:type="MSLayerGroup">
            <g id="Group" sketch:type="MSShapeGroup">
                <g>
                    <rect id="Rectangle-path" fill="#0B0D0D" x="0" y="0" width="261" height="119"></rect>
                    <rect id="Rectangle-path" fill="#FFFFFF" x="45.1" y="21" width="14.1" height="14.1"></rect>
                    <rect id="Rectangle-path" fill="#FFFFFF" x="30.9" y="35.1" width="14.1" height="14.1"></rect>
                    <rect id="Rectangle-path" fill="#FFFFFF" x="45.1" y="49.2" width="14.1" height="14.1"></rect>
                    <rect id="Rectangle-path" fill="#FFFFFF" x="30.9" y="63.4" width="14.1" height="14.1"></rect>
                    <rect id="Rectangle-path" fill="#FFFFFF" x="45.1" y="77.5" width="14.1" height="14.1"></rect>
                    <g transform="translate(73.000000, 49.000000)" fill="#FFFFFF">
                        <path d="M18.2,3.9 C16.7,3.9 15.6,4.8 15,6.1 L15,6.1 L15,4.2 L13.5,4.2 L13.5,14.5 L15,14.5 L15,9.1 C15,8.1 15.1,7.1 15.8,6.3 C16.3,5.7 17.1,5.3 17.9,5.3 C18.6,5.3 19.3,5.6 19.7,6.2 C20,6.7 20,7.5 20,8.1 L20,14.5 L21.6,14.5 L21.6,8.8 C21.6,7.8 21.6,6.4 21.1,5.5 C20.5,4.4 19.4,3.9 18.2,3.9" id="Shape"></path>
                        <rect id="Rectangle-path" x="23.6" y="4.2" width="1.6" height="10.3"></rect>
                        <rect id="Rectangle-path" x="23.5" y="0.5" width="1.7" height="1.8"></rect>
                        <path d="M48.1,6.6 L48.1,6.6 L48.1,4.2 L46.7,4.2 L46.7,14.5 L48.3,14.5 L48.3,9.3 C48.3,8.5 48.4,7.8 48.8,7.1 C49.4,6.1 50.2,5.5 51.5,5.5 L51.8,5.5 L51.8,4 L51.2,4 C49.5,3.9 48.6,5.2 48.1,6.6" id="Shape"></path>
                        <path d="M59.7,9.1 C59.1,8.7 58.3,8.5 57.6,8.4 L56.1,8.1 C55.2,8 54.3,7.7 54.3,6.6 C54.3,5.5 55.6,5.1 56.5,5.1 C57.7,5.1 58.7,5.6 59.1,6.7 L60.6,6.4 C60.1,4.5 58.4,3.8 56.5,3.8 C54.6,3.8 52.6,4.7 52.6,6.8 C52.6,8.6 54,9.4 55.6,9.7 L57.3,10 C58.2,10.2 59.3,10.5 59.3,11.6 C59.3,12.9 57.9,13.3 56.8,13.3 C55.6,13.3 53.9,12.8 53.7,11.4 L52.2,11.7 C52.7,13.8 54.7,14.6 56.7,14.6 C58.7,14.6 61,13.7 61,11.4 C61,10.5 60.5,9.7 59.7,9.1" id="Shape"></path>
                        <rect id="Rectangle-path" x="62.7" y="4.2" width="1.6" height="10.3"></rect>
                        <rect id="Rectangle-path" x="62.6" y="0.5" width="1.7" height="1.8"></rect>
                        <path d="M95.9,4.2 L94.1,4.2 L94.1,5.5 L95.9,5.5 L95.9,14.5 L97.5,14.5 L97.5,5.5 L99.9,5.5 L99.9,4.2 L97.5,4.2 C97.5,2.9 97.5,1.6 99.2,1.6 C99.6,1.6 100.1,1.7 100.5,1.8 L100.9,0.5 L99.5,0.4 C96.9,0.1 95.8,2 95.9,4.2" id="Shape"></path>
                        <path d="M107.2,7.9 L112.8,7.9 L112.8,6.5 L107.2,6.5 L107.2,2 L114.2,2 L114.2,0.5 L105.4,0.5 L105.4,14.5 L114.4,14.5 L114.4,13 L107.2,13 L107.2,7.9" id="Shape"></path>
                        <path d="M122.8,9.1 C122.2,8.7 121.4,8.5 120.6,8.4 L119.1,8.1 C118.2,8 117.3,7.7 117.3,6.6 C117.3,5.5 118.6,5.1 119.5,5.1 C120.7,5.1 121.7,5.6 122.1,6.7 L123.6,6.4 C123.1,4.5 121.4,3.8 119.5,3.8 C117.6,3.8 115.6,4.7 115.6,6.8 C115.6,8.6 117,9.4 118.6,9.7 L120.3,10 C121.2,10.2 122.3,10.5 122.3,11.6 C122.3,12.9 120.9,13.3 119.8,13.3 C118.6,13.3 116.9,12.8 116.7,11.4 L115.2,11.7 C115.7,13.8 117.7,14.6 119.7,14.6 C121.7,14.6 124,13.7 124,11.4 C124,10.5 123.6,9.7 122.8,9.1" id="Shape"></path>
                        <path d="M132.7,9.1 C132.1,8.7 131.3,8.5 130.5,8.4 L129,8.1 C128.1,8 127.2,7.7 127.2,6.6 C127.2,5.5 128.5,5.1 129.4,5.1 C130.6,5.1 131.6,5.6 132,6.7 L133.5,6.4 C133,4.5 131.3,3.8 129.4,3.8 C127.5,3.8 125.5,4.7 125.5,6.8 C125.5,8.6 126.9,9.4 128.5,9.7 L130.2,10 C131.1,10.2 132.2,10.5 132.2,11.6 C132.2,12.9 130.8,13.3 129.7,13.3 C128.5,13.3 126.8,12.8 126.6,11.4 L125.1,11.7 C125.6,13.8 127.6,14.6 129.6,14.6 C131.6,14.6 133.9,13.7 133.9,11.4 C133.9,10.5 133.5,9.7 132.7,9.1" id="Shape"></path>
                        <path d="M142.4,8.3 C142.4,6.6 141.5,5.1 139.6,5.1 C137.9,5.1 136.8,6.6 136.7,8.3 L142.4,8.3 L142.4,8.3 Z M144,11.7 C143.4,13.6 141.6,14.7 139.6,14.7 C136.5,14.7 134.9,12.2 134.9,9.3 C134.9,6.5 136.6,3.9 139.7,3.9 C142.9,3.9 144.3,6.6 144.2,9.4 L136.7,9.4 C136.7,10.2 136.7,11 137.1,11.7 C137.6,12.7 138.7,13.3 139.7,13.3 C141,13.3 142,12.5 142.5,11.3 L144,11.7 L144,11.7 Z" id="Shape"></path>
                        <path d="M43.2,8.3 C43.2,6.6 42.3,5.1 40.4,5.1 C38.7,5.1 37.6,6.6 37.5,8.3 L43.2,8.3 L43.2,8.3 Z M44.8,11.7 C44.2,13.6 42.4,14.7 40.4,14.7 C37.3,14.7 35.7,12.2 35.7,9.3 C35.7,6.5 37.4,3.9 40.5,3.9 C43.7,3.9 45.1,6.6 45,9.4 L37.5,9.4 C37.5,10.2 37.5,11 37.9,11.7 C38.4,12.7 39.5,13.3 40.5,13.3 C41.8,13.3 42.8,12.5 43.3,11.3 L44.8,11.7 L44.8,11.7 Z" id="Shape"></path>
                        <path d="M91.4,11.9 C91.8,11.1 91.9,10.2 91.9,9.3 C91.9,8.3 91.8,7.3 91.3,6.5 C90.8,5.7 90,5.3 89.1,5.3 C88.1,5.3 87.2,5.9 86.8,6.8 C86.4,7.5 86.3,8.5 86.3,9.4 C86.3,10.3 86.4,11.4 86.9,12.2 C87.3,13 88.2,13.5 89.2,13.5 C90.1,13.3 90.9,12.8 91.4,11.9 L91.4,11.9 Z M84.4,9.2 C84.4,6.3 86,3.9 89.1,3.9 C92.1,3.9 93.6,6.5 93.6,9.3 C93.6,12.2 91.9,14.7 88.8,14.7 C85.8,14.7 84.4,11.9 84.4,9.2 L84.4,9.2 Z" id="Shape"></path>
                        <path d="M9.9,0.5 L9.9,9.3 C9.9,10.1 9.9,11.3 9.3,12 C8.7,12.8 7.3,13 6.2,13.1 C5.2,13.1 3.9,12.8 3.3,12 C2.7,11.3 2.7,10.1 2.7,9.3 L2.7,0.5 L0.8,0.5 L0.8,9.3 C0.8,10.7 0.9,12.1 2,13.3 C3,14.4 4.6,14.6 6.2,14.6 L6.2,14.6 C7.7,14.6 9.3,14.3 10.4,13.3 C11.5,12.2 11.6,10.8 11.6,9.3 L11.6,0.5 L9.9,0.5" id="Shape"></path>
                        <path d="M149.8,8.8 L152.9,4.2 L152.9,4.1 L151.2,4.1 L149,7.7 L146.8,4.2 L145,4.2 L148.1,9.1 L144.6,14.5 L144.5,14.5 L146.2,14.5 L148.9,10.4 L151.5,14.5 L153.4,14.5 L149.8,8.8" id="Shape"></path>
                        <path d="M35.2,4.1 L33.8,4.1 L33.8,4.2 L31,12.5 L28.1,4.2 L26.3,4.2 L30,14.5 L31.7,14.5 L35.3,4.2 L35.3,4.1 L35.2,4.1" id="Shape"></path>
                        <path d="M81.2,4.1 L79.8,4.1 L77,11.8 L74.2,4.1 L69.3,4.1 L69.3,0.4 L67.7,0.6 L67.7,4.1 L65.9,4.1 L65.9,5.4 L67.7,5.4 L67.7,11.1 C67.7,13.1 68.4,14.5 70.6,14.5 L72.1,14.4 L72.1,13.1 L70.9,13.2 C69.6,13.2 69.3,12.6 69.3,11.4 L69.3,5.4 L73,5.4 L76.1,14.3 L76,14.6 C75.6,15.7 75.3,16.8 73.8,16.8 C73.5,16.8 73.2,16.8 72.8,16.7 L72.7,16.7 L72.7,18 C73,18.1 73.5,18.2 73.9,18.2 C74.8,18.2 75.4,18.1 76,17.4 C76.6,16.8 76.8,16.2 77.1,15.5 C77.2,15.5 81.2,4.2 81.2,4.1 L81.2,4.1" id="Shape"></path>
                    </g>
                </g>
            </g>
        </g>
    </g>
</svg>
