<?xml version="1.0" standalone="no"?>
<!DOCTYPE svg PUBLIC "-//W3C//DTD SVG 20010904//EN"
 "http://www.w3.org/TR/2001/REC-SVG-20010904/DTD/svg10.dtd">
<svg version="1.0" xmlns="http://www.w3.org/2000/svg"
 width="200.000000pt" height="86.000000pt" viewBox="0 0 200.000000 86.000000"
 preserveAspectRatio="xMidYMid meet">

<g transform="translate(0.000000,86.000000) scale(0.100000,-0.100000)"
fill="#000000" stroke="none">
<path d="M90 455 l0 -215 30 0 30 0 0 215 0 215 -30 0 -30 0 0 -215z"/>
<path d="M180 455 l0 -215 30 0 30 0 0 215 0 215 -30 0 -30 0 0 -215z"/>
<path d="M274 455 c0 -121 2 -169 3 -107 2 62 2 161 0 220 -1 59 -3 8 -3 -113z"/>
<path d="M384 455 c0 -121 2 -169 3 -107 2 62 2 161 0 220 -1 59 -3 8 -3 -113z"/>
<path d="M420 455 c0 -137 4 -215 10 -215 6 0 10 78 10 215 0 137 -4 215 -10
215 -6 0 -10 -78 -10 -215z"/>
<path d="M460 455 l0 -215 30 0 30 0 0 215 0 215 -30 0 -30 0 0 -215z"/>
<path d="M550 455 c0 -137 4 -215 10 -215 6 0 10 78 10 215 0 137 -4 215 -10
215 -6 0 -10 -78 -10 -215z"/>
<path d="M590 455 c0 -137 4 -215 10 -215 6 0 10 78 10 215 0 137 -4 215 -10
215 -6 0 -10 -78 -10 -215z"/>
<path d="M700 455 l0 -215 30 0 30 0 0 215 0 215 -30 0 -30 0 0 -215z"/>
<path d="M790 455 c0 -137 4 -215 10 -215 6 0 10 78 10 215 0 137 -4 215 -10
215 -6 0 -10 -78 -10 -215z"/>
<path d="M830 455 c0 -137 4 -215 10 -215 6 0 10 78 10 215 0 137 -4 215 -10
215 -6 0 -10 -78 -10 -215z"/>
<path d="M880 455 l0 -215 30 0 30 0 0 215 0 215 -30 0 -30 0 0 -215z"/>
<path d="M960 455 c0 -137 4 -215 10 -215 6 0 10 78 10 215 0 137 -4 215 -10
215 -6 0 -10 -78 -10 -215z"/>
<path d="M1070 455 l0 -215 30 0 30 0 0 215 0 215 -30 0 -30 0 0 -215z"/>
<path d="M1160 455 c0 -137 4 -215 10 -215 6 0 10 78 10 215 0 137 -4 215 -10
215 -6 0 -10 -78 -10 -215z"/>
<path d="M1200 455 l0 -215 30 0 30 0 0 215 0 215 -30 0 -30 0 0 -215z"/>
<path d="M1290 455 l0 -215 30 0 30 0 0 215 0 215 -30 0 -30 0 0 -215z"/>
<path d="M1384 455 c0 -121 2 -169 3 -107 2 62 2 161 0 220 -1 59 -3 8 -3
-113z"/>
<path d="M1420 455 c0 -137 4 -215 10 -215 6 0 10 78 10 215 0 137 -4 215 -10
215 -6 0 -10 -78 -10 -215z"/>
<path d="M1530 455 c0 -137 4 -215 10 -215 6 0 10 78 10 215 0 137 -4 215 -10
215 -6 0 -10 -78 -10 -215z"/>
<path d="M1570 455 l0 -215 30 0 30 0 0 215 0 215 -30 0 -30 0 0 -215z"/>
<path d="M1660 455 c0 -137 4 -215 10 -215 6 0 10 78 10 215 0 137 -4 215 -10
215 -6 0 -10 -78 -10 -215z"/>
<path d="M1700 455 c0 -137 4 -215 10 -215 6 0 10 78 10 215 0 137 -4 215 -10
215 -6 0 -10 -78 -10 -215z"/>
<path d="M1810 455 c0 -137 4 -215 10 -215 6 0 10 78 10 215 0 137 -4 215 -10
215 -6 0 -10 -78 -10 -215z"/>
<path d="M1860 455 l0 -215 30 0 30 0 0 215 0 215 -30 0 -30 0 0 -215z"/>
</g>
</svg>
